M48
INCH,LZ
;FILE_FORMAT=2:4
;TYPE=PLATED
;Layer: PTH_Through
;EasyEDA v6.5.22, 2022-12-01 15:05:32
;f9cf6ae4047b4148b17f980a7d3d99a3,3377a35bda5640eaacad09db658d017c,10
;Gerber Generator version 0.2
;Holesize 1 = 0.0350 inch
T01C0.0350
;Holesize 2 = 0.0360 inch
T02C0.0360
;Holesize 3 = 0.0390 inch
T03C0.0390
%
G05
G90
T01
X017950Y-001900
X018950Y-001900
X022400Y-001900
X023400Y-001900
X027100Y-001950
X028100Y-001950
X029500Y002150
X029500Y003150
X029500Y006900
X029500Y007900
X029500Y011450
X029500Y012450
X018300Y006000
X018300Y007000
X018300Y008000
X018300Y009000
X018450Y000450
X018450Y001450
X018450Y002450
X018450Y003450
X030500Y016150
X029500Y016150
X028500Y016150
X027500Y016150
X026500Y016150
X025500Y016150
X003950Y-001700
X003950Y-000700
X016450Y019550
X017450Y019550
X018450Y019550
X019450Y019550
X020450Y019550
X021450Y019550
X022450Y019550
X023450Y019550
T02
X019950Y-001900
X024400Y-001900
X029100Y-001950
X029500Y004150
X029500Y008900
X029500Y013450
T03
X004500Y019450
X005500Y019450
X015650Y016200
X015650Y015200
X015650Y014200
X015650Y013200
X015650Y012200
X015650Y011200
X015650Y010200
X015650Y009200
X015650Y008200
X015650Y007200
X015650Y006200
X015650Y005200
X015650Y004200
X015650Y003200
X015650Y002200
X005650Y015200
X005650Y014200
X005650Y013200
X005650Y012200
X005650Y011200
X005650Y010200
X005650Y009200
X005650Y008200
X005650Y007200
X005650Y006200
X005650Y005200
X005650Y004200
X005650Y003200
X005650Y002200
X005650Y016200
X015650Y001200
X015650Y000200
X015650Y017200
X005650Y017200
X005650Y001200
X005650Y000200
X015650Y-000800
X005650Y-000800
X005650Y-001800
X015650Y-001800
M30
