G04 Layer: TopSilkscreenLayer*
G04 EasyEDA v6.5.22, 2022-12-01 15:05:32*
G04 f9cf6ae4047b4148b17f980a7d3d99a3,3377a35bda5640eaacad09db658d017c,10*
G04 Gerber Generator version 0.2*
G04 Scale: 100 percent, Rotated: No, Reflected: No *
G04 Dimensions in inches *
G04 leading zeros omitted , absolute positions ,3 integer and 6 decimal *
%FSLAX36Y36*%
%MOIN*%

%ADD10C,0.0060*%
%ADD11C,0.0080*%
%ADD12C,0.0100*%
%ADD13C,0.0080*%
%ADD14C,0.0157*%
%ADD15C,0.0079*%
%ADD16C,0.0118*%
%ADD17C,0.0183*%

%LPD*%
D10*
X1634799Y1770700D02*
G01*
X1630699Y1768600D01*
X1626599Y1764499D01*
X1624600Y1760500D01*
X1624600Y1752300D01*
X1626599Y1748200D01*
X1630699Y1744099D01*
X1634799Y1741999D01*
X1641000Y1740000D01*
X1651199Y1740000D01*
X1657299Y1741999D01*
X1661400Y1744099D01*
X1665500Y1748200D01*
X1667500Y1752300D01*
X1667500Y1760500D01*
X1665500Y1764499D01*
X1661400Y1768600D01*
X1657299Y1770700D01*
X1624600Y1784200D02*
G01*
X1667500Y1784200D01*
X1624600Y1812800D02*
G01*
X1667500Y1812800D01*
X1645000Y1784200D02*
G01*
X1645000Y1812800D01*
X1632799Y1826300D02*
G01*
X1630699Y1830399D01*
X1624600Y1836500D01*
X1667500Y1836500D01*
X1630699Y1868499D02*
G01*
X1667500Y1868499D01*
X1649099Y1850000D02*
G01*
X1649099Y1886900D01*
X1734799Y1770700D02*
G01*
X1730699Y1768600D01*
X1726599Y1764499D01*
X1724600Y1760500D01*
X1724600Y1752300D01*
X1726599Y1748200D01*
X1730699Y1744099D01*
X1734799Y1741999D01*
X1741000Y1740000D01*
X1751199Y1740000D01*
X1757299Y1741999D01*
X1761400Y1744099D01*
X1765500Y1748200D01*
X1767500Y1752300D01*
X1767500Y1760500D01*
X1765500Y1764499D01*
X1761400Y1768600D01*
X1757299Y1770700D01*
X1724600Y1784200D02*
G01*
X1767500Y1784200D01*
X1724600Y1812800D02*
G01*
X1767500Y1812800D01*
X1745000Y1784200D02*
G01*
X1745000Y1812800D01*
X1732799Y1826300D02*
G01*
X1730699Y1830399D01*
X1724600Y1836500D01*
X1767500Y1836500D01*
X1749099Y1850000D02*
G01*
X1749099Y1886900D01*
X1834799Y1755700D02*
G01*
X1830699Y1753600D01*
X1826599Y1749499D01*
X1824600Y1745500D01*
X1824600Y1737300D01*
X1826599Y1733200D01*
X1830699Y1729099D01*
X1834799Y1726999D01*
X1841000Y1725000D01*
X1851199Y1725000D01*
X1857299Y1726999D01*
X1861400Y1729099D01*
X1865500Y1733200D01*
X1867500Y1737300D01*
X1867500Y1745500D01*
X1865500Y1749499D01*
X1861400Y1753600D01*
X1857299Y1755700D01*
X1824600Y1769200D02*
G01*
X1867500Y1769200D01*
X1824600Y1797800D02*
G01*
X1867500Y1797800D01*
X1845000Y1769200D02*
G01*
X1845000Y1797800D01*
X1834799Y1813400D02*
G01*
X1832799Y1813400D01*
X1828699Y1815399D01*
X1826599Y1817500D01*
X1824600Y1821500D01*
X1824600Y1829699D01*
X1826599Y1833800D01*
X1828699Y1835900D01*
X1832799Y1837899D01*
X1836899Y1837899D01*
X1841000Y1835900D01*
X1847100Y1831799D01*
X1867500Y1811300D01*
X1867500Y1840000D01*
X1830699Y1871900D02*
G01*
X1867500Y1871900D01*
X1849099Y1853499D02*
G01*
X1849099Y1890300D01*
X1929799Y1755700D02*
G01*
X1925699Y1753600D01*
X1921599Y1749499D01*
X1919600Y1745500D01*
X1919600Y1737300D01*
X1921599Y1733200D01*
X1925699Y1729099D01*
X1929799Y1726999D01*
X1936000Y1725000D01*
X1946199Y1725000D01*
X1952299Y1726999D01*
X1956400Y1729099D01*
X1960500Y1733200D01*
X1962500Y1737300D01*
X1962500Y1745500D01*
X1960500Y1749499D01*
X1956400Y1753600D01*
X1952299Y1755700D01*
X1919600Y1769200D02*
G01*
X1962500Y1769200D01*
X1919600Y1797800D02*
G01*
X1962500Y1797800D01*
X1940000Y1769200D02*
G01*
X1940000Y1797800D01*
X1929799Y1813400D02*
G01*
X1927799Y1813400D01*
X1923699Y1815399D01*
X1921599Y1817500D01*
X1919600Y1821500D01*
X1919600Y1829699D01*
X1921599Y1833800D01*
X1923699Y1835900D01*
X1927799Y1837899D01*
X1931899Y1837899D01*
X1936000Y1835900D01*
X1942100Y1831799D01*
X1962500Y1811300D01*
X1962500Y1840000D01*
X1944099Y1853499D02*
G01*
X1944099Y1890300D01*
X2034799Y1750700D02*
G01*
X2030699Y1748600D01*
X2026599Y1744499D01*
X2024600Y1740500D01*
X2024600Y1732300D01*
X2026599Y1728200D01*
X2030699Y1724099D01*
X2034799Y1721999D01*
X2041000Y1720000D01*
X2051199Y1720000D01*
X2057299Y1721999D01*
X2061400Y1724099D01*
X2065500Y1728200D01*
X2067500Y1732300D01*
X2067500Y1740500D01*
X2065500Y1744499D01*
X2061400Y1748600D01*
X2057299Y1750700D01*
X2024600Y1764200D02*
G01*
X2067500Y1764200D01*
X2024600Y1792800D02*
G01*
X2067500Y1792800D01*
X2045000Y1764200D02*
G01*
X2045000Y1792800D01*
X2024600Y1810399D02*
G01*
X2024600Y1832899D01*
X2041000Y1820599D01*
X2041000Y1826799D01*
X2043000Y1830900D01*
X2045000Y1832899D01*
X2051199Y1835000D01*
X2055299Y1835000D01*
X2061400Y1832899D01*
X2065500Y1828800D01*
X2067500Y1822699D01*
X2067500Y1816500D01*
X2065500Y1810399D01*
X2063500Y1808400D01*
X2059399Y1806300D01*
X2030699Y1866900D02*
G01*
X2067500Y1866900D01*
X2049099Y1848499D02*
G01*
X2049099Y1885300D01*
X2139792Y1755693D02*
G01*
X2135693Y1753593D01*
X2131593Y1749592D01*
X2129593Y1745493D01*
X2129593Y1737292D01*
X2131593Y1733193D01*
X2135693Y1729092D01*
X2139792Y1727092D01*
X2145992Y1724992D01*
X2156193Y1724992D01*
X2162292Y1727092D01*
X2166392Y1729092D01*
X2170492Y1733193D01*
X2172592Y1737292D01*
X2172592Y1745493D01*
X2170492Y1749592D01*
X2166392Y1753593D01*
X2162292Y1755693D01*
X2129593Y1769193D02*
G01*
X2172592Y1769193D01*
X2129593Y1797793D02*
G01*
X2172592Y1797793D01*
X2150092Y1769193D02*
G01*
X2150092Y1797793D01*
X2129593Y1815392D02*
G01*
X2129593Y1837892D01*
X2145992Y1825592D01*
X2145992Y1831792D01*
X2147992Y1835893D01*
X2150092Y1837892D01*
X2156193Y1839992D01*
X2160293Y1839992D01*
X2166392Y1837892D01*
X2170492Y1833793D01*
X2172592Y1827692D01*
X2172592Y1821592D01*
X2170492Y1815392D01*
X2168492Y1813393D01*
X2164393Y1811293D01*
X2154093Y1853492D02*
G01*
X2154093Y1890293D01*
X2239799Y1750700D02*
G01*
X2235699Y1748600D01*
X2231599Y1744499D01*
X2229600Y1740500D01*
X2229600Y1732300D01*
X2231599Y1728200D01*
X2235699Y1724099D01*
X2239799Y1721999D01*
X2246000Y1720000D01*
X2256199Y1720000D01*
X2262299Y1721999D01*
X2266400Y1724099D01*
X2270500Y1728200D01*
X2272500Y1732300D01*
X2272500Y1740500D01*
X2270500Y1744499D01*
X2266400Y1748600D01*
X2262299Y1750700D01*
X2229600Y1764200D02*
G01*
X2272500Y1764200D01*
X2229600Y1792800D02*
G01*
X2272500Y1792800D01*
X2250000Y1764200D02*
G01*
X2250000Y1792800D01*
X2229600Y1826799D02*
G01*
X2258199Y1806300D01*
X2258199Y1836999D01*
X2229600Y1826799D02*
G01*
X2272500Y1826799D01*
X2235699Y1868899D02*
G01*
X2272500Y1868899D01*
X2254099Y1850500D02*
G01*
X2254099Y1887300D01*
X2334799Y1750700D02*
G01*
X2330699Y1748600D01*
X2326599Y1744499D01*
X2324600Y1740500D01*
X2324600Y1732300D01*
X2326599Y1728200D01*
X2330699Y1724099D01*
X2334799Y1721999D01*
X2341000Y1720000D01*
X2351199Y1720000D01*
X2357299Y1721999D01*
X2361400Y1724099D01*
X2365500Y1728200D01*
X2367500Y1732300D01*
X2367500Y1740500D01*
X2365500Y1744499D01*
X2361400Y1748600D01*
X2357299Y1750700D01*
X2324600Y1764200D02*
G01*
X2367500Y1764200D01*
X2324600Y1792800D02*
G01*
X2367500Y1792800D01*
X2345000Y1764200D02*
G01*
X2345000Y1792800D01*
X2324600Y1826799D02*
G01*
X2353199Y1806300D01*
X2353199Y1836999D01*
X2324600Y1826799D02*
G01*
X2367500Y1826799D01*
X2349099Y1850500D02*
G01*
X2349099Y1887300D01*
X2524600Y1694099D02*
G01*
X2524600Y1716599D01*
X2541000Y1704299D01*
X2541000Y1710500D01*
X2543000Y1714499D01*
X2545000Y1716599D01*
X2551199Y1718600D01*
X2555299Y1718600D01*
X2561400Y1716599D01*
X2565500Y1712500D01*
X2567500Y1706399D01*
X2567500Y1700199D01*
X2565500Y1694099D01*
X2563500Y1691999D01*
X2559399Y1690000D01*
X2524600Y1732100D02*
G01*
X2567500Y1748499D01*
X2524600Y1764899D02*
G01*
X2567500Y1748499D01*
X2524600Y1782500D02*
G01*
X2524600Y1805000D01*
X2541000Y1792699D01*
X2541000Y1798800D01*
X2543000Y1802899D01*
X2545000Y1805000D01*
X2551199Y1806999D01*
X2555299Y1806999D01*
X2561400Y1805000D01*
X2565500Y1800900D01*
X2567500Y1794699D01*
X2567500Y1788600D01*
X2565500Y1782500D01*
X2563500Y1780399D01*
X2559399Y1778400D01*
X2634799Y1725700D02*
G01*
X2630699Y1723600D01*
X2626599Y1719499D01*
X2624600Y1715500D01*
X2624600Y1707300D01*
X2626599Y1703200D01*
X2630699Y1699099D01*
X2634799Y1696999D01*
X2641000Y1695000D01*
X2651199Y1695000D01*
X2657299Y1696999D01*
X2661400Y1699099D01*
X2665500Y1703200D01*
X2667500Y1707300D01*
X2667500Y1715500D01*
X2665500Y1719499D01*
X2661400Y1723600D01*
X2657299Y1725700D01*
X2630699Y1767800D02*
G01*
X2626599Y1763699D01*
X2624600Y1757600D01*
X2624600Y1749400D01*
X2626599Y1743299D01*
X2630699Y1739200D01*
X2634799Y1739200D01*
X2638900Y1741199D01*
X2641000Y1743299D01*
X2643000Y1747399D01*
X2647100Y1759600D01*
X2649099Y1763699D01*
X2651199Y1765799D01*
X2655299Y1767800D01*
X2661400Y1767800D01*
X2665500Y1763699D01*
X2667500Y1757600D01*
X2667500Y1749400D01*
X2665500Y1743299D01*
X2661400Y1739200D01*
X2724600Y1690000D02*
G01*
X2767500Y1690000D01*
X2724600Y1690000D02*
G01*
X2767500Y1706399D01*
X2724600Y1722699D02*
G01*
X2767500Y1706399D01*
X2724600Y1722699D02*
G01*
X2767500Y1722699D01*
X2724600Y1748499D02*
G01*
X2726599Y1744400D01*
X2730699Y1740300D01*
X2734799Y1738299D01*
X2741000Y1736199D01*
X2751199Y1736199D01*
X2757299Y1738299D01*
X2761400Y1740300D01*
X2765500Y1744400D01*
X2767500Y1748499D01*
X2767500Y1756700D01*
X2765500Y1760799D01*
X2761400Y1764899D01*
X2757299Y1766900D01*
X2751199Y1769000D01*
X2741000Y1769000D01*
X2734799Y1766900D01*
X2730699Y1764899D01*
X2726599Y1760799D01*
X2724600Y1756700D01*
X2724600Y1748499D01*
X2730699Y1811100D02*
G01*
X2726599Y1806999D01*
X2724600Y1800900D01*
X2724600Y1792699D01*
X2726599Y1786500D01*
X2730699Y1782500D01*
X2734799Y1782500D01*
X2738900Y1784499D01*
X2741000Y1786500D01*
X2743000Y1790599D01*
X2747100Y1802899D01*
X2749099Y1806999D01*
X2751199Y1809000D01*
X2755299Y1811100D01*
X2761400Y1811100D01*
X2765500Y1806999D01*
X2767500Y1800900D01*
X2767500Y1792699D01*
X2765500Y1786500D01*
X2761400Y1782500D01*
X2724600Y1824600D02*
G01*
X2767500Y1824600D01*
X2834799Y1715700D02*
G01*
X2830699Y1713600D01*
X2826599Y1709499D01*
X2824600Y1705500D01*
X2824600Y1697300D01*
X2826599Y1693200D01*
X2830699Y1689099D01*
X2834799Y1686999D01*
X2841000Y1685000D01*
X2851199Y1685000D01*
X2857299Y1686999D01*
X2861400Y1689099D01*
X2865500Y1693200D01*
X2867500Y1697300D01*
X2867500Y1705500D01*
X2865500Y1709499D01*
X2861400Y1713600D01*
X2857299Y1715700D01*
X2824600Y1729200D02*
G01*
X2867500Y1729200D01*
X2867500Y1729200D02*
G01*
X2867500Y1753699D01*
X2824600Y1767199D02*
G01*
X2867500Y1767199D01*
X2824600Y1795900D02*
G01*
X2853199Y1767199D01*
X2843000Y1777500D02*
G01*
X2867500Y1795900D01*
X2924600Y1690000D02*
G01*
X2967500Y1690000D01*
X2924600Y1690000D02*
G01*
X2967500Y1706399D01*
X2924600Y1722699D02*
G01*
X2967500Y1706399D01*
X2924600Y1722699D02*
G01*
X2967500Y1722699D01*
X2924600Y1736199D02*
G01*
X2967500Y1736199D01*
X2930699Y1778400D02*
G01*
X2926599Y1774299D01*
X2924600Y1768099D01*
X2924600Y1760000D01*
X2926599Y1753800D01*
X2930699Y1749699D01*
X2934799Y1749699D01*
X2938900Y1751799D01*
X2941000Y1753800D01*
X2943000Y1757899D01*
X2947100Y1770199D01*
X2949099Y1774299D01*
X2951199Y1776300D01*
X2955299Y1778400D01*
X2961400Y1778400D01*
X2965500Y1774299D01*
X2967500Y1768099D01*
X2967500Y1760000D01*
X2965500Y1753800D01*
X2961400Y1749699D01*
X2924600Y1804099D02*
G01*
X2926599Y1800000D01*
X2930699Y1795999D01*
X2934799Y1793899D01*
X2941000Y1791900D01*
X2951199Y1791900D01*
X2957299Y1793899D01*
X2961400Y1795999D01*
X2965500Y1800000D01*
X2967500Y1804099D01*
X2967500Y1812300D01*
X2965500Y1816399D01*
X2961400Y1820500D01*
X2957299Y1822500D01*
X2951199Y1824600D01*
X2941000Y1824600D01*
X2934799Y1822500D01*
X2930699Y1820500D01*
X2926599Y1816399D01*
X2924600Y1812300D01*
X2924600Y1804099D01*
X3044799Y1720700D02*
G01*
X3040699Y1718600D01*
X3036599Y1714499D01*
X3034600Y1710500D01*
X3034600Y1702300D01*
X3036599Y1698200D01*
X3040699Y1694099D01*
X3044799Y1691999D01*
X3051000Y1690000D01*
X3061199Y1690000D01*
X3067299Y1691999D01*
X3071400Y1694099D01*
X3075500Y1698200D01*
X3077500Y1702300D01*
X3077500Y1710500D01*
X3075500Y1714499D01*
X3071400Y1718600D01*
X3067299Y1720700D01*
X3061199Y1720700D01*
X3061199Y1710500D02*
G01*
X3061199Y1720700D01*
X3034600Y1734200D02*
G01*
X3077500Y1734200D01*
X3034600Y1734200D02*
G01*
X3077500Y1762800D01*
X3034600Y1762800D02*
G01*
X3077500Y1762800D01*
X3034600Y1776300D02*
G01*
X3077500Y1776300D01*
X3034600Y1776300D02*
G01*
X3034600Y1790599D01*
X3036599Y1796799D01*
X3040699Y1800900D01*
X3044799Y1802899D01*
X3051000Y1805000D01*
X3061199Y1805000D01*
X3067299Y1802899D01*
X3071400Y1800900D01*
X3075500Y1796799D01*
X3077500Y1790599D01*
X3077500Y1776300D01*
X3020000Y1260399D02*
G01*
X3036400Y1217500D01*
X3052700Y1260399D02*
G01*
X3036400Y1217500D01*
X3066199Y1260399D02*
G01*
X3066199Y1217500D01*
X3079700Y1260399D02*
G01*
X3079700Y1217500D01*
X3079700Y1260399D02*
G01*
X3108400Y1217500D01*
X3108400Y1260399D02*
G01*
X3108400Y1217500D01*
X3020000Y805399D02*
G01*
X3036400Y762500D01*
X3052700Y805399D02*
G01*
X3036400Y762500D01*
X3066199Y805399D02*
G01*
X3066199Y762500D01*
X3079700Y805399D02*
G01*
X3079700Y762500D01*
X3079700Y805399D02*
G01*
X3108400Y762500D01*
X3108400Y805399D02*
G01*
X3108400Y762500D01*
X3030000Y330399D02*
G01*
X3046400Y287500D01*
X3062700Y330399D02*
G01*
X3046400Y287500D01*
X3076199Y330399D02*
G01*
X3076199Y287500D01*
X3089700Y330399D02*
G01*
X3089700Y287500D01*
X3089700Y330399D02*
G01*
X3118400Y287500D01*
X3118400Y330399D02*
G01*
X3118400Y287500D01*
X2789600Y-350000D02*
G01*
X2832500Y-333600D01*
X2789600Y-317300D02*
G01*
X2832500Y-333600D01*
X2789600Y-303800D02*
G01*
X2832500Y-303800D01*
X2789600Y-290300D02*
G01*
X2832500Y-290300D01*
X2789600Y-290300D02*
G01*
X2832500Y-261599D01*
X2789600Y-261599D02*
G01*
X2832500Y-261599D01*
X2319600Y-350000D02*
G01*
X2362500Y-333600D01*
X2319600Y-317300D02*
G01*
X2362500Y-333600D01*
X2319600Y-303800D02*
G01*
X2362500Y-303800D01*
X2319600Y-290300D02*
G01*
X2362500Y-290300D01*
X2319600Y-290300D02*
G01*
X2362500Y-261599D01*
X2319600Y-261599D02*
G01*
X2362500Y-261599D01*
X1874600Y-345000D02*
G01*
X1917500Y-328600D01*
X1874600Y-312300D02*
G01*
X1917500Y-328600D01*
X1874600Y-298800D02*
G01*
X1917500Y-298800D01*
X1874600Y-285300D02*
G01*
X1917500Y-285300D01*
X1874600Y-285300D02*
G01*
X1917500Y-256599D01*
X1874600Y-256599D02*
G01*
X1917500Y-256599D01*
X3050699Y1360199D02*
G01*
X3048599Y1364299D01*
X3044499Y1368400D01*
X3040500Y1370399D01*
X3032299Y1370399D01*
X3028199Y1368400D01*
X3024099Y1364299D01*
X3021999Y1360199D01*
X3020000Y1354000D01*
X3020000Y1343800D01*
X3021999Y1337699D01*
X3024099Y1333600D01*
X3028199Y1329499D01*
X3032299Y1327500D01*
X3040500Y1327500D01*
X3044499Y1329499D01*
X3048599Y1333600D01*
X3050699Y1337699D01*
X3050699Y1343800D01*
X3040500Y1343800D02*
G01*
X3050699Y1343800D01*
X3064200Y1370399D02*
G01*
X3064200Y1327500D01*
X3064200Y1370399D02*
G01*
X3092799Y1327500D01*
X3092799Y1370399D02*
G01*
X3092799Y1327500D01*
X3106300Y1370399D02*
G01*
X3106300Y1327500D01*
X3106300Y1370399D02*
G01*
X3120600Y1370399D01*
X3126800Y1368400D01*
X3130900Y1364299D01*
X3132899Y1360199D01*
X3135000Y1354000D01*
X3135000Y1343800D01*
X3132899Y1337699D01*
X3130900Y1333600D01*
X3126800Y1329499D01*
X3120600Y1327500D01*
X3106300Y1327500D01*
X3050699Y900199D02*
G01*
X3048599Y904299D01*
X3044499Y908400D01*
X3040500Y910399D01*
X3032299Y910399D01*
X3028199Y908400D01*
X3024099Y904299D01*
X3021999Y900199D01*
X3020000Y894000D01*
X3020000Y883800D01*
X3021999Y877699D01*
X3024099Y873600D01*
X3028199Y869499D01*
X3032299Y867500D01*
X3040500Y867500D01*
X3044499Y869499D01*
X3048599Y873600D01*
X3050699Y877699D01*
X3050699Y883800D01*
X3040500Y883800D02*
G01*
X3050699Y883800D01*
X3064200Y910399D02*
G01*
X3064200Y867500D01*
X3064200Y910399D02*
G01*
X3092799Y867500D01*
X3092799Y910399D02*
G01*
X3092799Y867500D01*
X3106300Y910399D02*
G01*
X3106300Y867500D01*
X3106300Y910399D02*
G01*
X3120600Y910399D01*
X3126800Y908400D01*
X3130900Y904299D01*
X3132899Y900199D01*
X3135000Y894000D01*
X3135000Y883800D01*
X3132899Y877699D01*
X3130900Y873600D01*
X3126800Y869499D01*
X3120600Y867500D01*
X3106300Y867500D01*
X3055699Y430199D02*
G01*
X3053599Y434299D01*
X3049499Y438400D01*
X3045500Y440399D01*
X3037299Y440399D01*
X3033199Y438400D01*
X3029099Y434299D01*
X3026999Y430199D01*
X3025000Y424000D01*
X3025000Y413800D01*
X3026999Y407699D01*
X3029099Y403600D01*
X3033199Y399499D01*
X3037299Y397500D01*
X3045500Y397500D01*
X3049499Y399499D01*
X3053599Y403600D01*
X3055699Y407699D01*
X3055699Y413800D01*
X3045500Y413800D02*
G01*
X3055699Y413800D01*
X3069200Y440399D02*
G01*
X3069200Y397500D01*
X3069200Y440399D02*
G01*
X3097799Y397500D01*
X3097799Y440399D02*
G01*
X3097799Y397500D01*
X3111300Y440399D02*
G01*
X3111300Y397500D01*
X3111300Y440399D02*
G01*
X3125600Y440399D01*
X3131800Y438400D01*
X3135900Y434299D01*
X3137899Y430199D01*
X3140000Y424000D01*
X3140000Y413800D01*
X3137899Y407699D01*
X3135900Y403600D01*
X3131800Y399499D01*
X3125600Y397500D01*
X3111300Y397500D01*
X2899799Y-334299D02*
G01*
X2895699Y-336399D01*
X2891599Y-340500D01*
X2889600Y-344499D01*
X2889600Y-352699D01*
X2891599Y-356799D01*
X2895699Y-360900D01*
X2899799Y-363000D01*
X2906000Y-365000D01*
X2916199Y-365000D01*
X2922299Y-363000D01*
X2926400Y-360900D01*
X2930500Y-356799D01*
X2932500Y-352699D01*
X2932500Y-344499D01*
X2930500Y-340500D01*
X2926400Y-336399D01*
X2922299Y-334299D01*
X2916199Y-334299D01*
X2916199Y-344499D02*
G01*
X2916199Y-334299D01*
X2889600Y-320799D02*
G01*
X2932500Y-320799D01*
X2889600Y-320799D02*
G01*
X2932500Y-292199D01*
X2889600Y-292199D02*
G01*
X2932500Y-292199D01*
X2889600Y-278699D02*
G01*
X2932500Y-278699D01*
X2889600Y-278699D02*
G01*
X2889600Y-264400D01*
X2891599Y-258200D01*
X2895699Y-254099D01*
X2899799Y-252100D01*
X2906000Y-250000D01*
X2916199Y-250000D01*
X2922299Y-252100D01*
X2926400Y-254099D01*
X2930500Y-258200D01*
X2932500Y-264400D01*
X2932500Y-278699D01*
X2429799Y-329299D02*
G01*
X2425699Y-331399D01*
X2421599Y-335500D01*
X2419600Y-339499D01*
X2419600Y-347699D01*
X2421599Y-351799D01*
X2425699Y-355900D01*
X2429799Y-358000D01*
X2436000Y-360000D01*
X2446199Y-360000D01*
X2452299Y-358000D01*
X2456400Y-355900D01*
X2460500Y-351799D01*
X2462500Y-347699D01*
X2462500Y-339499D01*
X2460500Y-335500D01*
X2456400Y-331399D01*
X2452299Y-329299D01*
X2446199Y-329299D01*
X2446199Y-339499D02*
G01*
X2446199Y-329299D01*
X2419600Y-315799D02*
G01*
X2462500Y-315799D01*
X2419600Y-315799D02*
G01*
X2462500Y-287199D01*
X2419600Y-287199D02*
G01*
X2462500Y-287199D01*
X2419600Y-273699D02*
G01*
X2462500Y-273699D01*
X2419600Y-273699D02*
G01*
X2419600Y-259400D01*
X2421599Y-253200D01*
X2425699Y-249099D01*
X2429799Y-247100D01*
X2436000Y-245000D01*
X2446199Y-245000D01*
X2452299Y-247100D01*
X2456400Y-249099D01*
X2460500Y-253200D01*
X2462500Y-259400D01*
X2462500Y-273699D01*
X1984799Y-329299D02*
G01*
X1980699Y-331399D01*
X1976599Y-335500D01*
X1974600Y-339499D01*
X1974600Y-347699D01*
X1976599Y-351799D01*
X1980699Y-355900D01*
X1984799Y-358000D01*
X1991000Y-360000D01*
X2001199Y-360000D01*
X2007299Y-358000D01*
X2011400Y-355900D01*
X2015500Y-351799D01*
X2017500Y-347699D01*
X2017500Y-339499D01*
X2015500Y-335500D01*
X2011400Y-331399D01*
X2007299Y-329299D01*
X2001199Y-329299D01*
X2001199Y-339499D02*
G01*
X2001199Y-329299D01*
X1974600Y-315799D02*
G01*
X2017500Y-315799D01*
X1974600Y-315799D02*
G01*
X2017500Y-287199D01*
X1974600Y-287199D02*
G01*
X2017500Y-287199D01*
X1974600Y-273699D02*
G01*
X2017500Y-273699D01*
X1974600Y-273699D02*
G01*
X1974600Y-259400D01*
X1976599Y-253200D01*
X1980699Y-249099D01*
X1984799Y-247100D01*
X1991000Y-245000D01*
X2001199Y-245000D01*
X2007299Y-247100D01*
X2011400Y-249099D01*
X2015500Y-253200D01*
X2017500Y-259400D01*
X2017500Y-273699D01*
X1910000Y910399D02*
G01*
X1926400Y867500D01*
X1942700Y910399D02*
G01*
X1926400Y867500D01*
X1956199Y910399D02*
G01*
X1956199Y867500D01*
X1969700Y910399D02*
G01*
X1969700Y867500D01*
X1969700Y910399D02*
G01*
X1998400Y867500D01*
X1998400Y910399D02*
G01*
X1998400Y867500D01*
X1920000Y365399D02*
G01*
X1936400Y322500D01*
X1952700Y365399D02*
G01*
X1936400Y322500D01*
X1966199Y365399D02*
G01*
X1966199Y322500D01*
X1979700Y365399D02*
G01*
X1979700Y322500D01*
X1979700Y365399D02*
G01*
X2008400Y322500D01*
X2008400Y365399D02*
G01*
X2008400Y322500D01*
X1930699Y805199D02*
G01*
X1928599Y809299D01*
X1924499Y813400D01*
X1920500Y815399D01*
X1912299Y815399D01*
X1908199Y813400D01*
X1904099Y809299D01*
X1901999Y805199D01*
X1900000Y799000D01*
X1900000Y788800D01*
X1901999Y782699D01*
X1904099Y778600D01*
X1908199Y774499D01*
X1912299Y772500D01*
X1920500Y772500D01*
X1924499Y774499D01*
X1928599Y778600D01*
X1930699Y782699D01*
X1930699Y788800D01*
X1920500Y788800D02*
G01*
X1930699Y788800D01*
X1944200Y815399D02*
G01*
X1944200Y772500D01*
X1944200Y815399D02*
G01*
X1972799Y772500D01*
X1972799Y815399D02*
G01*
X1972799Y772500D01*
X1986300Y815399D02*
G01*
X1986300Y772500D01*
X1986300Y815399D02*
G01*
X2000600Y815399D01*
X2006800Y813400D01*
X2010900Y809299D01*
X2012899Y805199D01*
X2015000Y799000D01*
X2015000Y788800D01*
X2012899Y782699D01*
X2010900Y778600D01*
X2006800Y774499D01*
X2000600Y772500D01*
X1986300Y772500D01*
X1945699Y250199D02*
G01*
X1943599Y254299D01*
X1939499Y258400D01*
X1935500Y260399D01*
X1927299Y260399D01*
X1923199Y258400D01*
X1919099Y254299D01*
X1916999Y250199D01*
X1915000Y244000D01*
X1915000Y233800D01*
X1916999Y227699D01*
X1919099Y223600D01*
X1923199Y219499D01*
X1927299Y217500D01*
X1935500Y217500D01*
X1939499Y219499D01*
X1943599Y223600D01*
X1945699Y227699D01*
X1945699Y233800D01*
X1935500Y233800D02*
G01*
X1945699Y233800D01*
X1959200Y260399D02*
G01*
X1959200Y217500D01*
X1959200Y260399D02*
G01*
X1987799Y217500D01*
X1987799Y260399D02*
G01*
X1987799Y217500D01*
X2001300Y260399D02*
G01*
X2001300Y217500D01*
X2001300Y260399D02*
G01*
X2015600Y260399D01*
X2021800Y258400D01*
X2025900Y254299D01*
X2027899Y250199D01*
X2030000Y244000D01*
X2030000Y233800D01*
X2027899Y227699D01*
X2025900Y223600D01*
X2021800Y219499D01*
X2015600Y217500D01*
X2001300Y217500D01*
X1933400Y703200D02*
G01*
X1929300Y707300D01*
X1923100Y709400D01*
X1915000Y709400D01*
X1908800Y707300D01*
X1904700Y703200D01*
X1904700Y699099D01*
X1906800Y695000D01*
X1908800Y693000D01*
X1912899Y690900D01*
X1925200Y686900D01*
X1929300Y684800D01*
X1931300Y682800D01*
X1933400Y678699D01*
X1933400Y672500D01*
X1929300Y668400D01*
X1923100Y666399D01*
X1915000Y666399D01*
X1908800Y668400D01*
X1904700Y672500D01*
X1977600Y699099D02*
G01*
X1975500Y703200D01*
X1971400Y707300D01*
X1967299Y709400D01*
X1959099Y709400D01*
X1955100Y707300D01*
X1951000Y703200D01*
X1948900Y699099D01*
X1946899Y693000D01*
X1946899Y682800D01*
X1948900Y676599D01*
X1951000Y672500D01*
X1955100Y668400D01*
X1959099Y666399D01*
X1967299Y666399D01*
X1971400Y668400D01*
X1975500Y672500D01*
X1977600Y676599D01*
X1991099Y709400D02*
G01*
X1991099Y666399D01*
X1991099Y666399D02*
G01*
X2015600Y666399D01*
X1953400Y153200D02*
G01*
X1949300Y157300D01*
X1943100Y159400D01*
X1935000Y159400D01*
X1928800Y157300D01*
X1924700Y153200D01*
X1924700Y149099D01*
X1926800Y145000D01*
X1928800Y143000D01*
X1932899Y140900D01*
X1945200Y136900D01*
X1949300Y134800D01*
X1951300Y132800D01*
X1953400Y128699D01*
X1953400Y122500D01*
X1949300Y118400D01*
X1943100Y116399D01*
X1935000Y116399D01*
X1928800Y118400D01*
X1924700Y122500D01*
X1997600Y149099D02*
G01*
X1995500Y153200D01*
X1991400Y157300D01*
X1987299Y159400D01*
X1979099Y159400D01*
X1975100Y157300D01*
X1971000Y153200D01*
X1968900Y149099D01*
X1966899Y143000D01*
X1966899Y132800D01*
X1968900Y126599D01*
X1971000Y122500D01*
X1975100Y118400D01*
X1979099Y116399D01*
X1987299Y116399D01*
X1991400Y118400D01*
X1995500Y122500D01*
X1997600Y126599D01*
X2011099Y159400D02*
G01*
X2011099Y116399D01*
X2011099Y116399D02*
G01*
X2035600Y116399D01*
X1928599Y614299D02*
G01*
X1924499Y618400D01*
X1918400Y620399D01*
X1910200Y620399D01*
X1904099Y618400D01*
X1900000Y614299D01*
X1900000Y610199D01*
X1901999Y606100D01*
X1904099Y604000D01*
X1908199Y601999D01*
X1920500Y597899D01*
X1924499Y595900D01*
X1926599Y593800D01*
X1928599Y589699D01*
X1928599Y583600D01*
X1924499Y579499D01*
X1918400Y577500D01*
X1910200Y577500D01*
X1904099Y579499D01*
X1900000Y583600D01*
X1942100Y620399D02*
G01*
X1942100Y577500D01*
X1942100Y620399D02*
G01*
X1956499Y620399D01*
X1962600Y618400D01*
X1966700Y614299D01*
X1968699Y610199D01*
X1970799Y604000D01*
X1970799Y593800D01*
X1968699Y587699D01*
X1966700Y583600D01*
X1962600Y579499D01*
X1956499Y577500D01*
X1942100Y577500D01*
X2000600Y620399D02*
G01*
X1984300Y577500D01*
X2000600Y620399D02*
G01*
X2016999Y577500D01*
X1990399Y591799D02*
G01*
X2010900Y591799D01*
X1953599Y59299D02*
G01*
X1949499Y63400D01*
X1943400Y65399D01*
X1935200Y65399D01*
X1929099Y63400D01*
X1925000Y59299D01*
X1925000Y55199D01*
X1926999Y51100D01*
X1929099Y49000D01*
X1933199Y46999D01*
X1945500Y42899D01*
X1949499Y40900D01*
X1951599Y38800D01*
X1953599Y34699D01*
X1953599Y28600D01*
X1949499Y24499D01*
X1943400Y22500D01*
X1935200Y22500D01*
X1929099Y24499D01*
X1925000Y28600D01*
X1967100Y65399D02*
G01*
X1967100Y22500D01*
X1967100Y65399D02*
G01*
X1981499Y65399D01*
X1987600Y63400D01*
X1991700Y59299D01*
X1993699Y55199D01*
X1995799Y49000D01*
X1995799Y38800D01*
X1993699Y32699D01*
X1991700Y28600D01*
X1987600Y24499D01*
X1981499Y22500D01*
X1967100Y22500D01*
X2025600Y65399D02*
G01*
X2009300Y22500D01*
X2025600Y65399D02*
G01*
X2041999Y22500D01*
X2015399Y36799D02*
G01*
X2035900Y36799D01*
X3020000Y1155399D02*
G01*
X3020000Y1112500D01*
X3020000Y1155399D02*
G01*
X3038400Y1155399D01*
X3044499Y1153400D01*
X3046599Y1151300D01*
X3048599Y1147199D01*
X3048599Y1141100D01*
X3046599Y1136999D01*
X3044499Y1135000D01*
X3038400Y1132899D01*
X3020000Y1132899D01*
X3062100Y1155399D02*
G01*
X3072399Y1112500D01*
X3082600Y1155399D02*
G01*
X3072399Y1112500D01*
X3082600Y1155399D02*
G01*
X3092799Y1112500D01*
X3103000Y1155399D02*
G01*
X3092799Y1112500D01*
X3116499Y1155399D02*
G01*
X3116499Y1112500D01*
X3116499Y1155399D02*
G01*
X3132899Y1112500D01*
X3149300Y1155399D02*
G01*
X3132899Y1112500D01*
X3149300Y1155399D02*
G01*
X3149300Y1112500D01*
X3020000Y710399D02*
G01*
X3020000Y667500D01*
X3020000Y710399D02*
G01*
X3038400Y710399D01*
X3044499Y708400D01*
X3046599Y706300D01*
X3048599Y702199D01*
X3048599Y696100D01*
X3046599Y691999D01*
X3044499Y690000D01*
X3038400Y687899D01*
X3020000Y687899D01*
X3062100Y710399D02*
G01*
X3072399Y667500D01*
X3082600Y710399D02*
G01*
X3072399Y667500D01*
X3082600Y710399D02*
G01*
X3092799Y667500D01*
X3103000Y710399D02*
G01*
X3092799Y667500D01*
X3116499Y710399D02*
G01*
X3116499Y667500D01*
X3116499Y710399D02*
G01*
X3132899Y667500D01*
X3149300Y710399D02*
G01*
X3132899Y667500D01*
X3149300Y710399D02*
G01*
X3149300Y667500D01*
X3015000Y235399D02*
G01*
X3015000Y192500D01*
X3015000Y235399D02*
G01*
X3033400Y235399D01*
X3039499Y233400D01*
X3041599Y231300D01*
X3043599Y227199D01*
X3043599Y221100D01*
X3041599Y216999D01*
X3039499Y215000D01*
X3033400Y212899D01*
X3015000Y212899D01*
X3057100Y235399D02*
G01*
X3067399Y192500D01*
X3077600Y235399D02*
G01*
X3067399Y192500D01*
X3077600Y235399D02*
G01*
X3087799Y192500D01*
X3098000Y235399D02*
G01*
X3087799Y192500D01*
X3111499Y235399D02*
G01*
X3111499Y192500D01*
X3111499Y235399D02*
G01*
X3127899Y192500D01*
X3144300Y235399D02*
G01*
X3127899Y192500D01*
X3144300Y235399D02*
G01*
X3144300Y192500D01*
X2684600Y-375000D02*
G01*
X2727500Y-375000D01*
X2684600Y-375000D02*
G01*
X2684600Y-356599D01*
X2686599Y-350500D01*
X2688699Y-348400D01*
X2692799Y-346399D01*
X2698900Y-346399D01*
X2703000Y-348400D01*
X2705000Y-350500D01*
X2707100Y-356599D01*
X2707100Y-375000D01*
X2684600Y-332899D02*
G01*
X2727500Y-322600D01*
X2684600Y-312399D02*
G01*
X2727500Y-322600D01*
X2684600Y-312399D02*
G01*
X2727500Y-302199D01*
X2684600Y-291999D02*
G01*
X2727500Y-302199D01*
X2684600Y-278499D02*
G01*
X2727500Y-278499D01*
X2684600Y-278499D02*
G01*
X2727500Y-262100D01*
X2684600Y-245700D02*
G01*
X2727500Y-262100D01*
X2684600Y-245700D02*
G01*
X2727500Y-245700D01*
X2215421Y-365000D02*
G01*
X2258321Y-365000D01*
X2215421Y-365000D02*
G01*
X2215421Y-346599D01*
X2217421Y-340500D01*
X2219521Y-338400D01*
X2223621Y-336399D01*
X2229722Y-336399D01*
X2233822Y-338400D01*
X2235821Y-340500D01*
X2237921Y-346599D01*
X2237921Y-365000D01*
X2215421Y-322899D02*
G01*
X2258321Y-312600D01*
X2215421Y-302399D02*
G01*
X2258321Y-312600D01*
X2215421Y-302399D02*
G01*
X2258321Y-292199D01*
X2215421Y-281999D02*
G01*
X2258321Y-292199D01*
X2215421Y-268499D02*
G01*
X2258321Y-268499D01*
X2215421Y-268499D02*
G01*
X2258321Y-252100D01*
X2215421Y-235700D02*
G01*
X2258321Y-252100D01*
X2215421Y-235700D02*
G01*
X2258321Y-235700D01*
X1772088Y-365000D02*
G01*
X1814988Y-365000D01*
X1772088Y-365000D02*
G01*
X1772088Y-346599D01*
X1774088Y-340500D01*
X1776188Y-338400D01*
X1780288Y-336399D01*
X1786387Y-336399D01*
X1790487Y-338400D01*
X1792488Y-340500D01*
X1794588Y-346599D01*
X1794588Y-365000D01*
X1772088Y-322899D02*
G01*
X1814988Y-312600D01*
X1772088Y-302399D02*
G01*
X1814988Y-312600D01*
X1772088Y-302399D02*
G01*
X1814988Y-292199D01*
X1772088Y-281999D02*
G01*
X1814988Y-292199D01*
X1772088Y-268499D02*
G01*
X1814988Y-268499D01*
X1772088Y-268499D02*
G01*
X1814988Y-252100D01*
X1772088Y-235700D02*
G01*
X1814988Y-252100D01*
X1772088Y-235700D02*
G01*
X1814988Y-235700D01*
X355000Y-239600D02*
G01*
X371399Y-282500D01*
X387699Y-239600D02*
G01*
X371399Y-282500D01*
X401199Y-239600D02*
G01*
X401199Y-282500D01*
X414699Y-239600D02*
G01*
X414699Y-282500D01*
X414699Y-239600D02*
G01*
X443400Y-282500D01*
X443400Y-239600D02*
G01*
X443400Y-282500D01*
X2570699Y840199D02*
G01*
X2568599Y844299D01*
X2564499Y848400D01*
X2560500Y850399D01*
X2552299Y850399D01*
X2548199Y848400D01*
X2544099Y844299D01*
X2541999Y840199D01*
X2540000Y834000D01*
X2540000Y823800D01*
X2541999Y817699D01*
X2544099Y813600D01*
X2548199Y809499D01*
X2552299Y807500D01*
X2560500Y807500D01*
X2564499Y809499D01*
X2568599Y813600D01*
X2570699Y817699D01*
X2584200Y842199D02*
G01*
X2588299Y844299D01*
X2594399Y850399D01*
X2594399Y807500D01*
X1740000Y-74600D02*
G01*
X1740000Y-117500D01*
X1740000Y-74600D02*
G01*
X1756400Y-117500D01*
X1772700Y-74600D02*
G01*
X1756400Y-117500D01*
X1772700Y-74600D02*
G01*
X1772700Y-117500D01*
X1798500Y-74600D02*
G01*
X1794399Y-76599D01*
X1790299Y-80700D01*
X1788299Y-84800D01*
X1786199Y-90999D01*
X1786199Y-101199D01*
X1788299Y-107300D01*
X1790299Y-111399D01*
X1794399Y-115500D01*
X1798500Y-117500D01*
X1806700Y-117500D01*
X1810799Y-115500D01*
X1814899Y-111399D01*
X1816899Y-107300D01*
X1818999Y-101199D01*
X1818999Y-90999D01*
X1816899Y-84800D01*
X1814899Y-80700D01*
X1810799Y-76599D01*
X1806700Y-74600D01*
X1798500Y-74600D01*
X1846800Y-74600D02*
G01*
X1846800Y-117500D01*
X1832500Y-74600D02*
G01*
X1861099Y-74600D01*
X1874600Y-74600D02*
G01*
X1874600Y-117500D01*
X1874600Y-74600D02*
G01*
X1901199Y-74600D01*
X1874600Y-95000D02*
G01*
X1891000Y-95000D01*
X1874600Y-117500D02*
G01*
X1901199Y-117500D01*
X1914700Y-74600D02*
G01*
X1914700Y-105300D01*
X1916700Y-111399D01*
X1920799Y-115500D01*
X1926999Y-117500D01*
X1931000Y-117500D01*
X1937200Y-115500D01*
X1941300Y-111399D01*
X1943299Y-105300D01*
X1943299Y-74600D01*
X1956800Y-74600D02*
G01*
X1956800Y-117500D01*
X1956800Y-74600D02*
G01*
X1975200Y-74600D01*
X1981400Y-76599D01*
X1983400Y-78699D01*
X1985500Y-82800D01*
X1985500Y-86900D01*
X1983400Y-90999D01*
X1981400Y-93000D01*
X1975200Y-95000D01*
X1956800Y-95000D01*
X1971099Y-95000D02*
G01*
X1985500Y-117500D01*
X1998999Y-131900D02*
G01*
X2035799Y-131900D01*
X2049300Y-82800D02*
G01*
X2053400Y-80700D01*
X2059499Y-74600D01*
X2059499Y-117500D01*
X2180000Y-74600D02*
G01*
X2180000Y-117500D01*
X2180000Y-74600D02*
G01*
X2196400Y-117500D01*
X2212700Y-74600D02*
G01*
X2196400Y-117500D01*
X2212700Y-74600D02*
G01*
X2212700Y-117500D01*
X2238500Y-74600D02*
G01*
X2234399Y-76599D01*
X2230299Y-80700D01*
X2228299Y-84800D01*
X2226199Y-90999D01*
X2226199Y-101199D01*
X2228299Y-107300D01*
X2230299Y-111399D01*
X2234399Y-115500D01*
X2238500Y-117500D01*
X2246700Y-117500D01*
X2250799Y-115500D01*
X2254899Y-111399D01*
X2256899Y-107300D01*
X2258999Y-101199D01*
X2258999Y-90999D01*
X2256899Y-84800D01*
X2254899Y-80700D01*
X2250799Y-76599D01*
X2246700Y-74600D01*
X2238500Y-74600D01*
X2286800Y-74600D02*
G01*
X2286800Y-117500D01*
X2272500Y-74600D02*
G01*
X2301099Y-74600D01*
X2314600Y-74600D02*
G01*
X2314600Y-117500D01*
X2314600Y-74600D02*
G01*
X2341199Y-74600D01*
X2314600Y-95000D02*
G01*
X2331000Y-95000D01*
X2314600Y-117500D02*
G01*
X2341199Y-117500D01*
X2354700Y-74600D02*
G01*
X2354700Y-105300D01*
X2356700Y-111399D01*
X2360799Y-115500D01*
X2366999Y-117500D01*
X2371000Y-117500D01*
X2377200Y-115500D01*
X2381300Y-111399D01*
X2383299Y-105300D01*
X2383299Y-74600D01*
X2396800Y-74600D02*
G01*
X2396800Y-117500D01*
X2396800Y-74600D02*
G01*
X2415200Y-74600D01*
X2421400Y-76599D01*
X2423400Y-78699D01*
X2425500Y-82800D01*
X2425500Y-86900D01*
X2423400Y-90999D01*
X2421400Y-93000D01*
X2415200Y-95000D01*
X2396800Y-95000D01*
X2411099Y-95000D02*
G01*
X2425500Y-117500D01*
X2438999Y-131900D02*
G01*
X2475799Y-131900D01*
X2491300Y-84800D02*
G01*
X2491300Y-82800D01*
X2493400Y-78699D01*
X2495399Y-76599D01*
X2499499Y-74600D01*
X2507700Y-74600D01*
X2511800Y-76599D01*
X2513800Y-78699D01*
X2515900Y-82800D01*
X2515900Y-86900D01*
X2513800Y-90999D01*
X2509700Y-97100D01*
X2489300Y-117500D01*
X2517899Y-117500D01*
X2733599Y-85700D02*
G01*
X2729499Y-81599D01*
X2723400Y-79600D01*
X2715200Y-79600D01*
X2709099Y-81599D01*
X2705000Y-85700D01*
X2705000Y-89800D01*
X2706999Y-93899D01*
X2709099Y-95999D01*
X2713199Y-98000D01*
X2725500Y-102100D01*
X2729499Y-104099D01*
X2731599Y-106199D01*
X2733599Y-110300D01*
X2733599Y-116399D01*
X2729499Y-120500D01*
X2723400Y-122500D01*
X2715200Y-122500D01*
X2709099Y-120500D01*
X2705000Y-116399D01*
X2747100Y-79600D02*
G01*
X2747100Y-122500D01*
X2747100Y-79600D02*
G01*
X2765500Y-79600D01*
X2771700Y-81599D01*
X2773699Y-83699D01*
X2775799Y-87800D01*
X2775799Y-93899D01*
X2773699Y-98000D01*
X2771700Y-100000D01*
X2765500Y-102100D01*
X2747100Y-102100D01*
X2805600Y-79600D02*
G01*
X2789300Y-122500D01*
X2805600Y-79600D02*
G01*
X2821999Y-122500D01*
X2795399Y-108200D02*
G01*
X2815900Y-108200D01*
X2835500Y-79600D02*
G01*
X2835500Y-122500D01*
X2835500Y-79600D02*
G01*
X2853900Y-79600D01*
X2860000Y-81599D01*
X2862100Y-83699D01*
X2864099Y-87800D01*
X2864099Y-91900D01*
X2862100Y-95999D01*
X2860000Y-98000D01*
X2853900Y-100000D01*
X2835500Y-100000D01*
X2849799Y-100000D02*
G01*
X2864099Y-122500D01*
X2877600Y-79600D02*
G01*
X2877600Y-122500D01*
X2877600Y-79600D02*
G01*
X2904200Y-79600D01*
X2877600Y-100000D02*
G01*
X2893999Y-100000D01*
X2877600Y-122500D02*
G01*
X2904200Y-122500D01*
X2917700Y-87800D02*
G01*
X2921800Y-85700D01*
X2928000Y-79600D01*
X2928000Y-122500D01*
X2835699Y228600D02*
G01*
X2831599Y224499D01*
X2829600Y218400D01*
X2829600Y210199D01*
X2831599Y204099D01*
X2835699Y200000D01*
X2839799Y200000D01*
X2843900Y201999D01*
X2846000Y204099D01*
X2848000Y208200D01*
X2852100Y220500D01*
X2854099Y224499D01*
X2856199Y226599D01*
X2860299Y228600D01*
X2866400Y228600D01*
X2870500Y224499D01*
X2872500Y218400D01*
X2872500Y210199D01*
X2870500Y204099D01*
X2866400Y200000D01*
X2829600Y242100D02*
G01*
X2872500Y242100D01*
X2829600Y242100D02*
G01*
X2829600Y260500D01*
X2831599Y266700D01*
X2833699Y268699D01*
X2837799Y270799D01*
X2843900Y270799D01*
X2848000Y268699D01*
X2850000Y266700D01*
X2852100Y260500D01*
X2852100Y242100D01*
X2829600Y300599D02*
G01*
X2872500Y284299D01*
X2829600Y300599D02*
G01*
X2872500Y316999D01*
X2858199Y290399D02*
G01*
X2858199Y310900D01*
X2829600Y330500D02*
G01*
X2872500Y330500D01*
X2829600Y330500D02*
G01*
X2829600Y348899D01*
X2831599Y355000D01*
X2833699Y357100D01*
X2837799Y359099D01*
X2841899Y359099D01*
X2846000Y357100D01*
X2848000Y355000D01*
X2850000Y348899D01*
X2850000Y330500D01*
X2850000Y344800D02*
G01*
X2872500Y359099D01*
X2829600Y372600D02*
G01*
X2872500Y372600D01*
X2829600Y372600D02*
G01*
X2829600Y399200D01*
X2850000Y372600D02*
G01*
X2850000Y389000D01*
X2872500Y372600D02*
G01*
X2872500Y399200D01*
X2839799Y414800D02*
G01*
X2837799Y414800D01*
X2833699Y416799D01*
X2831599Y418899D01*
X2829600Y423000D01*
X2829600Y431100D01*
X2831599Y435199D01*
X2833699Y437300D01*
X2837799Y439299D01*
X2841899Y439299D01*
X2846000Y437300D01*
X2852100Y433200D01*
X2872500Y412699D01*
X2872500Y441399D01*
X2835699Y703600D02*
G01*
X2831599Y699499D01*
X2829600Y693400D01*
X2829600Y685199D01*
X2831599Y679099D01*
X2835699Y675000D01*
X2839799Y675000D01*
X2843900Y676999D01*
X2846000Y679099D01*
X2848000Y683200D01*
X2852100Y695500D01*
X2854099Y699499D01*
X2856199Y701599D01*
X2860299Y703600D01*
X2866400Y703600D01*
X2870500Y699499D01*
X2872500Y693400D01*
X2872500Y685199D01*
X2870500Y679099D01*
X2866400Y675000D01*
X2829600Y717100D02*
G01*
X2872500Y717100D01*
X2829600Y717100D02*
G01*
X2829600Y735500D01*
X2831599Y741700D01*
X2833699Y743699D01*
X2837799Y745799D01*
X2843900Y745799D01*
X2848000Y743699D01*
X2850000Y741700D01*
X2852100Y735500D01*
X2852100Y717100D01*
X2829600Y775599D02*
G01*
X2872500Y759299D01*
X2829600Y775599D02*
G01*
X2872500Y791999D01*
X2858199Y765399D02*
G01*
X2858199Y785900D01*
X2829600Y805500D02*
G01*
X2872500Y805500D01*
X2829600Y805500D02*
G01*
X2829600Y823899D01*
X2831599Y830000D01*
X2833699Y832100D01*
X2837799Y834099D01*
X2841899Y834099D01*
X2846000Y832100D01*
X2848000Y830000D01*
X2850000Y823899D01*
X2850000Y805500D01*
X2850000Y819800D02*
G01*
X2872500Y834099D01*
X2829600Y847600D02*
G01*
X2872500Y847600D01*
X2829600Y847600D02*
G01*
X2829600Y874200D01*
X2850000Y847600D02*
G01*
X2850000Y864000D01*
X2872500Y847600D02*
G01*
X2872500Y874200D01*
X2829600Y891799D02*
G01*
X2829600Y914299D01*
X2846000Y901999D01*
X2846000Y908200D01*
X2848000Y912300D01*
X2850000Y914299D01*
X2856199Y916399D01*
X2860299Y916399D01*
X2866400Y914299D01*
X2870500Y910199D01*
X2872500Y904099D01*
X2872500Y898000D01*
X2870500Y891799D01*
X2868500Y889800D01*
X2864399Y887699D01*
X2835699Y1153600D02*
G01*
X2831599Y1149499D01*
X2829600Y1143400D01*
X2829600Y1135199D01*
X2831599Y1129099D01*
X2835699Y1125000D01*
X2839799Y1125000D01*
X2843900Y1126999D01*
X2846000Y1129099D01*
X2848000Y1133200D01*
X2852100Y1145500D01*
X2854099Y1149499D01*
X2856199Y1151599D01*
X2860299Y1153600D01*
X2866400Y1153600D01*
X2870500Y1149499D01*
X2872500Y1143400D01*
X2872500Y1135199D01*
X2870500Y1129099D01*
X2866400Y1125000D01*
X2829600Y1167100D02*
G01*
X2872500Y1167100D01*
X2829600Y1167100D02*
G01*
X2829600Y1185500D01*
X2831599Y1191700D01*
X2833699Y1193699D01*
X2837799Y1195799D01*
X2843900Y1195799D01*
X2848000Y1193699D01*
X2850000Y1191700D01*
X2852100Y1185500D01*
X2852100Y1167100D01*
X2829600Y1225599D02*
G01*
X2872500Y1209299D01*
X2829600Y1225599D02*
G01*
X2872500Y1241999D01*
X2858199Y1215399D02*
G01*
X2858199Y1235900D01*
X2829600Y1255500D02*
G01*
X2872500Y1255500D01*
X2829600Y1255500D02*
G01*
X2829600Y1273899D01*
X2831599Y1280000D01*
X2833699Y1282100D01*
X2837799Y1284099D01*
X2841899Y1284099D01*
X2846000Y1282100D01*
X2848000Y1280000D01*
X2850000Y1273899D01*
X2850000Y1255500D01*
X2850000Y1269800D02*
G01*
X2872500Y1284099D01*
X2829600Y1297600D02*
G01*
X2872500Y1297600D01*
X2829600Y1297600D02*
G01*
X2829600Y1324200D01*
X2850000Y1297600D02*
G01*
X2850000Y1314000D01*
X2872500Y1297600D02*
G01*
X2872500Y1324200D01*
X2829600Y1358200D02*
G01*
X2858199Y1337699D01*
X2858199Y1368400D01*
X2829600Y1358200D02*
G01*
X2872500Y1358200D01*
X2325000Y1095399D02*
G01*
X2325000Y1052500D01*
X2325000Y1095399D02*
G01*
X2343400Y1095399D01*
X2349499Y1093400D01*
X2351599Y1091300D01*
X2353599Y1087199D01*
X2353599Y1083099D01*
X2351599Y1079000D01*
X2349499Y1076999D01*
X2343400Y1075000D01*
X2325000Y1075000D01*
X2339300Y1075000D02*
G01*
X2353599Y1052500D01*
X2367100Y1087199D02*
G01*
X2371199Y1089299D01*
X2377399Y1095399D01*
X2377399Y1052500D01*
X2325000Y1245399D02*
G01*
X2325000Y1202500D01*
X2325000Y1245399D02*
G01*
X2343400Y1245399D01*
X2349499Y1243400D01*
X2351599Y1241300D01*
X2353599Y1237199D01*
X2353599Y1233099D01*
X2351599Y1229000D01*
X2349499Y1226999D01*
X2343400Y1225000D01*
X2325000Y1225000D01*
X2339300Y1225000D02*
G01*
X2353599Y1202500D01*
X2369200Y1235199D02*
G01*
X2369200Y1237199D01*
X2371199Y1241300D01*
X2373299Y1243400D01*
X2377399Y1245399D01*
X2385500Y1245399D01*
X2389600Y1243400D01*
X2391700Y1241300D01*
X2393699Y1237199D01*
X2393699Y1233099D01*
X2391700Y1229000D01*
X2387600Y1222899D01*
X2367100Y1202500D01*
X2395799Y1202500D01*
X2325000Y1400399D02*
G01*
X2325000Y1357500D01*
X2325000Y1400399D02*
G01*
X2343400Y1400399D01*
X2349499Y1398400D01*
X2351599Y1396300D01*
X2353599Y1392199D01*
X2353599Y1388099D01*
X2351599Y1384000D01*
X2349499Y1381999D01*
X2343400Y1380000D01*
X2325000Y1380000D01*
X2339300Y1380000D02*
G01*
X2353599Y1357500D01*
X2371199Y1400399D02*
G01*
X2393699Y1400399D01*
X2381499Y1384000D01*
X2387600Y1384000D01*
X2391700Y1381999D01*
X2393699Y1380000D01*
X2395799Y1373800D01*
X2395799Y1369699D01*
X2393699Y1363600D01*
X2389600Y1359499D01*
X2383500Y1357500D01*
X2377399Y1357500D01*
X2371199Y1359499D01*
X2369200Y1361500D01*
X2367100Y1365599D01*
X2140397Y1280000D02*
G01*
X2109697Y1280000D01*
X2103598Y1278000D01*
X2099498Y1273899D01*
X2097497Y1267699D01*
X2097497Y1263600D01*
X2099498Y1257500D01*
X2103598Y1253400D01*
X2109697Y1251399D01*
X2140397Y1251399D01*
X2130198Y1235799D02*
G01*
X2132197Y1235799D01*
X2136297Y1233800D01*
X2138397Y1231700D01*
X2140397Y1227600D01*
X2140397Y1219499D01*
X2138397Y1215399D01*
X2136297Y1213299D01*
X2132197Y1211300D01*
X2128098Y1211300D01*
X2123998Y1213299D01*
X2117897Y1217399D01*
X2097497Y1237899D01*
X2097497Y1209200D01*
X2004594Y455000D02*
G01*
X2035294Y455000D01*
X2041395Y456999D01*
X2045495Y461100D01*
X2047494Y467300D01*
X2047494Y471399D01*
X2045495Y477500D01*
X2041395Y481599D01*
X2035294Y483600D01*
X2004594Y483600D01*
X2004594Y501199D02*
G01*
X2004594Y523699D01*
X2020995Y511500D01*
X2020995Y517600D01*
X2022995Y521700D01*
X2024994Y523699D01*
X2031194Y525799D01*
X2035294Y525799D01*
X2041395Y523699D01*
X2045495Y519600D01*
X2047494Y513499D01*
X2047494Y507399D01*
X2045495Y501199D01*
X2043495Y499200D01*
X2039395Y497100D01*
X465199Y234299D02*
G01*
X469299Y236399D01*
X473400Y240500D01*
X475399Y244499D01*
X475399Y252699D01*
X473400Y256799D01*
X469299Y260900D01*
X465199Y263000D01*
X459000Y265000D01*
X448800Y265000D01*
X442699Y263000D01*
X438600Y260900D01*
X434499Y256799D01*
X432500Y252699D01*
X432500Y244499D01*
X434499Y240500D01*
X438600Y236399D01*
X442699Y234299D01*
X465199Y218800D02*
G01*
X467199Y218800D01*
X471300Y216700D01*
X473400Y214699D01*
X475399Y210599D01*
X475399Y202399D01*
X473400Y198299D01*
X471300Y196300D01*
X467199Y194200D01*
X463099Y194200D01*
X459000Y196300D01*
X452899Y200399D01*
X432500Y220799D01*
X432500Y192199D01*
X1709600Y660000D02*
G01*
X1752500Y660000D01*
X1719799Y675500D02*
G01*
X1717799Y675500D01*
X1713699Y677600D01*
X1711599Y679600D01*
X1709600Y683699D01*
X1709600Y691900D01*
X1711599Y695999D01*
X1713699Y698000D01*
X1717799Y700100D01*
X1721899Y700100D01*
X1726000Y698000D01*
X1732100Y694000D01*
X1752500Y673499D01*
X1752500Y702100D01*
X1719799Y746300D02*
G01*
X1715699Y744299D01*
X1711599Y740199D01*
X1709600Y736100D01*
X1709600Y727899D01*
X1711599Y723800D01*
X1715699Y719699D01*
X1719799Y717699D01*
X1726000Y715599D01*
X1736199Y715599D01*
X1742299Y717699D01*
X1746400Y719699D01*
X1750500Y723800D01*
X1752500Y727899D01*
X1752500Y736100D01*
X1750500Y740199D01*
X1746400Y744299D01*
X1742299Y746300D01*
X1766899Y759800D02*
G01*
X1766899Y796599D01*
X1717799Y810100D02*
G01*
X1715699Y814200D01*
X1709600Y820399D01*
X1752500Y820399D01*
X1719600Y90000D02*
G01*
X1762500Y90000D01*
X1729799Y105500D02*
G01*
X1727799Y105500D01*
X1723699Y107600D01*
X1721599Y109600D01*
X1719600Y113699D01*
X1719600Y121900D01*
X1721599Y125999D01*
X1723699Y128000D01*
X1727799Y130100D01*
X1731899Y130100D01*
X1736000Y128000D01*
X1742100Y124000D01*
X1762500Y103499D01*
X1762500Y132100D01*
X1729799Y176300D02*
G01*
X1725699Y174299D01*
X1721599Y170199D01*
X1719600Y166100D01*
X1719600Y157899D01*
X1721599Y153800D01*
X1725699Y149699D01*
X1729799Y147699D01*
X1736000Y145599D01*
X1746199Y145599D01*
X1752299Y147699D01*
X1756400Y149699D01*
X1760500Y153800D01*
X1762500Y157899D01*
X1762500Y166100D01*
X1760500Y170199D01*
X1756400Y174299D01*
X1752299Y176300D01*
X1776899Y189800D02*
G01*
X1776899Y226599D01*
X1729799Y242199D02*
G01*
X1727799Y242199D01*
X1723699Y244200D01*
X1721599Y246300D01*
X1719600Y250399D01*
X1719600Y258499D01*
X1721599Y262600D01*
X1723699Y264699D01*
X1727799Y266700D01*
X1731899Y266700D01*
X1736000Y264699D01*
X1742100Y260599D01*
X1762500Y240100D01*
X1762500Y268800D01*
X365700Y1825199D02*
G01*
X363600Y1829299D01*
X359499Y1833400D01*
X355500Y1835399D01*
X347300Y1835399D01*
X343200Y1833400D01*
X339099Y1829299D01*
X336999Y1825199D01*
X335000Y1819000D01*
X335000Y1808800D01*
X336999Y1802699D01*
X339099Y1798600D01*
X343200Y1794499D01*
X347300Y1792500D01*
X355500Y1792500D01*
X359499Y1794499D01*
X363600Y1798600D01*
X365700Y1802699D01*
X383299Y1835399D02*
G01*
X405799Y1835399D01*
X393499Y1819000D01*
X399600Y1819000D01*
X403699Y1816999D01*
X405799Y1815000D01*
X407800Y1808800D01*
X407800Y1804699D01*
X405799Y1798600D01*
X401700Y1794499D01*
X395500Y1792500D01*
X389400Y1792500D01*
X383299Y1794499D01*
X381199Y1796500D01*
X379200Y1800599D01*
X2510000Y1105399D02*
G01*
X2510000Y1062500D01*
X2510000Y1062500D02*
G01*
X2534499Y1062500D01*
X2548000Y1105399D02*
G01*
X2548000Y1062500D01*
X2548000Y1105399D02*
G01*
X2574600Y1105399D01*
X2548000Y1085000D02*
G01*
X2564399Y1085000D01*
X2548000Y1062500D02*
G01*
X2574600Y1062500D01*
X2588100Y1105399D02*
G01*
X2588100Y1062500D01*
X2588100Y1105399D02*
G01*
X2602500Y1105399D01*
X2608599Y1103400D01*
X2612700Y1099299D01*
X2614700Y1095199D01*
X2616800Y1089000D01*
X2616800Y1078800D01*
X2614700Y1072699D01*
X2612700Y1068600D01*
X2608599Y1064499D01*
X2602500Y1062500D01*
X2588100Y1062500D01*
X2630299Y1097199D02*
G01*
X2634399Y1099299D01*
X2640500Y1105399D01*
X2640500Y1062500D01*
X2515000Y1270399D02*
G01*
X2515000Y1227500D01*
X2515000Y1227500D02*
G01*
X2539499Y1227500D01*
X2553000Y1270399D02*
G01*
X2553000Y1227500D01*
X2553000Y1270399D02*
G01*
X2579600Y1270399D01*
X2553000Y1250000D02*
G01*
X2569399Y1250000D01*
X2553000Y1227500D02*
G01*
X2579600Y1227500D01*
X2593100Y1270399D02*
G01*
X2593100Y1227500D01*
X2593100Y1270399D02*
G01*
X2607500Y1270399D01*
X2613599Y1268400D01*
X2617700Y1264299D01*
X2619700Y1260199D01*
X2621800Y1254000D01*
X2621800Y1243800D01*
X2619700Y1237699D01*
X2617700Y1233600D01*
X2613599Y1229499D01*
X2607500Y1227500D01*
X2593100Y1227500D01*
X2637299Y1260199D02*
G01*
X2637299Y1262199D01*
X2639399Y1266300D01*
X2641400Y1268400D01*
X2645500Y1270399D01*
X2653699Y1270399D01*
X2657799Y1268400D01*
X2659799Y1266300D01*
X2661899Y1262199D01*
X2661899Y1258099D01*
X2659799Y1254000D01*
X2655699Y1247899D01*
X2635299Y1227500D01*
X2663900Y1227500D01*
X2500000Y1410399D02*
G01*
X2500000Y1367500D01*
X2500000Y1367500D02*
G01*
X2524499Y1367500D01*
X2538000Y1410399D02*
G01*
X2538000Y1367500D01*
X2538000Y1410399D02*
G01*
X2564600Y1410399D01*
X2538000Y1390000D02*
G01*
X2554399Y1390000D01*
X2538000Y1367500D02*
G01*
X2564600Y1367500D01*
X2578100Y1410399D02*
G01*
X2578100Y1367500D01*
X2578100Y1410399D02*
G01*
X2592500Y1410399D01*
X2598599Y1408400D01*
X2602700Y1404299D01*
X2604700Y1400199D01*
X2606800Y1394000D01*
X2606800Y1383800D01*
X2604700Y1377699D01*
X2602700Y1373600D01*
X2598599Y1369499D01*
X2592500Y1367500D01*
X2578100Y1367500D01*
X2624399Y1410399D02*
G01*
X2646899Y1410399D01*
X2634600Y1394000D01*
X2640699Y1394000D01*
X2644799Y1391999D01*
X2646899Y1390000D01*
X2648900Y1383800D01*
X2648900Y1379699D01*
X2646899Y1373600D01*
X2642799Y1369499D01*
X2636599Y1367500D01*
X2630500Y1367500D01*
X2624399Y1369499D01*
X2622299Y1371500D01*
X2620299Y1375599D01*
X2990000Y1494600D02*
G01*
X2990000Y1537500D01*
X2990000Y1494600D02*
G01*
X2973599Y1537500D01*
X2957299Y1494600D02*
G01*
X2973599Y1537500D01*
X2957299Y1494600D02*
G01*
X2957299Y1537500D01*
X2931499Y1494600D02*
G01*
X2935600Y1496599D01*
X2939700Y1500700D01*
X2941700Y1504800D01*
X2943800Y1510999D01*
X2943800Y1521199D01*
X2941700Y1527300D01*
X2939700Y1531399D01*
X2935600Y1535500D01*
X2931499Y1537500D01*
X2923299Y1537500D01*
X2919200Y1535500D01*
X2915100Y1531399D01*
X2913100Y1527300D01*
X2911000Y1521199D01*
X2911000Y1510999D01*
X2913100Y1504800D01*
X2915100Y1500700D01*
X2919200Y1496599D01*
X2923299Y1494600D01*
X2931499Y1494600D01*
X2897500Y1494600D02*
G01*
X2897500Y1537500D01*
X2897500Y1494600D02*
G01*
X2883199Y1494600D01*
X2877100Y1496599D01*
X2873000Y1500700D01*
X2871000Y1504800D01*
X2868900Y1510999D01*
X2868900Y1521199D01*
X2871000Y1527300D01*
X2873000Y1531399D01*
X2877100Y1535500D01*
X2883199Y1537500D01*
X2897500Y1537500D01*
X2855399Y1494600D02*
G01*
X2855399Y1525300D01*
X2853400Y1531399D01*
X2849300Y1535500D01*
X2843100Y1537500D01*
X2838999Y1537500D01*
X2832899Y1535500D01*
X2828800Y1531399D01*
X2826800Y1525300D01*
X2826800Y1494600D01*
X2813299Y1494600D02*
G01*
X2813299Y1537500D01*
X2813299Y1537500D02*
G01*
X2788699Y1537500D01*
X2775200Y1494600D02*
G01*
X2775200Y1537500D01*
X2775200Y1494600D02*
G01*
X2748599Y1494600D01*
X2775200Y1515000D02*
G01*
X2758900Y1515000D01*
X2775200Y1537500D02*
G01*
X2748599Y1537500D01*
X2735100Y1551900D02*
G01*
X2698299Y1551900D01*
X2656199Y1500700D02*
G01*
X2660299Y1496599D01*
X2666400Y1494600D01*
X2674600Y1494600D01*
X2680699Y1496599D01*
X2684799Y1500700D01*
X2684799Y1504800D01*
X2682799Y1508899D01*
X2680699Y1510999D01*
X2676599Y1513000D01*
X2664399Y1517100D01*
X2660299Y1519099D01*
X2658199Y1521199D01*
X2656199Y1525300D01*
X2656199Y1531399D01*
X2660299Y1535500D01*
X2666400Y1537500D01*
X2674600Y1537500D01*
X2680699Y1535500D01*
X2684799Y1531399D01*
X2642700Y1494600D02*
G01*
X2642700Y1537500D01*
X2642700Y1494600D02*
G01*
X2628400Y1494600D01*
X2622200Y1496599D01*
X2618100Y1500700D01*
X2616099Y1504800D01*
X2613999Y1510999D01*
X2613999Y1521199D01*
X2616099Y1527300D01*
X2618100Y1531399D01*
X2622200Y1535500D01*
X2628400Y1537500D01*
X2642700Y1537500D01*
X360700Y45199D02*
G01*
X358600Y49299D01*
X354499Y53400D01*
X350500Y55399D01*
X342300Y55399D01*
X338200Y53400D01*
X334099Y49299D01*
X331999Y45199D01*
X330000Y39000D01*
X330000Y28800D01*
X331999Y22699D01*
X334099Y18600D01*
X338200Y14499D01*
X342300Y12500D01*
X350500Y12500D01*
X354499Y14499D01*
X358600Y18600D01*
X360700Y22699D01*
X360700Y28800D01*
X350500Y28800D02*
G01*
X360700Y28800D01*
X374200Y55399D02*
G01*
X374200Y12500D01*
X374200Y55399D02*
G01*
X402800Y12500D01*
X402800Y55399D02*
G01*
X402800Y12500D01*
X416300Y55399D02*
G01*
X416300Y12500D01*
X416300Y55399D02*
G01*
X430599Y55399D01*
X436799Y53400D01*
X440900Y49299D01*
X442899Y45199D01*
X445000Y39000D01*
X445000Y28800D01*
X442899Y22699D01*
X440900Y18600D01*
X436799Y14499D01*
X430599Y12500D01*
X416300Y12500D01*
X1915699Y2060199D02*
G01*
X1913599Y2064299D01*
X1909499Y2068400D01*
X1905500Y2070399D01*
X1897299Y2070399D01*
X1893199Y2068400D01*
X1889099Y2064299D01*
X1886999Y2060199D01*
X1885000Y2054000D01*
X1885000Y2043800D01*
X1886999Y2037699D01*
X1889099Y2033600D01*
X1893199Y2029499D01*
X1897299Y2027500D01*
X1905500Y2027500D01*
X1909499Y2029499D01*
X1913599Y2033600D01*
X1915699Y2037699D01*
X1945500Y2070399D02*
G01*
X1929200Y2027500D01*
X1945500Y2070399D02*
G01*
X1961899Y2027500D01*
X1935299Y2041799D02*
G01*
X1955799Y2041799D01*
X1975399Y2070399D02*
G01*
X1975399Y2027500D01*
X1975399Y2070399D02*
G01*
X2003999Y2027500D01*
X2003999Y2070399D02*
G01*
X2003999Y2027500D01*
X910000Y2085399D02*
G01*
X910000Y2042500D01*
X910000Y2085399D02*
G01*
X936599Y2085399D01*
X910000Y2065000D02*
G01*
X926400Y2065000D01*
X950100Y2085399D02*
G01*
X950100Y2042500D01*
X950100Y2085399D02*
G01*
X968500Y2085399D01*
X974600Y2083400D01*
X976700Y2081300D01*
X978699Y2077199D01*
X978699Y2073099D01*
X976700Y2069000D01*
X974600Y2066999D01*
X968500Y2065000D01*
X950100Y2065000D01*
X964399Y2065000D02*
G01*
X978699Y2042500D01*
X992200Y2085399D02*
G01*
X992200Y2042500D01*
X992200Y2085399D02*
G01*
X1018800Y2085399D01*
X992200Y2065000D02*
G01*
X1008599Y2065000D01*
X992200Y2042500D02*
G01*
X1018800Y2042500D01*
X1032299Y2085399D02*
G01*
X1032299Y2042500D01*
X1032299Y2085399D02*
G01*
X1058900Y2085399D01*
X1032299Y2065000D02*
G01*
X1048699Y2065000D01*
X1032299Y2042500D02*
G01*
X1058900Y2042500D01*
X1072399Y2085399D02*
G01*
X1072399Y2042500D01*
X1072399Y2085399D02*
G01*
X1101000Y2042500D01*
X1101000Y2085399D02*
G01*
X1101000Y2042500D01*
X1126800Y2085399D02*
G01*
X1122700Y2083400D01*
X1118599Y2079299D01*
X1116599Y2075199D01*
X1114499Y2069000D01*
X1114499Y2058800D01*
X1116599Y2052699D01*
X1118599Y2048600D01*
X1122700Y2044499D01*
X1126800Y2042500D01*
X1135000Y2042500D01*
X1139099Y2044499D01*
X1143199Y2048600D01*
X1145200Y2052699D01*
X1147299Y2058800D01*
X1147299Y2069000D01*
X1145200Y2075199D01*
X1143199Y2079299D01*
X1139099Y2083400D01*
X1135000Y2085399D01*
X1126800Y2085399D01*
X1160799Y2085399D02*
G01*
X1177100Y2042500D01*
X1193500Y2085399D02*
G01*
X1177100Y2042500D01*
X1206999Y2085399D02*
G01*
X1206999Y2042500D01*
X1206999Y2085399D02*
G01*
X1233599Y2085399D01*
X1206999Y2065000D02*
G01*
X1223400Y2065000D01*
X1206999Y2042500D02*
G01*
X1233599Y2042500D01*
D11*
X634099Y232300D02*
G01*
X631399Y235000D01*
X627300Y236399D01*
X621799Y236399D01*
X617699Y235000D01*
X615000Y232300D01*
X615000Y229499D01*
X616399Y226799D01*
X617699Y225500D01*
X620500Y224099D01*
X628600Y221399D01*
X631399Y220000D01*
X632699Y218600D01*
X634099Y215900D01*
X634099Y211799D01*
X631399Y209099D01*
X627300Y207699D01*
X621799Y207699D01*
X617699Y209099D01*
X615000Y211799D01*
X643099Y236399D02*
G01*
X643099Y207699D01*
X643099Y236399D02*
G01*
X652600Y236399D01*
X656700Y235000D01*
X659499Y232300D01*
X660799Y229499D01*
X662199Y225500D01*
X662199Y218600D01*
X660799Y214499D01*
X659499Y211799D01*
X656700Y209099D01*
X652600Y207699D01*
X643099Y207699D01*
X672500Y229499D02*
G01*
X672500Y230900D01*
X673899Y233600D01*
X675300Y235000D01*
X678000Y236399D01*
X683499Y236399D01*
X686199Y235000D01*
X687500Y233600D01*
X688899Y230900D01*
X688899Y228200D01*
X687500Y225500D01*
X684800Y221399D01*
X671199Y207699D01*
X690300Y207699D01*
X1015000Y-158499D02*
G01*
X1015000Y-185399D01*
X1016800Y-190700D01*
X1020399Y-194299D01*
X1025699Y-196100D01*
X1029300Y-196100D01*
X1034700Y-194299D01*
X1038299Y-190700D01*
X1040100Y-185399D01*
X1040100Y-158499D01*
X1076899Y-163800D02*
G01*
X1073299Y-160300D01*
X1068000Y-158499D01*
X1060799Y-158499D01*
X1055399Y-160300D01*
X1051899Y-163800D01*
X1051899Y-167500D01*
X1053699Y-171100D01*
X1055399Y-172800D01*
X1058999Y-174699D01*
X1069799Y-178200D01*
X1073299Y-180000D01*
X1075100Y-181799D01*
X1076899Y-185399D01*
X1076899Y-190700D01*
X1073299Y-194299D01*
X1068000Y-196100D01*
X1060799Y-196100D01*
X1055399Y-194299D01*
X1051899Y-190700D01*
X1088699Y-158499D02*
G01*
X1088699Y-196100D01*
X1088699Y-158499D02*
G01*
X1104799Y-158499D01*
X1110200Y-160300D01*
X1111999Y-162199D01*
X1113800Y-165700D01*
X1113800Y-169299D01*
X1111999Y-172800D01*
X1110200Y-174699D01*
X1104799Y-176300D01*
X1088699Y-176300D02*
G01*
X1104799Y-176300D01*
X1110200Y-178200D01*
X1111999Y-180000D01*
X1113800Y-183600D01*
X1113800Y-188800D01*
X1111999Y-192500D01*
X1110200Y-194299D01*
X1104799Y-196100D01*
X1088699Y-196100D01*
X965000Y-101100D02*
G01*
X965000Y-126100D01*
X965000Y-108299D02*
G01*
X970399Y-102800D01*
X973900Y-101100D01*
X979300Y-101100D01*
X982899Y-102800D01*
X984700Y-108299D01*
X984700Y-126100D01*
X984700Y-108299D02*
G01*
X990100Y-102800D01*
X993599Y-101100D01*
X998999Y-101100D01*
X1002600Y-102800D01*
X1004399Y-108299D01*
X1004399Y-126100D01*
X1016199Y-88499D02*
G01*
X1018000Y-90300D01*
X1019799Y-88499D01*
X1018000Y-86799D01*
X1016199Y-88499D01*
X1018000Y-101100D02*
G01*
X1018000Y-126100D01*
X1053000Y-106399D02*
G01*
X1049499Y-102800D01*
X1045900Y-101100D01*
X1040500Y-101100D01*
X1036899Y-102800D01*
X1033400Y-106399D01*
X1031599Y-111799D01*
X1031599Y-115500D01*
X1033400Y-120799D01*
X1036899Y-124299D01*
X1040500Y-126100D01*
X1045900Y-126100D01*
X1049499Y-124299D01*
X1053000Y-120799D01*
X1064899Y-101100D02*
G01*
X1064899Y-126100D01*
X1064899Y-111799D02*
G01*
X1066599Y-106399D01*
X1070200Y-102800D01*
X1073800Y-101100D01*
X1079200Y-101100D01*
X1099899Y-101100D02*
G01*
X1096400Y-102800D01*
X1092799Y-106399D01*
X1091000Y-111799D01*
X1091000Y-115500D01*
X1092799Y-120799D01*
X1096400Y-124299D01*
X1099899Y-126100D01*
X1105299Y-126100D01*
X1108900Y-124299D01*
X1112500Y-120799D01*
X1114200Y-115500D01*
X1114200Y-111799D01*
X1112500Y-106399D01*
X1108900Y-102800D01*
X1105299Y-101100D01*
X1099899Y-101100D01*
X1153599Y-88499D02*
G01*
X1153599Y-126100D01*
X1153599Y-88499D02*
G01*
X1169700Y-88499D01*
X1175100Y-90300D01*
X1176899Y-92100D01*
X1178699Y-95799D01*
X1178699Y-99299D01*
X1176899Y-102800D01*
X1175100Y-104600D01*
X1169700Y-106399D01*
X1153599Y-106399D02*
G01*
X1169700Y-106399D01*
X1175100Y-108299D01*
X1176899Y-110000D01*
X1178699Y-113600D01*
X1178699Y-118899D01*
X1176899Y-122500D01*
X1175100Y-124299D01*
X1169700Y-126100D01*
X1153599Y-126100D01*
X845000Y1165799D02*
G01*
X845000Y1131900D01*
X845000Y1165799D02*
G01*
X865900Y1165799D01*
X845000Y1149600D02*
G01*
X857899Y1149600D01*
X845000Y1131900D02*
G01*
X865900Y1131900D01*
X899099Y1160900D02*
G01*
X895900Y1164099D01*
X891099Y1165799D01*
X884600Y1165799D01*
X879799Y1164099D01*
X876599Y1160900D01*
X876599Y1157699D01*
X878199Y1154499D01*
X879799Y1152899D01*
X883000Y1151300D01*
X892700Y1148000D01*
X895900Y1146399D01*
X897500Y1144800D01*
X899099Y1141599D01*
X899099Y1136799D01*
X895900Y1133499D01*
X891099Y1131900D01*
X884600Y1131900D01*
X879799Y1133499D01*
X876599Y1136799D01*
X909700Y1165799D02*
G01*
X909700Y1131900D01*
X909700Y1165799D02*
G01*
X924200Y1165799D01*
X929099Y1164099D01*
X930699Y1162500D01*
X932299Y1159299D01*
X932299Y1154499D01*
X930699Y1151300D01*
X929099Y1149600D01*
X924200Y1148000D01*
X909700Y1148000D01*
X942899Y1146399D02*
G01*
X971899Y1146399D01*
X982500Y1165799D02*
G01*
X990600Y1131900D01*
X998699Y1165799D02*
G01*
X990600Y1131900D01*
X998699Y1165799D02*
G01*
X1006700Y1131900D01*
X1014799Y1165799D02*
G01*
X1006700Y1131900D01*
X1025399Y1165799D02*
G01*
X1025399Y1131900D01*
X1025399Y1165799D02*
G01*
X1039899Y1165799D01*
X1044700Y1164099D01*
X1046300Y1162500D01*
X1047899Y1159299D01*
X1047899Y1156100D01*
X1046300Y1152899D01*
X1044700Y1151300D01*
X1039899Y1149600D01*
X1025399Y1149600D01*
X1036700Y1149600D02*
G01*
X1047899Y1131900D01*
X1068199Y1165799D02*
G01*
X1065000Y1164099D01*
X1061800Y1160900D01*
X1060200Y1157699D01*
X1058599Y1152899D01*
X1058599Y1144800D01*
X1060200Y1140000D01*
X1061800Y1136799D01*
X1065000Y1133499D01*
X1068199Y1131900D01*
X1074700Y1131900D01*
X1077899Y1133499D01*
X1081099Y1136799D01*
X1082700Y1140000D01*
X1084300Y1144800D01*
X1084300Y1152899D01*
X1082700Y1157699D01*
X1081099Y1160900D01*
X1077899Y1164099D01*
X1074700Y1165799D01*
X1068199Y1165799D01*
X1095000Y1165799D02*
G01*
X1107799Y1131900D01*
X1120699Y1165799D02*
G01*
X1107799Y1131900D01*
X1131400Y1165799D02*
G01*
X1131400Y1131900D01*
X1131400Y1165799D02*
G01*
X1152299Y1165799D01*
X1131400Y1149600D02*
G01*
X1144200Y1149600D01*
X1131400Y1131900D02*
G01*
X1152299Y1131900D01*
X1162899Y1165799D02*
G01*
X1162899Y1131900D01*
X1162899Y1165799D02*
G01*
X1177399Y1165799D01*
X1182299Y1164099D01*
X1183900Y1162500D01*
X1185500Y1159299D01*
X1185500Y1156100D01*
X1183900Y1152899D01*
X1182299Y1151300D01*
X1177399Y1149600D01*
X1162899Y1149600D01*
X1174200Y1149600D02*
G01*
X1185500Y1131900D01*
X1196099Y1146399D02*
G01*
X1225100Y1146399D01*
X1238999Y1165799D02*
G01*
X1256700Y1165799D01*
X1246999Y1152899D01*
X1251800Y1152899D01*
X1255100Y1151300D01*
X1256700Y1149600D01*
X1258299Y1144800D01*
X1258299Y1141599D01*
X1256700Y1136799D01*
X1253400Y1133499D01*
X1248599Y1131900D01*
X1243800Y1131900D01*
X1238999Y1133499D01*
X1237299Y1135199D01*
X1235699Y1138400D01*
X1270500Y1157699D02*
G01*
X1270500Y1159299D01*
X1272100Y1162500D01*
X1273699Y1164099D01*
X1276999Y1165799D01*
X1283400Y1165799D01*
X1286599Y1164099D01*
X1288199Y1162500D01*
X1289799Y1159299D01*
X1289799Y1156100D01*
X1288199Y1152899D01*
X1285000Y1148000D01*
X1268900Y1131900D01*
X1291499Y1131900D01*
X615000Y336399D02*
G01*
X615000Y307699D01*
X632199Y336399D02*
G01*
X629499Y335000D01*
X626700Y332300D01*
X625399Y329499D01*
X624000Y325500D01*
X624000Y318600D01*
X625399Y314499D01*
X626700Y311799D01*
X629499Y309099D01*
X632199Y307699D01*
X637600Y307699D01*
X640399Y309099D01*
X643099Y311799D01*
X644499Y314499D01*
X645799Y318600D01*
X645799Y325500D01*
X644499Y329499D01*
X643099Y332300D01*
X640399Y335000D01*
X637600Y336399D01*
X632199Y336399D01*
X654800Y330900D02*
G01*
X657500Y332300D01*
X661599Y336399D01*
X661599Y307699D01*
X673400Y336399D02*
G01*
X688400Y336399D01*
X680199Y325500D01*
X684299Y325500D01*
X686999Y324099D01*
X688400Y322699D01*
X689699Y318600D01*
X689699Y315900D01*
X688400Y311799D01*
X685599Y309099D01*
X681500Y307699D01*
X677500Y307699D01*
X673400Y309099D01*
X671999Y310500D01*
X670599Y313200D01*
X635500Y429499D02*
G01*
X634099Y432300D01*
X631399Y435000D01*
X628600Y436399D01*
X623200Y436399D01*
X620500Y435000D01*
X617699Y432300D01*
X616399Y429499D01*
X615000Y425500D01*
X615000Y418600D01*
X616399Y414499D01*
X617699Y411799D01*
X620500Y409099D01*
X623200Y407699D01*
X628600Y407699D01*
X631399Y409099D01*
X634099Y411799D01*
X635500Y414499D01*
X635500Y418600D01*
X628600Y418600D02*
G01*
X635500Y418600D01*
X644499Y436399D02*
G01*
X644499Y407699D01*
X644499Y436399D02*
G01*
X663499Y407699D01*
X663499Y436399D02*
G01*
X663499Y407699D01*
X672500Y436399D02*
G01*
X672500Y407699D01*
X672500Y436399D02*
G01*
X682100Y436399D01*
X686199Y435000D01*
X688899Y432300D01*
X690300Y429499D01*
X691599Y425500D01*
X691599Y418600D01*
X690300Y414499D01*
X688899Y411799D01*
X686199Y409099D01*
X682100Y407699D01*
X672500Y407699D01*
X615000Y536399D02*
G01*
X615000Y507699D01*
X632199Y536399D02*
G01*
X629499Y535000D01*
X626700Y532300D01*
X625399Y529499D01*
X624000Y525500D01*
X624000Y518600D01*
X625399Y514499D01*
X626700Y511799D01*
X629499Y509099D01*
X632199Y507699D01*
X637600Y507699D01*
X640399Y509099D01*
X643099Y511799D01*
X644499Y514499D01*
X645799Y518600D01*
X645799Y525500D01*
X644499Y529499D01*
X643099Y532300D01*
X640399Y535000D01*
X637600Y536399D01*
X632199Y536399D01*
X654800Y530900D02*
G01*
X657500Y532300D01*
X661599Y536399D01*
X661599Y507699D01*
X671999Y529499D02*
G01*
X671999Y530900D01*
X673400Y533600D01*
X674699Y535000D01*
X677500Y536399D01*
X682899Y536399D01*
X685599Y535000D01*
X686999Y533600D01*
X688400Y530900D01*
X688400Y528200D01*
X686999Y525500D01*
X684299Y521399D01*
X670599Y507699D01*
X689699Y507699D01*
X615000Y636399D02*
G01*
X615000Y607699D01*
X632199Y636399D02*
G01*
X629499Y635000D01*
X626700Y632300D01*
X625399Y629499D01*
X624000Y625500D01*
X624000Y618600D01*
X625399Y614499D01*
X626700Y611799D01*
X629499Y609099D01*
X632199Y607699D01*
X637600Y607699D01*
X640399Y609099D01*
X643099Y611799D01*
X644499Y614499D01*
X645799Y618600D01*
X645799Y625500D01*
X644499Y629499D01*
X643099Y632300D01*
X640399Y635000D01*
X637600Y636399D01*
X632199Y636399D01*
X654800Y630900D02*
G01*
X657500Y632300D01*
X661599Y636399D01*
X661599Y607699D01*
X684299Y636399D02*
G01*
X670599Y617300D01*
X691100Y617300D01*
X684299Y636399D02*
G01*
X684299Y607699D01*
X615000Y736399D02*
G01*
X615000Y707699D01*
X632199Y736399D02*
G01*
X629499Y735000D01*
X626700Y732300D01*
X625399Y729499D01*
X624000Y725500D01*
X624000Y718600D01*
X625399Y714499D01*
X626700Y711799D01*
X629499Y709099D01*
X632199Y707699D01*
X637600Y707699D01*
X640399Y709099D01*
X643099Y711799D01*
X644499Y714499D01*
X645799Y718600D01*
X645799Y725500D01*
X644499Y729499D01*
X643099Y732300D01*
X640399Y735000D01*
X637600Y736399D01*
X632199Y736399D01*
X656199Y729499D02*
G01*
X656199Y730900D01*
X657500Y733600D01*
X658899Y735000D01*
X661599Y736399D01*
X667100Y736399D01*
X669800Y735000D01*
X671199Y733600D01*
X672500Y730900D01*
X672500Y728200D01*
X671199Y725500D01*
X668499Y721399D01*
X654800Y707699D01*
X673899Y707699D01*
X701999Y736399D02*
G01*
X688400Y707699D01*
X682899Y736399D02*
G01*
X701999Y736399D01*
X615000Y836399D02*
G01*
X615000Y807699D01*
X632199Y836399D02*
G01*
X629499Y835000D01*
X626700Y832300D01*
X625399Y829499D01*
X624000Y825500D01*
X624000Y818600D01*
X625399Y814499D01*
X626700Y811799D01*
X629499Y809099D01*
X632199Y807699D01*
X637600Y807699D01*
X640399Y809099D01*
X643099Y811799D01*
X644499Y814499D01*
X645799Y818600D01*
X645799Y825500D01*
X644499Y829499D01*
X643099Y832300D01*
X640399Y835000D01*
X637600Y836399D01*
X632199Y836399D01*
X656199Y829499D02*
G01*
X656199Y830900D01*
X657500Y833600D01*
X658899Y835000D01*
X661599Y836399D01*
X667100Y836399D01*
X669800Y835000D01*
X671199Y833600D01*
X672500Y830900D01*
X672500Y828200D01*
X671199Y825500D01*
X668499Y821399D01*
X654800Y807699D01*
X673899Y807699D01*
X699299Y832300D02*
G01*
X697899Y835000D01*
X693800Y836399D01*
X691100Y836399D01*
X686999Y835000D01*
X684299Y830900D01*
X682899Y824099D01*
X682899Y817300D01*
X684299Y811799D01*
X686999Y809099D01*
X691100Y807699D01*
X692500Y807699D01*
X696500Y809099D01*
X699299Y811799D01*
X700599Y815900D01*
X700599Y817300D01*
X699299Y821399D01*
X696500Y824099D01*
X692500Y825500D01*
X691100Y825500D01*
X686999Y824099D01*
X684299Y821399D01*
X682899Y817300D01*
X615000Y936399D02*
G01*
X615000Y907699D01*
X632199Y936399D02*
G01*
X629499Y935000D01*
X626700Y932300D01*
X625399Y929499D01*
X624000Y925500D01*
X624000Y918600D01*
X625399Y914499D01*
X626700Y911799D01*
X629499Y909099D01*
X632199Y907699D01*
X637600Y907699D01*
X640399Y909099D01*
X643099Y911799D01*
X644499Y914499D01*
X645799Y918600D01*
X645799Y925500D01*
X644499Y929499D01*
X643099Y932300D01*
X640399Y935000D01*
X637600Y936399D01*
X632199Y936399D01*
X656199Y929499D02*
G01*
X656199Y930900D01*
X657500Y933600D01*
X658899Y935000D01*
X661599Y936399D01*
X667100Y936399D01*
X669800Y935000D01*
X671199Y933600D01*
X672500Y930900D01*
X672500Y928200D01*
X671199Y925500D01*
X668499Y921399D01*
X654800Y907699D01*
X673899Y907699D01*
X699299Y936399D02*
G01*
X685599Y936399D01*
X684299Y924099D01*
X685599Y925500D01*
X689699Y926799D01*
X693800Y926799D01*
X697899Y925500D01*
X700599Y922699D01*
X701999Y918600D01*
X701999Y915900D01*
X700599Y911799D01*
X697899Y909099D01*
X693800Y907699D01*
X689699Y907699D01*
X685599Y909099D01*
X684299Y910500D01*
X682899Y913200D01*
X615000Y1036399D02*
G01*
X615000Y1007699D01*
X632199Y1036399D02*
G01*
X629499Y1035000D01*
X626700Y1032300D01*
X625399Y1029499D01*
X624000Y1025500D01*
X624000Y1018600D01*
X625399Y1014499D01*
X626700Y1011799D01*
X629499Y1009099D01*
X632199Y1007699D01*
X637600Y1007699D01*
X640399Y1009099D01*
X643099Y1011799D01*
X644499Y1014499D01*
X645799Y1018600D01*
X645799Y1025500D01*
X644499Y1029499D01*
X643099Y1032300D01*
X640399Y1035000D01*
X637600Y1036399D01*
X632199Y1036399D01*
X657500Y1036399D02*
G01*
X672500Y1036399D01*
X664400Y1025500D01*
X668499Y1025500D01*
X671199Y1024099D01*
X672500Y1022699D01*
X673899Y1018600D01*
X673899Y1015900D01*
X672500Y1011799D01*
X669800Y1009099D01*
X665700Y1007699D01*
X661599Y1007699D01*
X657500Y1009099D01*
X656199Y1010500D01*
X654800Y1013200D01*
X685599Y1036399D02*
G01*
X700599Y1036399D01*
X692500Y1025500D01*
X696500Y1025500D01*
X699299Y1024099D01*
X700599Y1022699D01*
X701999Y1018600D01*
X701999Y1015900D01*
X700599Y1011799D01*
X697899Y1009099D01*
X693800Y1007699D01*
X689699Y1007699D01*
X685599Y1009099D01*
X684299Y1010500D01*
X682899Y1013200D01*
X615000Y1136399D02*
G01*
X615000Y1107699D01*
X632199Y1136399D02*
G01*
X629499Y1135000D01*
X626700Y1132300D01*
X625399Y1129499D01*
X624000Y1125500D01*
X624000Y1118600D01*
X625399Y1114499D01*
X626700Y1111799D01*
X629499Y1109099D01*
X632199Y1107699D01*
X637600Y1107699D01*
X640399Y1109099D01*
X643099Y1111799D01*
X644499Y1114499D01*
X645799Y1118600D01*
X645799Y1125500D01*
X644499Y1129499D01*
X643099Y1132300D01*
X640399Y1135000D01*
X637600Y1136399D01*
X632199Y1136399D01*
X657500Y1136399D02*
G01*
X672500Y1136399D01*
X664400Y1125500D01*
X668499Y1125500D01*
X671199Y1124099D01*
X672500Y1122699D01*
X673899Y1118600D01*
X673899Y1115900D01*
X672500Y1111799D01*
X669800Y1109099D01*
X665700Y1107699D01*
X661599Y1107699D01*
X657500Y1109099D01*
X656199Y1110500D01*
X654800Y1113200D01*
X684299Y1129499D02*
G01*
X684299Y1130900D01*
X685599Y1133600D01*
X686999Y1135000D01*
X689699Y1136399D01*
X695199Y1136399D01*
X697899Y1135000D01*
X699299Y1133600D01*
X700599Y1130900D01*
X700599Y1128200D01*
X699299Y1125500D01*
X696500Y1121399D01*
X682899Y1107699D01*
X701999Y1107699D01*
X615000Y1236399D02*
G01*
X615000Y1207699D01*
X632199Y1236399D02*
G01*
X629499Y1235000D01*
X626700Y1232300D01*
X625399Y1229499D01*
X624000Y1225500D01*
X624000Y1218600D01*
X625399Y1214499D01*
X626700Y1211799D01*
X629499Y1209099D01*
X632199Y1207699D01*
X637600Y1207699D01*
X640399Y1209099D01*
X643099Y1211799D01*
X644499Y1214499D01*
X645799Y1218600D01*
X645799Y1225500D01*
X644499Y1229499D01*
X643099Y1232300D01*
X640399Y1235000D01*
X637600Y1236399D01*
X632199Y1236399D01*
X657500Y1236399D02*
G01*
X672500Y1236399D01*
X664400Y1225500D01*
X668499Y1225500D01*
X671199Y1224099D01*
X672500Y1222699D01*
X673899Y1218600D01*
X673899Y1215900D01*
X672500Y1211799D01*
X669800Y1209099D01*
X665700Y1207699D01*
X661599Y1207699D01*
X657500Y1209099D01*
X656199Y1210500D01*
X654800Y1213200D01*
X699299Y1236399D02*
G01*
X685599Y1236399D01*
X684299Y1224099D01*
X685599Y1225500D01*
X689699Y1226799D01*
X693800Y1226799D01*
X697899Y1225500D01*
X700599Y1222699D01*
X701999Y1218600D01*
X701999Y1215900D01*
X700599Y1211799D01*
X697899Y1209099D01*
X693800Y1207699D01*
X689699Y1207699D01*
X685599Y1209099D01*
X684299Y1210500D01*
X682899Y1213200D01*
X615000Y1336399D02*
G01*
X615000Y1307699D01*
X632199Y1336399D02*
G01*
X629499Y1335000D01*
X626700Y1332300D01*
X625399Y1329499D01*
X624000Y1325500D01*
X624000Y1318600D01*
X625399Y1314499D01*
X626700Y1311799D01*
X629499Y1309099D01*
X632199Y1307699D01*
X637600Y1307699D01*
X640399Y1309099D01*
X643099Y1311799D01*
X644499Y1314499D01*
X645799Y1318600D01*
X645799Y1325500D01*
X644499Y1329499D01*
X643099Y1332300D01*
X640399Y1335000D01*
X637600Y1336399D01*
X632199Y1336399D01*
X657500Y1336399D02*
G01*
X672500Y1336399D01*
X664400Y1325500D01*
X668499Y1325500D01*
X671199Y1324099D01*
X672500Y1322699D01*
X673899Y1318600D01*
X673899Y1315900D01*
X672500Y1311799D01*
X669800Y1309099D01*
X665700Y1307699D01*
X661599Y1307699D01*
X657500Y1309099D01*
X656199Y1310500D01*
X654800Y1313200D01*
X696500Y1336399D02*
G01*
X682899Y1317300D01*
X703400Y1317300D01*
X696500Y1336399D02*
G01*
X696500Y1307699D01*
X634099Y1432300D02*
G01*
X631399Y1435000D01*
X627300Y1436399D01*
X621799Y1436399D01*
X617699Y1435000D01*
X615000Y1432300D01*
X615000Y1429499D01*
X616399Y1426799D01*
X617699Y1425500D01*
X620500Y1424099D01*
X628600Y1421399D01*
X631399Y1420000D01*
X632699Y1418600D01*
X634099Y1415900D01*
X634099Y1411799D01*
X631399Y1409099D01*
X627300Y1407699D01*
X621799Y1407699D01*
X617699Y1409099D01*
X615000Y1411799D01*
X643099Y1436399D02*
G01*
X654000Y1407699D01*
X664899Y1436399D02*
G01*
X654000Y1407699D01*
X673899Y1436399D02*
G01*
X673899Y1407699D01*
X673899Y1436399D02*
G01*
X693000Y1407699D01*
X693000Y1436399D02*
G01*
X693000Y1407699D01*
X634099Y1532300D02*
G01*
X631399Y1535000D01*
X627300Y1536399D01*
X621799Y1536399D01*
X617699Y1535000D01*
X615000Y1532300D01*
X615000Y1529499D01*
X616399Y1526799D01*
X617699Y1525500D01*
X620500Y1524099D01*
X628600Y1521399D01*
X631399Y1520000D01*
X632699Y1518600D01*
X634099Y1515900D01*
X634099Y1511799D01*
X631399Y1509099D01*
X627300Y1507699D01*
X621799Y1507699D01*
X617699Y1509099D01*
X615000Y1511799D01*
X643099Y1536399D02*
G01*
X654000Y1507699D01*
X664899Y1536399D02*
G01*
X654000Y1507699D01*
X673899Y1536399D02*
G01*
X673899Y1507699D01*
X673899Y1536399D02*
G01*
X686199Y1536399D01*
X690300Y1535000D01*
X691599Y1533600D01*
X693000Y1530900D01*
X693000Y1526799D01*
X691599Y1524099D01*
X690300Y1522699D01*
X686199Y1521399D01*
X673899Y1521399D01*
X1435000Y1336399D02*
G01*
X1435000Y1307699D01*
X1435000Y1336399D02*
G01*
X1447299Y1336399D01*
X1451400Y1335000D01*
X1452700Y1333600D01*
X1454099Y1330900D01*
X1454099Y1328200D01*
X1452700Y1325500D01*
X1451400Y1324099D01*
X1447299Y1322699D01*
X1435000Y1322699D01*
X1444499Y1322699D02*
G01*
X1454099Y1307699D01*
X1463100Y1336399D02*
G01*
X1482200Y1307699D01*
X1482200Y1336399D02*
G01*
X1463100Y1307699D01*
X1499399Y1336399D02*
G01*
X1495299Y1335000D01*
X1492500Y1330900D01*
X1491199Y1324099D01*
X1491199Y1320000D01*
X1492500Y1313200D01*
X1495299Y1309099D01*
X1499399Y1307699D01*
X1502100Y1307699D01*
X1506199Y1309099D01*
X1508900Y1313200D01*
X1510299Y1320000D01*
X1510299Y1324099D01*
X1508900Y1330900D01*
X1506199Y1335000D01*
X1502100Y1336399D01*
X1499399Y1336399D01*
X1435000Y236399D02*
G01*
X1435000Y207699D01*
X1452200Y236399D02*
G01*
X1449499Y235000D01*
X1446700Y232300D01*
X1445399Y229499D01*
X1443999Y225500D01*
X1443999Y218600D01*
X1445399Y214499D01*
X1446700Y211799D01*
X1449499Y209099D01*
X1452200Y207699D01*
X1457600Y207699D01*
X1460399Y209099D01*
X1463100Y211799D01*
X1464499Y214499D01*
X1465799Y218600D01*
X1465799Y225500D01*
X1464499Y229499D01*
X1463100Y232300D01*
X1460399Y235000D01*
X1457600Y236399D01*
X1452200Y236399D01*
X1474799Y230900D02*
G01*
X1477500Y232300D01*
X1481599Y236399D01*
X1481599Y207699D01*
X1506999Y236399D02*
G01*
X1493400Y236399D01*
X1491999Y224099D01*
X1493400Y225500D01*
X1497500Y226799D01*
X1501499Y226799D01*
X1505600Y225500D01*
X1508400Y222699D01*
X1509700Y218600D01*
X1509700Y215900D01*
X1508400Y211799D01*
X1505600Y209099D01*
X1501499Y207699D01*
X1497500Y207699D01*
X1493400Y209099D01*
X1491999Y210500D01*
X1490600Y213200D01*
X1455000Y336399D02*
G01*
X1455000Y307699D01*
X1472200Y336399D02*
G01*
X1469499Y335000D01*
X1466700Y332300D01*
X1465399Y329499D01*
X1463999Y325500D01*
X1463999Y318600D01*
X1465399Y314499D01*
X1466700Y311799D01*
X1469499Y309099D01*
X1472200Y307699D01*
X1477600Y307699D01*
X1480399Y309099D01*
X1483100Y311799D01*
X1484499Y314499D01*
X1485799Y318600D01*
X1485799Y325500D01*
X1484499Y329499D01*
X1483100Y332300D01*
X1480399Y335000D01*
X1477600Y336399D01*
X1472200Y336399D01*
X1496199Y329499D02*
G01*
X1496199Y330900D01*
X1497500Y333600D01*
X1498900Y335000D01*
X1501599Y336399D01*
X1507100Y336399D01*
X1509799Y335000D01*
X1511199Y333600D01*
X1512500Y330900D01*
X1512500Y328200D01*
X1511199Y325500D01*
X1508500Y321399D01*
X1494799Y307699D01*
X1513900Y307699D01*
X1455000Y436399D02*
G01*
X1455000Y407699D01*
X1472200Y436399D02*
G01*
X1469499Y435000D01*
X1466700Y432300D01*
X1465399Y429499D01*
X1463999Y425500D01*
X1463999Y418600D01*
X1465399Y414499D01*
X1466700Y411799D01*
X1469499Y409099D01*
X1472200Y407699D01*
X1477600Y407699D01*
X1480399Y409099D01*
X1483100Y411799D01*
X1484499Y414499D01*
X1485799Y418600D01*
X1485799Y425500D01*
X1484499Y429499D01*
X1483100Y432300D01*
X1480399Y435000D01*
X1477600Y436399D01*
X1472200Y436399D01*
X1503000Y436399D02*
G01*
X1498900Y435000D01*
X1496199Y430900D01*
X1494799Y424099D01*
X1494799Y420000D01*
X1496199Y413200D01*
X1498900Y409099D01*
X1503000Y407699D01*
X1505699Y407699D01*
X1509799Y409099D01*
X1512500Y413200D01*
X1513900Y420000D01*
X1513900Y424099D01*
X1512500Y430900D01*
X1509799Y435000D01*
X1505699Y436399D01*
X1503000Y436399D01*
X1455000Y536399D02*
G01*
X1455000Y507699D01*
X1472200Y536399D02*
G01*
X1469499Y535000D01*
X1466700Y532300D01*
X1465399Y529499D01*
X1463999Y525500D01*
X1463999Y518600D01*
X1465399Y514499D01*
X1466700Y511799D01*
X1469499Y509099D01*
X1472200Y507699D01*
X1477600Y507699D01*
X1480399Y509099D01*
X1483100Y511799D01*
X1484499Y514499D01*
X1485799Y518600D01*
X1485799Y525500D01*
X1484499Y529499D01*
X1483100Y532300D01*
X1480399Y535000D01*
X1477600Y536399D01*
X1472200Y536399D01*
X1508500Y536399D02*
G01*
X1494799Y517300D01*
X1515299Y517300D01*
X1508500Y536399D02*
G01*
X1508500Y507699D01*
X1455500Y633499D02*
G01*
X1454099Y636199D01*
X1451400Y638899D01*
X1448599Y640300D01*
X1443199Y640300D01*
X1440500Y638899D01*
X1437700Y636199D01*
X1436400Y633499D01*
X1435000Y629400D01*
X1435000Y622500D01*
X1436400Y618499D01*
X1437700Y615700D01*
X1440500Y613000D01*
X1443199Y611599D01*
X1448599Y611599D01*
X1451400Y613000D01*
X1454099Y615700D01*
X1455500Y618499D01*
X1455500Y622500D01*
X1448599Y622500D02*
G01*
X1455500Y622500D01*
X1464499Y640300D02*
G01*
X1464499Y611599D01*
X1464499Y640300D02*
G01*
X1483500Y611599D01*
X1483500Y640300D02*
G01*
X1483500Y611599D01*
X1492500Y640300D02*
G01*
X1492500Y611599D01*
X1492500Y640300D02*
G01*
X1502100Y640300D01*
X1506199Y638899D01*
X1508900Y636199D01*
X1510299Y633499D01*
X1511599Y629400D01*
X1511599Y622500D01*
X1510299Y618499D01*
X1508900Y615700D01*
X1506199Y613000D01*
X1502100Y611599D01*
X1492500Y611599D01*
X1455500Y723499D02*
G01*
X1454099Y726199D01*
X1451400Y728899D01*
X1448599Y730300D01*
X1443199Y730300D01*
X1440500Y728899D01*
X1437700Y726199D01*
X1436400Y723499D01*
X1435000Y719400D01*
X1435000Y712500D01*
X1436400Y708499D01*
X1437700Y705700D01*
X1440500Y703000D01*
X1443199Y701599D01*
X1448599Y701599D01*
X1451400Y703000D01*
X1454099Y705700D01*
X1455500Y708499D01*
X1455500Y712500D01*
X1448599Y712500D02*
G01*
X1455500Y712500D01*
X1464499Y730300D02*
G01*
X1464499Y701599D01*
X1464499Y730300D02*
G01*
X1483500Y701599D01*
X1483500Y730300D02*
G01*
X1483500Y701599D01*
X1492500Y730300D02*
G01*
X1492500Y701599D01*
X1492500Y730300D02*
G01*
X1502100Y730300D01*
X1506199Y728899D01*
X1508900Y726199D01*
X1510299Y723499D01*
X1511599Y719400D01*
X1511599Y712500D01*
X1510299Y708499D01*
X1508900Y705700D01*
X1506199Y703000D01*
X1502100Y701599D01*
X1492500Y701599D01*
X1455000Y836399D02*
G01*
X1455000Y807699D01*
X1472200Y836399D02*
G01*
X1469499Y835000D01*
X1466700Y832300D01*
X1465399Y829499D01*
X1463999Y825500D01*
X1463999Y818600D01*
X1465399Y814499D01*
X1466700Y811799D01*
X1469499Y809099D01*
X1472200Y807699D01*
X1477600Y807699D01*
X1480399Y809099D01*
X1483100Y811799D01*
X1484499Y814499D01*
X1485799Y818600D01*
X1485799Y825500D01*
X1484499Y829499D01*
X1483100Y832300D01*
X1480399Y835000D01*
X1477600Y836399D01*
X1472200Y836399D01*
X1511199Y836399D02*
G01*
X1497500Y836399D01*
X1496199Y824099D01*
X1497500Y825500D01*
X1501599Y826799D01*
X1505699Y826799D01*
X1509799Y825500D01*
X1512500Y822699D01*
X1513900Y818600D01*
X1513900Y815900D01*
X1512500Y811799D01*
X1509799Y809099D01*
X1505699Y807699D01*
X1501599Y807699D01*
X1497500Y809099D01*
X1496199Y810500D01*
X1494799Y813200D01*
X1435000Y936399D02*
G01*
X1435000Y907699D01*
X1452200Y936399D02*
G01*
X1449499Y935000D01*
X1446700Y932300D01*
X1445399Y929499D01*
X1443999Y925500D01*
X1443999Y918600D01*
X1445399Y914499D01*
X1446700Y911799D01*
X1449499Y909099D01*
X1452200Y907699D01*
X1457600Y907699D01*
X1460399Y909099D01*
X1463100Y911799D01*
X1464499Y914499D01*
X1465799Y918600D01*
X1465799Y925500D01*
X1464499Y929499D01*
X1463100Y932300D01*
X1460399Y935000D01*
X1457600Y936399D01*
X1452200Y936399D01*
X1474799Y930900D02*
G01*
X1477500Y932300D01*
X1481599Y936399D01*
X1481599Y907699D01*
X1497500Y936399D02*
G01*
X1493400Y935000D01*
X1491999Y932300D01*
X1491999Y929499D01*
X1493400Y926799D01*
X1496099Y925500D01*
X1501499Y924099D01*
X1505600Y922699D01*
X1508400Y920000D01*
X1509700Y917300D01*
X1509700Y913200D01*
X1508400Y910500D01*
X1506999Y909099D01*
X1502899Y907699D01*
X1497500Y907699D01*
X1493400Y909099D01*
X1491999Y910500D01*
X1490600Y913200D01*
X1490600Y917300D01*
X1491999Y920000D01*
X1494700Y922699D01*
X1498800Y924099D01*
X1504300Y925500D01*
X1506999Y926799D01*
X1508400Y929499D01*
X1508400Y932300D01*
X1506999Y935000D01*
X1502899Y936399D01*
X1497500Y936399D01*
X1435000Y1036399D02*
G01*
X1435000Y1007699D01*
X1452200Y1036399D02*
G01*
X1449499Y1035000D01*
X1446700Y1032300D01*
X1445399Y1029499D01*
X1443999Y1025500D01*
X1443999Y1018600D01*
X1445399Y1014499D01*
X1446700Y1011799D01*
X1449499Y1009099D01*
X1452200Y1007699D01*
X1457600Y1007699D01*
X1460399Y1009099D01*
X1463100Y1011799D01*
X1464499Y1014499D01*
X1465799Y1018600D01*
X1465799Y1025500D01*
X1464499Y1029499D01*
X1463100Y1032300D01*
X1460399Y1035000D01*
X1457600Y1036399D01*
X1452200Y1036399D01*
X1474799Y1030900D02*
G01*
X1477500Y1032300D01*
X1481599Y1036399D01*
X1481599Y1007699D01*
X1508400Y1026799D02*
G01*
X1506999Y1022699D01*
X1504300Y1020000D01*
X1500200Y1018600D01*
X1498800Y1018600D01*
X1494700Y1020000D01*
X1491999Y1022699D01*
X1490600Y1026799D01*
X1490600Y1028200D01*
X1491999Y1032300D01*
X1494700Y1035000D01*
X1498800Y1036399D01*
X1500200Y1036399D01*
X1504300Y1035000D01*
X1506999Y1032300D01*
X1508400Y1026799D01*
X1508400Y1020000D01*
X1506999Y1013200D01*
X1504300Y1009099D01*
X1500200Y1007699D01*
X1497500Y1007699D01*
X1493400Y1009099D01*
X1491999Y1011799D01*
X1455500Y1129499D02*
G01*
X1454099Y1132300D01*
X1451400Y1135000D01*
X1448599Y1136399D01*
X1443199Y1136399D01*
X1440500Y1135000D01*
X1437700Y1132300D01*
X1436400Y1129499D01*
X1435000Y1125500D01*
X1435000Y1118600D01*
X1436400Y1114499D01*
X1437700Y1111799D01*
X1440500Y1109099D01*
X1443199Y1107699D01*
X1448599Y1107699D01*
X1451400Y1109099D01*
X1454099Y1111799D01*
X1455500Y1114499D01*
X1455500Y1118600D01*
X1448599Y1118600D02*
G01*
X1455500Y1118600D01*
X1464499Y1136399D02*
G01*
X1464499Y1107699D01*
X1464499Y1136399D02*
G01*
X1483500Y1107699D01*
X1483500Y1136399D02*
G01*
X1483500Y1107699D01*
X1492500Y1136399D02*
G01*
X1492500Y1107699D01*
X1492500Y1136399D02*
G01*
X1502100Y1136399D01*
X1506199Y1135000D01*
X1508900Y1132300D01*
X1510299Y1129499D01*
X1511599Y1125500D01*
X1511599Y1118600D01*
X1510299Y1114499D01*
X1508900Y1111799D01*
X1506199Y1109099D01*
X1502100Y1107699D01*
X1492500Y1107699D01*
X1435000Y1236399D02*
G01*
X1435000Y1207699D01*
X1452200Y1236399D02*
G01*
X1449499Y1235000D01*
X1446700Y1232300D01*
X1445399Y1229499D01*
X1443999Y1225500D01*
X1443999Y1218600D01*
X1445399Y1214499D01*
X1446700Y1211799D01*
X1449499Y1209099D01*
X1452200Y1207699D01*
X1457600Y1207699D01*
X1460399Y1209099D01*
X1463100Y1211799D01*
X1464499Y1214499D01*
X1465799Y1218600D01*
X1465799Y1225500D01*
X1464499Y1229499D01*
X1463100Y1232300D01*
X1460399Y1235000D01*
X1457600Y1236399D01*
X1452200Y1236399D01*
X1476199Y1229499D02*
G01*
X1476199Y1230900D01*
X1477500Y1233600D01*
X1478900Y1235000D01*
X1481599Y1236399D01*
X1487100Y1236399D01*
X1489799Y1235000D01*
X1491199Y1233600D01*
X1492500Y1230900D01*
X1492500Y1228200D01*
X1491199Y1225500D01*
X1488500Y1221399D01*
X1474799Y1207699D01*
X1493900Y1207699D01*
X1502899Y1230900D02*
G01*
X1505600Y1232300D01*
X1509700Y1236399D01*
X1509700Y1207699D01*
X1444499Y1436399D02*
G01*
X1444499Y1407699D01*
X1435000Y1436399D02*
G01*
X1454099Y1436399D01*
X1463100Y1436399D02*
G01*
X1482200Y1407699D01*
X1482200Y1436399D02*
G01*
X1463100Y1407699D01*
X1499399Y1436399D02*
G01*
X1495299Y1435000D01*
X1492500Y1430900D01*
X1491199Y1424099D01*
X1491199Y1420000D01*
X1492500Y1413200D01*
X1495299Y1409099D01*
X1499399Y1407699D01*
X1502100Y1407699D01*
X1506199Y1409099D01*
X1508900Y1413200D01*
X1510299Y1420000D01*
X1510299Y1424099D01*
X1508900Y1430900D01*
X1506199Y1435000D01*
X1502100Y1436399D01*
X1499399Y1436399D01*
X1425000Y1536399D02*
G01*
X1425000Y1507699D01*
X1442200Y1536399D02*
G01*
X1439499Y1535000D01*
X1436700Y1532300D01*
X1435399Y1529499D01*
X1433999Y1525500D01*
X1433999Y1518600D01*
X1435399Y1514499D01*
X1436700Y1511799D01*
X1439499Y1509099D01*
X1442200Y1507699D01*
X1447600Y1507699D01*
X1450399Y1509099D01*
X1453100Y1511799D01*
X1454499Y1514499D01*
X1455799Y1518600D01*
X1455799Y1525500D01*
X1454499Y1529499D01*
X1453100Y1532300D01*
X1450399Y1535000D01*
X1447600Y1536399D01*
X1442200Y1536399D01*
X1466199Y1529499D02*
G01*
X1466199Y1530900D01*
X1467500Y1533600D01*
X1468900Y1535000D01*
X1471599Y1536399D01*
X1477100Y1536399D01*
X1479799Y1535000D01*
X1481199Y1533600D01*
X1482500Y1530900D01*
X1482500Y1528200D01*
X1481199Y1525500D01*
X1478500Y1521399D01*
X1464799Y1507699D01*
X1483900Y1507699D01*
X1494300Y1529499D02*
G01*
X1494300Y1530900D01*
X1495600Y1533600D01*
X1496999Y1535000D01*
X1499700Y1536399D01*
X1505200Y1536399D01*
X1507899Y1535000D01*
X1509300Y1533600D01*
X1510600Y1530900D01*
X1510600Y1528200D01*
X1509300Y1525500D01*
X1506499Y1521399D01*
X1492899Y1507699D01*
X1511999Y1507699D01*
X1425000Y1636399D02*
G01*
X1425000Y1607699D01*
X1442200Y1636399D02*
G01*
X1439499Y1635000D01*
X1436700Y1632300D01*
X1435399Y1629499D01*
X1433999Y1625500D01*
X1433999Y1618600D01*
X1435399Y1614499D01*
X1436700Y1611799D01*
X1439499Y1609099D01*
X1442200Y1607699D01*
X1447600Y1607699D01*
X1450399Y1609099D01*
X1453100Y1611799D01*
X1454499Y1614499D01*
X1455799Y1618600D01*
X1455799Y1625500D01*
X1454499Y1629499D01*
X1453100Y1632300D01*
X1450399Y1635000D01*
X1447600Y1636399D01*
X1442200Y1636399D01*
X1466199Y1629499D02*
G01*
X1466199Y1630900D01*
X1467500Y1633600D01*
X1468900Y1635000D01*
X1471599Y1636399D01*
X1477100Y1636399D01*
X1479799Y1635000D01*
X1481199Y1633600D01*
X1482500Y1630900D01*
X1482500Y1628200D01*
X1481199Y1625500D01*
X1478500Y1621399D01*
X1464799Y1607699D01*
X1483900Y1607699D01*
X1495600Y1636399D02*
G01*
X1510600Y1636399D01*
X1502500Y1625500D01*
X1506499Y1625500D01*
X1509300Y1624099D01*
X1510600Y1622699D01*
X1511999Y1618600D01*
X1511999Y1615900D01*
X1510600Y1611799D01*
X1507899Y1609099D01*
X1503800Y1607699D01*
X1499700Y1607699D01*
X1495600Y1609099D01*
X1494300Y1610500D01*
X1492899Y1613200D01*
X615000Y1636399D02*
G01*
X615000Y1607699D01*
X615000Y1636399D02*
G01*
X632699Y1636399D01*
X615000Y1622699D02*
G01*
X625900Y1622699D01*
X615000Y1607699D02*
G01*
X632699Y1607699D01*
X641700Y1636399D02*
G01*
X641700Y1607699D01*
X641700Y1636399D02*
G01*
X660799Y1607699D01*
X660799Y1636399D02*
G01*
X660799Y1607699D01*
X1464099Y132300D02*
G01*
X1461400Y135000D01*
X1457299Y136399D01*
X1451800Y136399D01*
X1447700Y135000D01*
X1445000Y132300D01*
X1445000Y129499D01*
X1446400Y126799D01*
X1447700Y125500D01*
X1450500Y124099D01*
X1458599Y121399D01*
X1461400Y120000D01*
X1462700Y118600D01*
X1464099Y115900D01*
X1464099Y111799D01*
X1461400Y109099D01*
X1457299Y107699D01*
X1451800Y107699D01*
X1447700Y109099D01*
X1445000Y111799D01*
X1473100Y136399D02*
G01*
X1473100Y107699D01*
X1473100Y136399D02*
G01*
X1482600Y136399D01*
X1486700Y135000D01*
X1489499Y132300D01*
X1490799Y129499D01*
X1492200Y125500D01*
X1492200Y118600D01*
X1490799Y114499D01*
X1489499Y111799D01*
X1486700Y109099D01*
X1482600Y107699D01*
X1473100Y107699D01*
X1501199Y130900D02*
G01*
X1503900Y132300D01*
X1508000Y136399D01*
X1508000Y107699D01*
X1464099Y32300D02*
G01*
X1461400Y35000D01*
X1457299Y36399D01*
X1451800Y36399D01*
X1447700Y35000D01*
X1445000Y32300D01*
X1445000Y29499D01*
X1446400Y26799D01*
X1447700Y25500D01*
X1450500Y24099D01*
X1458599Y21399D01*
X1461400Y20000D01*
X1462700Y18600D01*
X1464099Y15900D01*
X1464099Y11799D01*
X1461400Y9099D01*
X1457299Y7699D01*
X1451800Y7699D01*
X1447700Y9099D01*
X1445000Y11799D01*
X1473100Y36399D02*
G01*
X1473100Y7699D01*
X1473100Y36399D02*
G01*
X1482600Y36399D01*
X1486700Y35000D01*
X1489499Y32300D01*
X1490799Y29499D01*
X1492200Y25500D01*
X1492200Y18600D01*
X1490799Y14499D01*
X1489499Y11799D01*
X1486700Y9099D01*
X1482600Y7699D01*
X1473100Y7699D01*
X1509399Y36399D02*
G01*
X1505299Y35000D01*
X1502500Y30900D01*
X1501199Y24099D01*
X1501199Y20000D01*
X1502500Y13200D01*
X1505299Y9099D01*
X1509399Y7699D01*
X1512100Y7699D01*
X1516199Y9099D01*
X1518900Y13200D01*
X1520299Y20000D01*
X1520299Y24099D01*
X1518900Y30900D01*
X1516199Y35000D01*
X1512100Y36399D01*
X1509399Y36399D01*
X1455500Y1729499D02*
G01*
X1454099Y1732300D01*
X1451400Y1735000D01*
X1448599Y1736399D01*
X1443199Y1736399D01*
X1440500Y1735000D01*
X1437700Y1732300D01*
X1436400Y1729499D01*
X1435000Y1725500D01*
X1435000Y1718600D01*
X1436400Y1714499D01*
X1437700Y1711799D01*
X1440500Y1709099D01*
X1443199Y1707699D01*
X1448599Y1707699D01*
X1451400Y1709099D01*
X1454099Y1711799D01*
X1455500Y1714499D01*
X1455500Y1718600D01*
X1448599Y1718600D02*
G01*
X1455500Y1718600D01*
X1464499Y1736399D02*
G01*
X1464499Y1707699D01*
X1464499Y1736399D02*
G01*
X1483500Y1707699D01*
X1483500Y1736399D02*
G01*
X1483500Y1707699D01*
X1492500Y1736399D02*
G01*
X1492500Y1707699D01*
X1492500Y1736399D02*
G01*
X1502100Y1736399D01*
X1506199Y1735000D01*
X1508900Y1732300D01*
X1510299Y1729499D01*
X1511599Y1725500D01*
X1511599Y1718600D01*
X1510299Y1714499D01*
X1508900Y1711799D01*
X1506199Y1709099D01*
X1502100Y1707699D01*
X1492500Y1707699D01*
X617699Y1736399D02*
G01*
X632699Y1736399D01*
X624499Y1725500D01*
X628600Y1725500D01*
X631399Y1724099D01*
X632699Y1722699D01*
X634099Y1718600D01*
X634099Y1715900D01*
X632699Y1711799D01*
X630000Y1709099D01*
X625900Y1707699D01*
X621799Y1707699D01*
X617699Y1709099D01*
X616399Y1710500D01*
X615000Y1713200D01*
X643099Y1736399D02*
G01*
X654000Y1707699D01*
X664899Y1736399D02*
G01*
X654000Y1707699D01*
X676599Y1736399D02*
G01*
X691599Y1736399D01*
X683499Y1725500D01*
X687500Y1725500D01*
X690300Y1724099D01*
X691599Y1722699D01*
X693000Y1718600D01*
X693000Y1715900D01*
X691599Y1711799D01*
X688899Y1709099D01*
X684800Y1707699D01*
X680700Y1707699D01*
X676599Y1709099D01*
X675300Y1710500D01*
X673899Y1713200D01*
X634099Y132300D02*
G01*
X631399Y135000D01*
X627300Y136399D01*
X621799Y136399D01*
X617699Y135000D01*
X615000Y132300D01*
X615000Y129499D01*
X616399Y126799D01*
X617699Y125500D01*
X620500Y124099D01*
X628600Y121399D01*
X631399Y120000D01*
X632699Y118600D01*
X634099Y115900D01*
X634099Y111799D01*
X631399Y109099D01*
X627300Y107699D01*
X621799Y107699D01*
X617699Y109099D01*
X615000Y111799D01*
X643099Y136399D02*
G01*
X643099Y107699D01*
X643099Y136399D02*
G01*
X652600Y136399D01*
X656700Y135000D01*
X659499Y132300D01*
X660799Y129499D01*
X662199Y125500D01*
X662199Y118600D01*
X660799Y114499D01*
X659499Y111799D01*
X656700Y109099D01*
X652600Y107699D01*
X643099Y107699D01*
X673899Y136399D02*
G01*
X688899Y136399D01*
X680700Y125500D01*
X684800Y125500D01*
X687500Y124099D01*
X688899Y122699D01*
X690300Y118600D01*
X690300Y115900D01*
X688899Y111799D01*
X686199Y109099D01*
X682100Y107699D01*
X678000Y107699D01*
X673899Y109099D01*
X672500Y110500D01*
X671199Y113200D01*
X635500Y29499D02*
G01*
X634099Y32300D01*
X631399Y35000D01*
X628600Y36399D01*
X623200Y36399D01*
X620500Y35000D01*
X617699Y32300D01*
X616399Y29499D01*
X615000Y25500D01*
X615000Y18600D01*
X616399Y14499D01*
X617699Y11799D01*
X620500Y9099D01*
X623200Y7699D01*
X628600Y7699D01*
X631399Y9099D01*
X634099Y11799D01*
X635500Y14499D01*
X644499Y36399D02*
G01*
X644499Y7699D01*
X644499Y36399D02*
G01*
X655399Y7699D01*
X666300Y36399D02*
G01*
X655399Y7699D01*
X666300Y36399D02*
G01*
X666300Y7699D01*
X675300Y36399D02*
G01*
X675300Y7699D01*
X675300Y36399D02*
G01*
X684800Y36399D01*
X688899Y35000D01*
X691599Y32300D01*
X693000Y29499D01*
X694400Y25500D01*
X694400Y18600D01*
X693000Y14499D01*
X691599Y11799D01*
X688899Y9099D01*
X684800Y7699D01*
X675300Y7699D01*
X795000Y217699D02*
G01*
X795000Y172600D01*
X795000Y217699D02*
G01*
X822899Y217699D01*
X795000Y196199D02*
G01*
X812200Y196199D01*
X795000Y172600D02*
G01*
X822899Y172600D01*
X867200Y211199D02*
G01*
X862899Y215500D01*
X856400Y217699D01*
X847799Y217699D01*
X841400Y215500D01*
X837100Y211199D01*
X837100Y206900D01*
X839200Y202600D01*
X841400Y200500D01*
X845699Y198299D01*
X858599Y194099D01*
X862899Y191900D01*
X865000Y189800D01*
X867200Y185500D01*
X867200Y179000D01*
X862899Y174699D01*
X856400Y172600D01*
X847799Y172600D01*
X841400Y174699D01*
X837100Y179000D01*
X881300Y217699D02*
G01*
X881300Y172600D01*
X881300Y217699D02*
G01*
X900699Y217699D01*
X907100Y215500D01*
X909200Y213400D01*
X911400Y209099D01*
X911400Y202600D01*
X909200Y198299D01*
X907100Y196199D01*
X900699Y194099D01*
X881300Y194099D01*
X929899Y217699D02*
G01*
X953500Y217699D01*
X940600Y200500D01*
X946999Y200500D01*
X951300Y198299D01*
X953500Y196199D01*
X955600Y189800D01*
X955600Y185500D01*
X953500Y179000D01*
X949200Y174699D01*
X942700Y172600D01*
X936300Y172600D01*
X929899Y174699D01*
X927700Y176900D01*
X925600Y181199D01*
X971999Y206900D02*
G01*
X971999Y209099D01*
X974099Y213400D01*
X976199Y215500D01*
X980500Y217699D01*
X989099Y217699D01*
X993400Y215500D01*
X995600Y213400D01*
X997700Y209099D01*
X997700Y204800D01*
X995600Y200500D01*
X991300Y194099D01*
X969799Y172600D01*
X999899Y172600D01*
X1013999Y191900D02*
G01*
X1052700Y191900D01*
X1066899Y217699D02*
G01*
X1077600Y172600D01*
X1088299Y217699D02*
G01*
X1077600Y172600D01*
X1088299Y217699D02*
G01*
X1099099Y172600D01*
X1109799Y217699D02*
G01*
X1099099Y172600D01*
X1123999Y217699D02*
G01*
X1123999Y172600D01*
X1123999Y217699D02*
G01*
X1143299Y217699D01*
X1149799Y215500D01*
X1151899Y213400D01*
X1154099Y209099D01*
X1154099Y204800D01*
X1151899Y200500D01*
X1149799Y198299D01*
X1143299Y196199D01*
X1123999Y196199D01*
X1138999Y196199D02*
G01*
X1154099Y172600D01*
X1181099Y217699D02*
G01*
X1176800Y215500D01*
X1172500Y211199D01*
X1170399Y206900D01*
X1168199Y200500D01*
X1168199Y189800D01*
X1170399Y183299D01*
X1172500Y179000D01*
X1176800Y174699D01*
X1181099Y172600D01*
X1189700Y172600D01*
X1193999Y174699D01*
X1198299Y179000D01*
X1200399Y183299D01*
X1202600Y189800D01*
X1202600Y200500D01*
X1200399Y206900D01*
X1198299Y211199D01*
X1193999Y215500D01*
X1189700Y217699D01*
X1181099Y217699D01*
X1216800Y217699D02*
G01*
X1233900Y172600D01*
X1251099Y217699D02*
G01*
X1233900Y172600D01*
X1265299Y217699D02*
G01*
X1265299Y172600D01*
X1265299Y217699D02*
G01*
X1293199Y217699D01*
X1265299Y196199D02*
G01*
X1282500Y196199D01*
X1265299Y172600D02*
G01*
X1293199Y172600D01*
X1307399Y217699D02*
G01*
X1307399Y172600D01*
X1307399Y217699D02*
G01*
X1326700Y217699D01*
X1333199Y215500D01*
X1335299Y213400D01*
X1337399Y209099D01*
X1337399Y204800D01*
X1335299Y200500D01*
X1333199Y198299D01*
X1326700Y196199D01*
X1307399Y196199D01*
X1322399Y196199D02*
G01*
X1337399Y172600D01*
X993400Y130399D02*
G01*
X993400Y85300D01*
X993400Y130399D02*
G01*
X1008500Y130399D01*
X1014899Y128299D01*
X1019200Y124000D01*
X1021300Y119699D01*
X1023500Y113200D01*
X1023500Y102500D01*
X1021300Y96100D01*
X1019200Y91799D01*
X1014899Y87500D01*
X1008500Y85300D01*
X993400Y85300D01*
X1037700Y130399D02*
G01*
X1037700Y85300D01*
X1037700Y130399D02*
G01*
X1065600Y130399D01*
X1037700Y109000D02*
G01*
X1054799Y109000D01*
X1037700Y85300D02*
G01*
X1065600Y85300D01*
X1079799Y130399D02*
G01*
X1096899Y85300D01*
X1114099Y130399D02*
G01*
X1096899Y85300D01*
X1465500Y-70500D02*
G01*
X1464099Y-67699D01*
X1461400Y-65000D01*
X1458599Y-63600D01*
X1453199Y-63600D01*
X1450500Y-65000D01*
X1447700Y-67699D01*
X1446400Y-70500D01*
X1445000Y-74499D01*
X1445000Y-81399D01*
X1446400Y-85500D01*
X1447700Y-88200D01*
X1450500Y-90900D01*
X1453199Y-92300D01*
X1458599Y-92300D01*
X1461400Y-90900D01*
X1464099Y-88200D01*
X1465500Y-85500D01*
X1474499Y-63600D02*
G01*
X1474499Y-92300D01*
X1474499Y-92300D02*
G01*
X1490799Y-92300D01*
X1499799Y-63600D02*
G01*
X1499799Y-92300D01*
X1518900Y-63600D02*
G01*
X1499799Y-82699D01*
X1506599Y-75900D02*
G01*
X1518900Y-92300D01*
X631399Y-63600D02*
G01*
X617699Y-63600D01*
X616399Y-75900D01*
X617699Y-74499D01*
X621799Y-73200D01*
X625900Y-73200D01*
X630000Y-74499D01*
X632699Y-77300D01*
X634099Y-81399D01*
X634099Y-84099D01*
X632699Y-88200D01*
X630000Y-90900D01*
X625900Y-92300D01*
X621799Y-92300D01*
X617699Y-90900D01*
X616399Y-89499D01*
X615000Y-86799D01*
X643099Y-63600D02*
G01*
X654000Y-92300D01*
X664899Y-63600D02*
G01*
X654000Y-92300D01*
X631399Y-163600D02*
G01*
X617699Y-163600D01*
X616399Y-175900D01*
X617699Y-174499D01*
X621799Y-173200D01*
X625900Y-173200D01*
X630000Y-174499D01*
X632699Y-177300D01*
X634099Y-181399D01*
X634099Y-184099D01*
X632699Y-188200D01*
X630000Y-190900D01*
X625900Y-192300D01*
X621799Y-192300D01*
X617699Y-190900D01*
X616399Y-189499D01*
X615000Y-186799D01*
X643099Y-163600D02*
G01*
X654000Y-192300D01*
X664899Y-163600D02*
G01*
X654000Y-192300D01*
X1465500Y-170500D02*
G01*
X1464099Y-167699D01*
X1461400Y-165000D01*
X1458599Y-163600D01*
X1453199Y-163600D01*
X1450500Y-165000D01*
X1447700Y-167699D01*
X1446400Y-170500D01*
X1445000Y-174499D01*
X1445000Y-181399D01*
X1446400Y-185500D01*
X1447700Y-188200D01*
X1450500Y-190900D01*
X1453199Y-192300D01*
X1458599Y-192300D01*
X1461400Y-190900D01*
X1464099Y-188200D01*
X1465500Y-185500D01*
X1465500Y-181399D01*
X1458599Y-181399D02*
G01*
X1465500Y-181399D01*
X1474499Y-163600D02*
G01*
X1474499Y-192300D01*
X1474499Y-163600D02*
G01*
X1493500Y-192300D01*
X1493500Y-163600D02*
G01*
X1493500Y-192300D01*
X1502500Y-163600D02*
G01*
X1502500Y-192300D01*
X1502500Y-163600D02*
G01*
X1512100Y-163600D01*
X1516199Y-165000D01*
X1518900Y-167699D01*
X1520299Y-170500D01*
X1521599Y-174499D01*
X1521599Y-181399D01*
X1520299Y-185500D01*
X1518900Y-188200D01*
X1516199Y-190900D01*
X1512100Y-192300D01*
X1502500Y-192300D01*
X879200Y417699D02*
G01*
X877500Y420900D01*
X874300Y424099D01*
X871099Y425799D01*
X864700Y425799D01*
X861400Y424099D01*
X858199Y420900D01*
X856599Y417699D01*
X855000Y412899D01*
X855000Y404800D01*
X856599Y400000D01*
X858199Y396799D01*
X861400Y393499D01*
X864700Y391900D01*
X871099Y391900D01*
X874300Y393499D01*
X877500Y396799D01*
X879200Y400000D01*
X909099Y414499D02*
G01*
X909099Y391900D01*
X909099Y409600D02*
G01*
X905900Y412899D01*
X902700Y414499D01*
X897799Y414499D01*
X894600Y412899D01*
X891400Y409600D01*
X889799Y404800D01*
X889799Y401599D01*
X891400Y396799D01*
X894600Y393499D01*
X897799Y391900D01*
X902700Y391900D01*
X905900Y393499D01*
X909099Y396799D01*
X919700Y414499D02*
G01*
X919700Y391900D01*
X919700Y408000D02*
G01*
X924600Y412899D01*
X927799Y414499D01*
X932600Y414499D01*
X935900Y412899D01*
X937500Y408000D01*
X937500Y391900D01*
X937500Y408000D02*
G01*
X942299Y412899D01*
X945500Y414499D01*
X950299Y414499D01*
X953599Y412899D01*
X955200Y408000D01*
X955200Y391900D01*
X965799Y404800D02*
G01*
X985100Y404800D01*
X985100Y408000D01*
X983500Y411300D01*
X981899Y412899D01*
X978699Y414499D01*
X973900Y414499D01*
X970600Y412899D01*
X967399Y409600D01*
X965799Y404800D01*
X965799Y401599D01*
X967399Y396799D01*
X970600Y393499D01*
X973900Y391900D01*
X978699Y391900D01*
X981899Y393499D01*
X985100Y396799D01*
X995799Y414499D02*
G01*
X995799Y391900D01*
X995799Y404800D02*
G01*
X997399Y409600D01*
X1000600Y412899D01*
X1003800Y414499D01*
X1008699Y414499D01*
X1038599Y414499D02*
G01*
X1038599Y391900D01*
X1038599Y409600D02*
G01*
X1035399Y412899D01*
X1032200Y414499D01*
X1027299Y414499D01*
X1024099Y412899D01*
X1020900Y409600D01*
X1019300Y404800D01*
X1019300Y401599D01*
X1020900Y396799D01*
X1024099Y393499D01*
X1027299Y391900D01*
X1032200Y391900D01*
X1035399Y393499D01*
X1038599Y396799D01*
X1083699Y425799D02*
G01*
X1080500Y424099D01*
X1077299Y420900D01*
X1075699Y417699D01*
X1073999Y412899D01*
X1073999Y404800D01*
X1075699Y400000D01*
X1077299Y396799D01*
X1080500Y393499D01*
X1083699Y391900D01*
X1090100Y391900D01*
X1093400Y393499D01*
X1096599Y396799D01*
X1098199Y400000D01*
X1099799Y404800D01*
X1099799Y412899D01*
X1098199Y417699D01*
X1096599Y420900D01*
X1093400Y424099D01*
X1090100Y425799D01*
X1083699Y425799D01*
X1110399Y425799D02*
G01*
X1123299Y391900D01*
X1136199Y425799D02*
G01*
X1123299Y391900D01*
X1148400Y417699D02*
G01*
X1148400Y419299D01*
X1150100Y422500D01*
X1151700Y424099D01*
X1154899Y425799D01*
X1161300Y425799D01*
X1164600Y424099D01*
X1166199Y422500D01*
X1167799Y419299D01*
X1167799Y416100D01*
X1166199Y412899D01*
X1162899Y408000D01*
X1146800Y391900D01*
X1169399Y391900D01*
X1199300Y420900D02*
G01*
X1197700Y424099D01*
X1192899Y425799D01*
X1189700Y425799D01*
X1184799Y424099D01*
X1181599Y419299D01*
X1180000Y411300D01*
X1180000Y403200D01*
X1181599Y396799D01*
X1184799Y393499D01*
X1189700Y391900D01*
X1191300Y391900D01*
X1196099Y393499D01*
X1199300Y396799D01*
X1201000Y401599D01*
X1201000Y403200D01*
X1199300Y408000D01*
X1196099Y411300D01*
X1191300Y412899D01*
X1189700Y412899D01*
X1184799Y411300D01*
X1181599Y408000D01*
X1180000Y403200D01*
X1227700Y425799D02*
G01*
X1211599Y403200D01*
X1235699Y403200D01*
X1227700Y425799D02*
G01*
X1227700Y391900D01*
X1256000Y425799D02*
G01*
X1251199Y424099D01*
X1248000Y419299D01*
X1246400Y411300D01*
X1246400Y406399D01*
X1248000Y398400D01*
X1251199Y393499D01*
X1256000Y391900D01*
X1259300Y391900D01*
X1264099Y393499D01*
X1267299Y398400D01*
X1268900Y406399D01*
X1268900Y411300D01*
X1267299Y419299D01*
X1264099Y424099D01*
X1259300Y425799D01*
X1256000Y425799D01*
G36*
X585000Y2035000D02*
G01*
X585000Y1855000D01*
X589520Y1859300D01*
X593820Y1863820D01*
X597880Y1868560D01*
X601680Y1873520D01*
X605240Y1878640D01*
X608520Y1883959D01*
X611520Y1889420D01*
X614240Y1895040D01*
X616660Y1900800D01*
X618780Y1906660D01*
X620600Y1912640D01*
X622120Y1918680D01*
X623300Y1924820D01*
X624180Y1930980D01*
X624740Y1937200D01*
X624980Y1943440D01*
X624900Y1949680D01*
X624500Y1955900D01*
X623780Y1962100D01*
X622740Y1968260D01*
X622120Y1971320D01*
X620600Y1977360D01*
X618780Y1983340D01*
X616660Y1989199D01*
X614240Y1994960D01*
X611520Y2000580D01*
X608520Y2006040D01*
X605240Y2011360D01*
X601680Y2016480D01*
X597880Y2021440D01*
X593820Y2026180D01*
X589520Y2030700D01*
G37*
D12*
X2477007Y723503D02*
G01*
X2602992Y723503D01*
X2477007Y786496D02*
G01*
X2477007Y723503D01*
X2602992Y786496D02*
G01*
X2602992Y723503D01*
X2602992Y786496D02*
G01*
X2477007Y786496D01*
D11*
X1945000Y-140000D02*
G01*
X2045000Y-140000D01*
X2045000Y-239000D01*
X1745000Y-239000D01*
X1745000Y-140000D01*
X1945000Y-140000D01*
X2390000Y-140000D02*
G01*
X2490000Y-140000D01*
X2490000Y-239000D01*
X2190000Y-239000D01*
X2190000Y-140000D01*
X2390000Y-140000D01*
X2860000Y-145000D02*
G01*
X2960000Y-145000D01*
X2960000Y-244000D01*
X2660000Y-244000D01*
X2660000Y-145000D01*
X2860000Y-145000D01*
X2900000Y365000D02*
G01*
X2900000Y465000D01*
X2998999Y465000D01*
X2998999Y165000D01*
X2900000Y165000D01*
X2900000Y365000D01*
X2900000Y840000D02*
G01*
X2900000Y940000D01*
X2998999Y940000D01*
X2998999Y640000D01*
X2900000Y640000D01*
X2900000Y840000D01*
X2900000Y1295000D02*
G01*
X2900000Y1395000D01*
X2998999Y1395000D01*
X2998999Y1095000D01*
X2900000Y1095000D01*
X2900000Y1295000D01*
D10*
X2341779Y983991D02*
G01*
X2379530Y983991D01*
X2379530Y1036008D01*
X2341779Y1036008D01*
X2308220Y983991D02*
G01*
X2270469Y983991D01*
X2270469Y1036008D01*
X2308220Y1036008D01*
X2351779Y1133991D02*
G01*
X2389530Y1133991D01*
X2389530Y1186008D01*
X2351779Y1186008D01*
X2318220Y1133991D02*
G01*
X2280469Y1133991D01*
X2280469Y1186008D01*
X2318220Y1186008D01*
X2351779Y1288991D02*
G01*
X2389530Y1288991D01*
X2389530Y1341008D01*
X2351779Y1341008D01*
X2318220Y1288991D02*
G01*
X2280469Y1288991D01*
X2280469Y1341008D01*
X2318220Y1341008D01*
X1875101Y1443276D02*
G01*
X1994897Y1443276D01*
X1994897Y1096723D01*
X1875101Y1096723D01*
X1875101Y1443276D01*
X2279735Y266055D02*
G01*
X2140254Y266055D01*
X2140254Y653944D01*
X2279735Y653944D01*
X2279735Y266055D01*
D12*
X353503Y287991D02*
G01*
X353503Y162008D01*
X416496Y287991D02*
G01*
X353503Y287991D01*
X416496Y162008D02*
G01*
X353503Y162008D01*
X416496Y162008D02*
G01*
X416496Y287991D01*
D11*
X1780000Y950000D02*
G01*
X1880000Y950000D01*
X1880000Y550000D01*
X1780000Y550000D01*
X1780000Y625000D01*
D13*
X1780000Y950000D02*
G01*
X1780000Y625000D01*
D11*
X1795000Y395000D02*
G01*
X1895000Y395000D01*
X1895000Y-5000D01*
X1795000Y-5000D01*
X1795000Y70000D01*
D13*
X1795000Y395000D02*
G01*
X1795000Y70000D01*
D12*
X450000Y2025000D02*
G01*
X450000Y1985000D01*
X430000Y2005000D02*
G01*
X470000Y2005000D01*
X2592449Y969949D02*
G01*
X2653450Y969949D01*
X2653450Y1049949D01*
X2592449Y1049949D01*
X2561450Y968949D02*
G01*
X2503450Y968949D01*
X2487449Y984949D01*
X2487449Y1034949D01*
X2502449Y1049949D01*
X2562449Y1049949D01*
X2582874Y1029684D02*
G01*
X2582874Y990304D01*
X2578940Y1010000D02*
G01*
X2568350Y1010000D01*
X2592449Y1134949D02*
G01*
X2653450Y1134949D01*
X2653450Y1214949D01*
X2592449Y1214949D01*
X2561450Y1133949D02*
G01*
X2503450Y1133949D01*
X2487449Y1149949D01*
X2487449Y1199949D01*
X2502449Y1214949D01*
X2562449Y1214949D01*
X2582874Y1194684D02*
G01*
X2582874Y1155304D01*
X2578940Y1175000D02*
G01*
X2568350Y1175000D01*
X2592449Y1274949D02*
G01*
X2653450Y1274949D01*
X2653450Y1354949D01*
X2592449Y1354949D01*
X2561450Y1273949D02*
G01*
X2503450Y1273949D01*
X2487449Y1289949D01*
X2487449Y1339949D01*
X2502449Y1354949D01*
X2562449Y1354949D01*
X2582874Y1334684D02*
G01*
X2582874Y1295304D01*
X2578940Y1315000D02*
G01*
X2568350Y1315000D01*
D11*
X2575000Y1665000D02*
G01*
X2500000Y1665000D01*
X2500000Y1565000D01*
X3100000Y1565000D01*
X3100000Y1665000D01*
D13*
X3100000Y1665000D02*
G01*
X2575000Y1665000D01*
D11*
X345000Y-20000D02*
G01*
X444000Y-20000D01*
X444000Y-220000D01*
X345000Y-220000D01*
X345000Y-20000D01*
X2395000Y2005000D02*
G01*
X2395000Y1905000D01*
X1595000Y1905000D01*
X1595000Y2005000D01*
X1670000Y2005000D01*
D13*
X2395000Y2005000D02*
G01*
X1670000Y2005000D01*
D11*
X1375000Y2020000D02*
G01*
X1375000Y820000D01*
X765000Y2020000D02*
G01*
X765000Y820000D01*
X1375000Y2020000D02*
G01*
X765000Y2020000D01*
D14*
X1315000Y1990000D02*
G01*
X1314951Y1849971D01*
X1245000Y1990000D02*
G01*
X1244951Y1849971D01*
X805000Y1990000D02*
G01*
X805000Y1860000D01*
X805000Y1990000D02*
G01*
X815000Y1990000D01*
X885000Y1990000D01*
X885000Y1900000D01*
X975000Y1900000D01*
X975000Y1990000D01*
X1065000Y1990000D01*
X1065000Y1900000D01*
X1155000Y1900000D01*
X1155000Y1990000D01*
X1315000Y1990000D01*
D11*
X1325000Y1620000D02*
G01*
X1195000Y1620000D01*
X1195000Y1720000D02*
G01*
X1195000Y1620000D01*
X1195000Y1720000D02*
G01*
X825000Y1720000D01*
X1325000Y1620000D02*
G01*
X1325000Y899299D01*
X825000Y1720000D02*
G01*
X825000Y899299D01*
X1325000Y899299D02*
G01*
X825000Y899299D01*
X1375000Y820000D02*
G01*
X765000Y820000D01*
X515000Y-230000D02*
G01*
X515000Y1770000D01*
X1615000Y1770000D02*
G01*
X515000Y1770000D01*
D15*
X515000Y-228499D02*
G01*
X915000Y-228499D01*
X1215000Y-228499D02*
G01*
X1615000Y-228499D01*
X915000Y-228499D02*
G01*
X915000Y-268499D01*
X1215000Y-268499D01*
X1215000Y-228499D01*
X1215000Y-228499D02*
G01*
X1215000Y-18499D01*
X915000Y-18499D01*
X915000Y-228499D01*
X1615000Y-230000D02*
G01*
X1615000Y1770000D01*
D12*
X765000Y470000D02*
G01*
X1365000Y470000D01*
X1365000Y340000D01*
X765000Y340000D01*
X765000Y470000D01*
D16*
G75*
G01
X1910630Y1420000D02*
G03X1910630Y1420000I-5910J0D01*
G75*
G01
X1831890Y1449110D02*
G03X1831890Y1449110I-5910J0D01*
G75*
G01
X2256030Y293660D02*
G03X2256030Y293660I-5910J0D01*
G75*
G01
X2328740Y269100D02*
G03X2328740Y269100I-5910J0D01*
D12*
G75*
G01
X624000Y1945000D02*
G03X624000Y1945000I-124000J0D01*
G75*
G01
X1315000Y1680000D02*
G03X1315000Y1680000I-30000J0D01*
M02*
