G04 Layer: TopPasteMaskLayer*
G04 EasyEDA v6.5.22, 2022-12-01 15:05:32*
G04 f9cf6ae4047b4148b17f980a7d3d99a3,3377a35bda5640eaacad09db658d017c,10*
G04 Gerber Generator version 0.2*
G04 Scale: 100 percent, Rotated: No, Reflected: No *
G04 Dimensions in inches *
G04 leading zeros omitted , absolute positions ,3 integer and 6 decimal *
%FSLAX36Y36*%
%MOIN*%

%ADD10R,0.0354X0.0630*%
%ADD11O,0.080236X0.022597999999999997*%
%ADD12O,0.06816900000000001X0.013504*%
%ADD13R,0.0630X0.0354*%
%ADD14R,0.0394X0.0551*%

%LPD*%
G36*
X2340560Y1027720D02*
G01*
X2338580Y1025740D01*
X2338580Y1016780D01*
X2353140Y1016780D01*
X2353140Y1003780D01*
X2338580Y1003780D01*
X2338580Y994260D01*
X2340560Y992280D01*
X2372040Y992280D01*
X2374020Y994260D01*
X2374020Y1025740D01*
X2372040Y1027720D01*
G37*
G36*
X2277960Y1027720D02*
G01*
X2275980Y1025740D01*
X2275980Y994260D01*
X2277960Y992280D01*
X2309060Y992280D01*
X2311020Y994260D01*
X2311020Y1003780D01*
X2296060Y1003780D01*
X2296060Y1016780D01*
X2311020Y1016780D01*
X2311020Y1025740D01*
X2309060Y1027720D01*
G37*
G36*
X2350560Y1177720D02*
G01*
X2348580Y1175740D01*
X2348580Y1166780D01*
X2363140Y1166780D01*
X2363140Y1153780D01*
X2348580Y1153780D01*
X2348580Y1144260D01*
X2350560Y1142280D01*
X2382040Y1142280D01*
X2384020Y1144260D01*
X2384020Y1175740D01*
X2382040Y1177720D01*
G37*
G36*
X2287960Y1177720D02*
G01*
X2285980Y1175740D01*
X2285980Y1144260D01*
X2287960Y1142280D01*
X2319060Y1142280D01*
X2321020Y1144260D01*
X2321020Y1153780D01*
X2306060Y1153780D01*
X2306060Y1166780D01*
X2321020Y1166780D01*
X2321020Y1175740D01*
X2319060Y1177720D01*
G37*
G36*
X2350560Y1332720D02*
G01*
X2348580Y1330740D01*
X2348580Y1321780D01*
X2363140Y1321780D01*
X2363140Y1308779D01*
X2348580Y1308779D01*
X2348580Y1299259D01*
X2350560Y1297280D01*
X2382040Y1297280D01*
X2384020Y1299259D01*
X2384020Y1330740D01*
X2382040Y1332720D01*
G37*
G36*
X2287960Y1332720D02*
G01*
X2285980Y1330740D01*
X2285980Y1299259D01*
X2287960Y1297280D01*
X2319060Y1297280D01*
X2321020Y1299259D01*
X2321020Y1308779D01*
X2306060Y1308779D01*
X2306060Y1321780D01*
X2321020Y1321780D01*
X2321020Y1330740D01*
X2319060Y1332720D01*
G37*
D10*
G01*
X2478980Y755000D03*
G01*
X2601019Y755000D03*
D11*
G01*
X1825979Y1420000D03*
G01*
X1825979Y1370000D03*
G01*
X1825979Y1320000D03*
G01*
X1825979Y1270000D03*
G01*
X1825979Y1220000D03*
G01*
X1825979Y1170000D03*
G01*
X1825979Y1120000D03*
G01*
X2044020Y1420000D03*
G01*
X2044020Y1370000D03*
G01*
X2044020Y1320000D03*
G01*
X2044020Y1270000D03*
G01*
X2044020Y1220000D03*
G01*
X2044020Y1170000D03*
G01*
X2044020Y1120000D03*
D12*
G01*
X2322830Y293659D03*
G01*
X2322830Y319250D03*
G01*
X2322830Y344839D03*
G01*
X2322830Y370430D03*
G01*
X2322830Y396019D03*
G01*
X2322830Y421610D03*
G01*
X2322830Y447210D03*
G01*
X2322830Y472800D03*
G01*
X2322830Y498389D03*
G01*
X2322830Y523980D03*
G01*
X2322830Y549569D03*
G01*
X2322830Y575160D03*
G01*
X2322830Y600749D03*
G01*
X2322830Y626340D03*
G01*
X2097179Y293659D03*
G01*
X2097179Y319250D03*
G01*
X2097179Y344839D03*
G01*
X2097179Y370430D03*
G01*
X2097179Y396019D03*
G01*
X2097179Y421610D03*
G01*
X2097179Y447210D03*
G01*
X2097179Y472800D03*
G01*
X2097179Y498389D03*
G01*
X2097179Y523980D03*
G01*
X2097179Y549569D03*
G01*
X2097179Y575160D03*
G01*
X2097179Y600749D03*
G01*
X2097179Y626340D03*
D13*
G01*
X385000Y286019D03*
G01*
X385000Y163980D03*
D14*
G01*
X2616350Y1010000D03*
G01*
X2533649Y1010000D03*
G01*
X2616350Y1175000D03*
G01*
X2533649Y1175000D03*
G01*
X2616350Y1315000D03*
G01*
X2533649Y1315000D03*
M02*
