G04 Layer: TopSolderMaskLayer*
G04 EasyEDA v6.5.22, 2022-12-01 15:05:32*
G04 f9cf6ae4047b4148b17f980a7d3d99a3,3377a35bda5640eaacad09db658d017c,10*
G04 Gerber Generator version 0.2*
G04 Scale: 100 percent, Rotated: No, Reflected: No *
G04 Dimensions in inches *
G04 leading zeros omitted , absolute positions ,3 integer and 6 decimal *
%FSLAX36Y36*%
%MOIN*%

%AMMACRO1*1,1,$1,$2,$3*1,1,$1,$4,$5*1,1,$1,0-$2,0-$3*1,1,$1,0-$4,0-$5*20,1,$1,$2,$3,$4,$5,0*20,1,$1,$4,$5,0-$2,0-$3,0*20,1,$1,0-$2,0-$3,0-$4,0-$5,0*20,1,$1,0-$4,0-$5,$2,$3,0*4,1,4,$2,$3,$4,$5,0-$2,0-$3,0-$4,0-$5,$2,$3,0*%
%ADD10MACRO1,0.004X-0.0177X0.0315X0.0177X0.0315*%
%ADD11MACRO1,0.004X-0.031X0.031X0.031X0.031*%
%ADD12C,0.0660*%
%ADD13R,0.0660X0.0660*%
%ADD14MACRO1,0.004X-0.0159X-0.017X-0.0159X0.017*%
%ADD15MACRO1,0.004X0.0159X-0.017X0.0159X0.017*%
%ADD16O,0.084236X0.026597999999999997*%
%ADD17O,0.07216900000000001X0.017504*%
%ADD18MACRO1,0.004X0.0315X0.0177X0.0315X-0.0177*%
%ADD19C,0.0670*%
%ADD20MACRO1,0.004X0.0197X-0.0276X-0.0197X-0.0276*%
%ADD21C,0.0709*%
%ADD22MACRO1,0.004X0.0335X-0.0335X-0.0335X-0.0335*%

%LPD*%
D10*
G01*
X2478976Y755000D03*
G01*
X2601023Y755000D03*
D11*
G01*
X1795000Y-190000D03*
D12*
G01*
X1895000Y-190000D03*
G01*
X1995000Y-190000D03*
D11*
G01*
X2240000Y-190000D03*
D12*
G01*
X2340000Y-190000D03*
G01*
X2440000Y-190000D03*
D11*
G01*
X2710000Y-195000D03*
D12*
G01*
X2810000Y-195000D03*
G01*
X2910000Y-195000D03*
D13*
G01*
X2950000Y215000D03*
D12*
G01*
X2950000Y315000D03*
G01*
X2950000Y415000D03*
D13*
G01*
X2950000Y690000D03*
D12*
G01*
X2950000Y790000D03*
G01*
X2950000Y890000D03*
D13*
G01*
X2950000Y1145000D03*
D12*
G01*
X2950000Y1245000D03*
G01*
X2950000Y1345000D03*
D14*
G01*
X2354655Y1010000D03*
D15*
G01*
X2295344Y1010000D03*
D14*
G01*
X2364655Y1160000D03*
D15*
G01*
X2305344Y1160000D03*
D14*
G01*
X2364655Y1315000D03*
D15*
G01*
X2305344Y1315000D03*
D16*
G01*
X1825979Y1420000D03*
G01*
X1825979Y1370000D03*
G01*
X1825979Y1320000D03*
G01*
X1825979Y1270000D03*
G01*
X1825979Y1220000D03*
G01*
X1825979Y1170000D03*
G01*
X1825979Y1120000D03*
G01*
X2044020Y1420000D03*
G01*
X2044020Y1370000D03*
G01*
X2044020Y1320000D03*
G01*
X2044020Y1270000D03*
G01*
X2044020Y1220000D03*
G01*
X2044020Y1170000D03*
G01*
X2044020Y1120000D03*
D17*
G01*
X2322830Y293659D03*
G01*
X2322830Y319250D03*
G01*
X2322830Y344839D03*
G01*
X2322830Y370430D03*
G01*
X2322830Y396019D03*
G01*
X2322830Y421610D03*
G01*
X2322830Y447210D03*
G01*
X2322830Y472800D03*
G01*
X2322830Y498389D03*
G01*
X2322830Y523980D03*
G01*
X2322830Y549569D03*
G01*
X2322830Y575160D03*
G01*
X2322830Y600749D03*
G01*
X2322830Y626340D03*
G01*
X2097179Y293659D03*
G01*
X2097179Y319250D03*
G01*
X2097179Y344839D03*
G01*
X2097179Y370430D03*
G01*
X2097179Y396019D03*
G01*
X2097179Y421610D03*
G01*
X2097179Y447210D03*
G01*
X2097179Y472800D03*
G01*
X2097179Y498389D03*
G01*
X2097179Y523980D03*
G01*
X2097179Y549569D03*
G01*
X2097179Y575160D03*
G01*
X2097179Y600749D03*
G01*
X2097179Y626340D03*
D18*
G01*
X385000Y286023D03*
G01*
X385000Y163976D03*
D13*
G01*
X1830000Y600000D03*
D12*
G01*
X1830000Y700000D03*
G01*
X1830000Y800000D03*
G01*
X1830000Y900000D03*
D13*
G01*
X1845000Y45000D03*
D12*
G01*
X1845000Y145000D03*
G01*
X1845000Y245000D03*
G01*
X1845000Y345000D03*
D19*
G01*
X450000Y1945000D03*
G01*
X550000Y1945000D03*
D20*
G01*
X2616350Y1010000D03*
G01*
X2533649Y1010000D03*
G01*
X2616350Y1175000D03*
G01*
X2533649Y1175000D03*
G01*
X2616350Y1315000D03*
G01*
X2533649Y1315000D03*
D12*
G01*
X3050000Y1615000D03*
G01*
X2950000Y1615000D03*
G01*
X2850000Y1615000D03*
G01*
X2750000Y1615000D03*
G01*
X2650000Y1615000D03*
D11*
G01*
X2550000Y1615000D03*
G01*
X395000Y-170000D03*
D12*
G01*
X395000Y-70000D03*
D11*
G01*
X1645000Y1955000D03*
D12*
G01*
X1745000Y1955000D03*
G01*
X1845000Y1955000D03*
G01*
X1945000Y1955000D03*
G01*
X2045000Y1955000D03*
G01*
X2145000Y1955000D03*
G01*
X2245000Y1955000D03*
G01*
X2345000Y1955000D03*
D21*
G01*
X1565000Y1620000D03*
G01*
X1565000Y1520000D03*
G01*
X1565000Y1420000D03*
G01*
X1565000Y1320000D03*
G01*
X1565000Y1220000D03*
G01*
X1565000Y1120000D03*
G01*
X1565000Y1020000D03*
G01*
X1565000Y920000D03*
G01*
X1565000Y820000D03*
G01*
X1565000Y720000D03*
G01*
X1565000Y620000D03*
G01*
X1565000Y520000D03*
G01*
X1565000Y420000D03*
G01*
X1565000Y320000D03*
G01*
X1565000Y220000D03*
G01*
X565000Y1520000D03*
G01*
X565000Y1420000D03*
G01*
X565000Y1320000D03*
G01*
X565000Y1220000D03*
G01*
X565000Y1120000D03*
G01*
X565000Y1020000D03*
G01*
X565000Y920000D03*
G01*
X565000Y820000D03*
G01*
X565000Y720000D03*
G01*
X565000Y620000D03*
G01*
X565000Y520000D03*
G01*
X565000Y420000D03*
G01*
X565000Y320000D03*
G01*
X565000Y220000D03*
G01*
X565000Y1620000D03*
G01*
X1565000Y120000D03*
G01*
X1565000Y20000D03*
D22*
G01*
X1564994Y1719994D03*
G01*
X564994Y1719994D03*
D21*
G01*
X565000Y120000D03*
G01*
X565000Y20000D03*
G01*
X1565000Y-80000D03*
G01*
X565000Y-80000D03*
G01*
X565000Y-180000D03*
G01*
X1565000Y-180000D03*
M02*
