M48
METRIC,LZ,000.000
;FILE_FORMAT=3:3
;TYPE=PLATED
;Layer: PTH_Through
;EasyEDA v6.5.22, 2023-03-21 19:31:51
;afc67292cab7459ea135deb86c664b34,e659aa28fce94fba860684ee23aa467a,10
;Gerber Generator version 0.2
;Holesize 1 = 0.889 mm
T01C0.889
;Holesize 2 = 1.000 mm
T02C1.000
;Holesize 3 = 1.101 mm
T03C1.101
;Holesize 4 = 1.301 mm
T04C1.301
%
G05
G90
T01
X057150Y099060
X059690Y099060
X062230Y099060
X064770Y099060
X057150Y091440
X059690Y091440
X062230Y091440
X064770Y091440
X063500Y078740
X060960Y078740
X058420Y078740
X076200Y078740
X073660Y078740
X071120Y078740
X099187Y127254
X096647Y127254
X094107Y127254
X091567Y127254
X089027Y127254
X086487Y127254
X101600Y083820
X101600Y081280
X101600Y078740
X101600Y093980
X101600Y091440
X101600Y088900
X101600Y104140
X101600Y101600
X101600Y099060
X055372Y136398
X057912Y136398
X060452Y136398
X062992Y136398
X065532Y136398
X068072Y136398
X070612Y136398
X073152Y136398
T02
X048006Y129159
X048006Y126619
X048006Y124079
X048006Y121539
X048006Y118999
X048006Y116459
X048006Y113919
X048006Y111379
X048006Y108839
X048006Y106299
X048006Y103759
X048006Y101219
X048006Y098679
X048006Y096139
X048006Y093599
X022606Y126619
X022606Y124079
X022606Y121539
X022606Y118999
X022606Y116459
X022606Y113919
X022606Y111379
X022606Y108839
X022606Y106299
X022606Y103759
X022606Y101219
X022606Y098679
X022606Y096139
X022606Y093599
X022606Y129159
X048006Y091059
X048006Y088519
X048006Y131699
X022606Y131699
X022606Y091059
X022606Y088519
X048006Y085979
X022606Y085979
X022606Y083439
X048006Y083439
T03
X087630Y078613
X090170Y078613
T04
X011811Y085435
X011811Y080427
M30
