G04 Layer: TopSolderMaskLayer*
G04 EasyEDA v6.5.22, 2023-03-21 19:31:51*
G04 afc67292cab7459ea135deb86c664b34,e659aa28fce94fba860684ee23aa467a,10*
G04 Gerber Generator version 0.2*
G04 Scale: 100 percent, Rotated: No, Reflected: No *
G04 Dimensions in millimeters *
G04 leading zeros omitted , absolute positions ,4 integer and 5 decimal *
%FSLAX45Y45*%
%MOMM*%

%AMMACRO1*1,1,$1,$2,$3*1,1,$1,$4,$5*1,1,$1,0-$2,0-$3*1,1,$1,0-$4,0-$5*20,1,$1,$2,$3,$4,$5,0*20,1,$1,$4,$5,0-$2,0-$3,0*20,1,$1,0-$2,0-$3,0-$4,0-$5,0*20,1,$1,0-$4,0-$5,$2,$3,0*4,1,4,$2,$3,$4,$5,0-$2,0-$3,0-$4,0-$5,$2,$3,0*%
%ADD10MACRO1,0.1016X-0.4X0.45X0.4X0.45*%
%ADD11C,2.1016*%
%ADD12MACRO1,0.1016X-0.4032X-0.432X-0.4032X0.432*%
%ADD13MACRO1,0.1016X0.4032X-0.432X0.4032X0.432*%
%ADD14C,1.8016*%
%ADD15MACRO1,0.1016X0.85X-0.85X-0.85X-0.85*%
%ADD16MACRO1,0.1016X-0.7874X0.7874X0.7874X0.7874*%
%ADD17C,1.6764*%
%ADD18MACRO1,0.1016X-0.85X0.7874X0.85X0.7874*%
%ADD19R,1.6764X1.6764*%
%ADD20MACRO1,0.1016X0.45X0.5X0.45X-0.5*%
%ADD21MACRO1,0.1016X0.35X0.625X0.35X-0.625*%
%ADD22O,1.905X0.508*%
%ADD23O,2.1395944X0.6755891999999999*%
%ADD24MACRO1,0.1016X0.4032X0.432X0.4032X-0.432*%
%ADD25MACRO1,0.1016X-0.4032X0.432X-0.4032X-0.432*%
%ADD26MACRO1,0.1016X-0.35X-0.625X-0.35X0.625*%

%LPD*%
D10*
G01*
X7435999Y10414000D03*
G01*
X7296000Y10414000D03*
G01*
X1949599Y8115300D03*
G01*
X1809600Y8115300D03*
G01*
X1428899Y13576300D03*
G01*
X1288900Y13576300D03*
D11*
G01*
X1181100Y8543544D03*
G01*
X1181100Y8042655D03*
D12*
G01*
X8457324Y11544300D03*
D13*
G01*
X8306675Y11544300D03*
D12*
G01*
X8457324Y11010900D03*
D13*
G01*
X8306675Y11010900D03*
D12*
G01*
X8457324Y10515600D03*
D13*
G01*
X8306675Y10515600D03*
D12*
G01*
X7454024Y9664700D03*
D13*
G01*
X7303375Y9664700D03*
D14*
G01*
X4800600Y12915900D03*
G01*
X4800600Y12661900D03*
G01*
X4800600Y12407900D03*
G01*
X4800600Y12153900D03*
G01*
X4800600Y11899900D03*
G01*
X4800600Y11645900D03*
G01*
X4800600Y11391900D03*
G01*
X4800600Y11137900D03*
G01*
X4800600Y10883900D03*
G01*
X4800600Y10629900D03*
G01*
X4800600Y10375900D03*
G01*
X4800600Y10121900D03*
G01*
X4800600Y9867900D03*
G01*
X4800600Y9613900D03*
G01*
X4800600Y9359900D03*
G01*
X2260600Y12661900D03*
G01*
X2260600Y12407900D03*
G01*
X2260600Y12153900D03*
G01*
X2260600Y11899900D03*
G01*
X2260600Y11645900D03*
G01*
X2260600Y11391900D03*
G01*
X2260600Y11137900D03*
G01*
X2260600Y10883900D03*
G01*
X2260600Y10629900D03*
G01*
X2260600Y10375900D03*
G01*
X2260600Y10121900D03*
G01*
X2260600Y9867900D03*
G01*
X2260600Y9613900D03*
G01*
X2260600Y9359900D03*
G01*
X2260600Y12915900D03*
G01*
X4800600Y9105900D03*
G01*
X4800600Y8851900D03*
D15*
G01*
X4800587Y13169887D03*
G01*
X2260587Y13169887D03*
D14*
G01*
X2260600Y9105900D03*
G01*
X2260600Y8851900D03*
G01*
X4800600Y8597900D03*
G01*
X2260600Y8597900D03*
G01*
X2260600Y8343900D03*
G01*
X4800600Y8343900D03*
D16*
G01*
X5715000Y9906000D03*
D17*
G01*
X5969000Y9906000D03*
G01*
X6223000Y9906000D03*
G01*
X6477000Y9906000D03*
D16*
G01*
X5715000Y9144000D03*
D17*
G01*
X5969000Y9144000D03*
G01*
X6223000Y9144000D03*
G01*
X6477000Y9144000D03*
D18*
G01*
X8763001Y7861300D03*
D14*
G01*
X9017000Y7861300D03*
D17*
G01*
X6350000Y7874000D03*
G01*
X6096000Y7874000D03*
D16*
G01*
X5842000Y7874000D03*
D17*
G01*
X7620000Y7874000D03*
G01*
X7366000Y7874000D03*
D16*
G01*
X7112000Y7874000D03*
D17*
G01*
X9918700Y12725400D03*
G01*
X9664700Y12725400D03*
G01*
X9410700Y12725400D03*
G01*
X9156700Y12725400D03*
G01*
X8902700Y12725400D03*
D16*
G01*
X8648700Y12725400D03*
D17*
G01*
X10160000Y8382000D03*
G01*
X10160000Y8128000D03*
D19*
G01*
X10160000Y7874000D03*
D17*
G01*
X10160000Y9398000D03*
G01*
X10160000Y9144000D03*
D19*
G01*
X10160000Y8890000D03*
D17*
G01*
X10160000Y10414000D03*
G01*
X10160000Y10160000D03*
D19*
G01*
X10160000Y9906000D03*
D20*
G01*
X9229059Y11544223D03*
G01*
X9059059Y11544223D03*
G01*
X9229059Y10515523D03*
G01*
X9059059Y10515523D03*
G01*
X9229059Y11010823D03*
G01*
X9059059Y11010823D03*
D21*
G01*
X8629903Y9552000D03*
G01*
X8819894Y9552000D03*
G01*
X8724898Y9751999D03*
D22*
G01*
X6030010Y11598503D03*
G01*
X6030010Y11533504D03*
G01*
X6030010Y11468480D03*
G01*
X6030010Y11403482D03*
G01*
X6030010Y11338483D03*
G01*
X6030010Y11273485D03*
G01*
X6030010Y11208486D03*
G01*
X6030010Y11143487D03*
G01*
X6030010Y11078489D03*
G01*
X6030010Y11013490D03*
G01*
X6030010Y10948492D03*
G01*
X6030010Y10883493D03*
G01*
X6030010Y10818495D03*
G01*
X6030010Y10753470D03*
G01*
X6669989Y10753470D03*
G01*
X6669989Y10818495D03*
G01*
X6669989Y10883493D03*
G01*
X6669989Y10948492D03*
G01*
X6669989Y11013490D03*
G01*
X6669989Y11078489D03*
G01*
X6669989Y11143487D03*
G01*
X6669989Y11208486D03*
G01*
X6669989Y11273485D03*
G01*
X6669989Y11338483D03*
G01*
X6669989Y11403482D03*
G01*
X6669989Y11468480D03*
G01*
X6669989Y11533479D03*
G01*
X6669989Y11598478D03*
D16*
G01*
X5537200Y13639800D03*
D17*
G01*
X5791200Y13639800D03*
G01*
X6045200Y13639800D03*
G01*
X6299200Y13639800D03*
G01*
X6553200Y13639800D03*
G01*
X6807200Y13639800D03*
G01*
X7061200Y13639800D03*
G01*
X7315200Y13639800D03*
D23*
G01*
X6073089Y12928600D03*
G01*
X6073089Y12801600D03*
G01*
X6073089Y12674600D03*
G01*
X6073089Y12547600D03*
G01*
X6073089Y12420600D03*
G01*
X6073089Y12293600D03*
G01*
X6073089Y12166600D03*
G01*
X6626910Y12928600D03*
G01*
X6626910Y12801600D03*
G01*
X6626910Y12674600D03*
G01*
X6626910Y12547600D03*
G01*
X6626910Y12420600D03*
G01*
X6626910Y12293600D03*
G01*
X6626910Y12166600D03*
D24*
G01*
X8636875Y9182100D03*
D25*
G01*
X8787524Y9182100D03*
D26*
G01*
X8108696Y9282099D03*
G01*
X7918705Y9282099D03*
G01*
X8013701Y9082100D03*
M02*
