G04 Layer: BottomSolderMaskLayer*
G04 EasyEDA v6.5.22, 2023-03-21 19:31:51*
G04 afc67292cab7459ea135deb86c664b34,e659aa28fce94fba860684ee23aa467a,10*
G04 Gerber Generator version 0.2*
G04 Scale: 100 percent, Rotated: No, Reflected: No *
G04 Dimensions in millimeters *
G04 leading zeros omitted , absolute positions ,4 integer and 5 decimal *
%FSLAX45Y45*%
%MOMM*%

%AMMACRO1*1,1,$1,$2,$3*1,1,$1,$4,$5*1,1,$1,0-$2,0-$3*1,1,$1,0-$4,0-$5*20,1,$1,$2,$3,$4,$5,0*20,1,$1,$4,$5,0-$2,0-$3,0*20,1,$1,0-$2,0-$3,0-$4,0-$5,0*20,1,$1,0-$4,0-$5,$2,$3,0*4,1,4,$2,$3,$4,$5,0-$2,0-$3,0-$4,0-$5,$2,$3,0*%
%ADD10C,2.1016*%
%ADD11C,1.8016*%
%ADD12MACRO1,0.1016X0.85X-0.85X-0.85X-0.85*%
%ADD13MACRO1,0.1016X-0.7874X0.7874X0.7874X0.7874*%
%ADD14C,1.6764*%
%ADD15MACRO1,0.1016X-0.85X0.7874X0.85X0.7874*%
%ADD16R,1.6764X1.6764*%

%LPD*%
D10*
G01*
X1181100Y8543544D03*
G01*
X1181100Y8042655D03*
D11*
G01*
X4800600Y12915900D03*
G01*
X4800600Y12661900D03*
G01*
X4800600Y12407900D03*
G01*
X4800600Y12153900D03*
G01*
X4800600Y11899900D03*
G01*
X4800600Y11645900D03*
G01*
X4800600Y11391900D03*
G01*
X4800600Y11137900D03*
G01*
X4800600Y10883900D03*
G01*
X4800600Y10629900D03*
G01*
X4800600Y10375900D03*
G01*
X4800600Y10121900D03*
G01*
X4800600Y9867900D03*
G01*
X4800600Y9613900D03*
G01*
X4800600Y9359900D03*
G01*
X2260600Y12661900D03*
G01*
X2260600Y12407900D03*
G01*
X2260600Y12153900D03*
G01*
X2260600Y11899900D03*
G01*
X2260600Y11645900D03*
G01*
X2260600Y11391900D03*
G01*
X2260600Y11137900D03*
G01*
X2260600Y10883900D03*
G01*
X2260600Y10629900D03*
G01*
X2260600Y10375900D03*
G01*
X2260600Y10121900D03*
G01*
X2260600Y9867900D03*
G01*
X2260600Y9613900D03*
G01*
X2260600Y9359900D03*
G01*
X2260600Y12915900D03*
G01*
X4800600Y9105900D03*
G01*
X4800600Y8851900D03*
D12*
G01*
X4800587Y13169887D03*
G01*
X2260587Y13169887D03*
D11*
G01*
X2260600Y9105900D03*
G01*
X2260600Y8851900D03*
G01*
X4800600Y8597900D03*
G01*
X2260600Y8597900D03*
G01*
X2260600Y8343900D03*
G01*
X4800600Y8343900D03*
D13*
G01*
X5715000Y9906000D03*
D14*
G01*
X5969000Y9906000D03*
G01*
X6223000Y9906000D03*
G01*
X6477000Y9906000D03*
D13*
G01*
X5715000Y9144000D03*
D14*
G01*
X5969000Y9144000D03*
G01*
X6223000Y9144000D03*
G01*
X6477000Y9144000D03*
D15*
G01*
X8763001Y7861300D03*
D11*
G01*
X9017000Y7861300D03*
D14*
G01*
X6350000Y7874000D03*
G01*
X6096000Y7874000D03*
D13*
G01*
X5842000Y7874000D03*
D14*
G01*
X7620000Y7874000D03*
G01*
X7366000Y7874000D03*
D13*
G01*
X7112000Y7874000D03*
D14*
G01*
X9918700Y12725400D03*
G01*
X9664700Y12725400D03*
G01*
X9410700Y12725400D03*
G01*
X9156700Y12725400D03*
G01*
X8902700Y12725400D03*
D13*
G01*
X8648700Y12725400D03*
D14*
G01*
X10160000Y8382000D03*
G01*
X10160000Y8128000D03*
D16*
G01*
X10160000Y7874000D03*
D14*
G01*
X10160000Y9398000D03*
G01*
X10160000Y9144000D03*
D16*
G01*
X10160000Y8890000D03*
D14*
G01*
X10160000Y10414000D03*
G01*
X10160000Y10160000D03*
D16*
G01*
X10160000Y9906000D03*
D13*
G01*
X5537200Y13639800D03*
D14*
G01*
X5791200Y13639800D03*
G01*
X6045200Y13639800D03*
G01*
X6299200Y13639800D03*
G01*
X6553200Y13639800D03*
G01*
X6807200Y13639800D03*
G01*
X7061200Y13639800D03*
G01*
X7315200Y13639800D03*
M02*
