G04 Layer: BottomLayer*
G04 EasyEDA v6.5.22, 2023-03-21 19:31:51*
G04 afc67292cab7459ea135deb86c664b34,e659aa28fce94fba860684ee23aa467a,10*
G04 Gerber Generator version 0.2*
G04 Scale: 100 percent, Rotated: No, Reflected: No *
G04 Dimensions in millimeters *
G04 leading zeros omitted , absolute positions ,4 integer and 5 decimal *
%FSLAX45Y45*%
%MOMM*%

%ADD10C,0.2540*%
%ADD11C,2.0000*%
%ADD12C,1.7000*%
%ADD13R,1.7000X1.7000*%
%ADD14R,1.5748X1.5748*%
%ADD15C,1.5748*%
%ADD16R,1.7000X1.5748*%
%ADD17C,0.6100*%

%LPD*%
D10*
X5715002Y9143997D02*
G01*
X5715002Y9905997D01*
X6506212Y11468478D02*
G01*
X6453659Y11468478D01*
X5969002Y10983821D01*
X5969002Y9905997D01*
X7141263Y12141807D02*
G01*
X6506212Y11506756D01*
X6506212Y11468478D01*
X5969002Y9143997D02*
G01*
X5969002Y9905997D01*
X5842002Y7873997D02*
G01*
X5842002Y10672493D01*
X5863897Y10694388D01*
X6049926Y10646966D02*
G01*
X7112002Y9584890D01*
X7112002Y7873997D01*
X10053347Y7873997D02*
G01*
X10053347Y7884030D01*
X6751271Y11186106D01*
X6308956Y11186106D01*
X10160002Y7873997D02*
G01*
X10053347Y7873997D01*
X8270394Y9584128D02*
G01*
X7725387Y9584128D01*
X6188763Y11120752D01*
X7061202Y13639797D02*
G01*
X7061202Y13177695D01*
X6746267Y12862760D01*
X2260602Y8343897D02*
G01*
X2260602Y8597897D01*
X6223002Y9143997D02*
G01*
X6223002Y9905997D01*
X6096002Y7873997D02*
G01*
X6096002Y9016997D01*
X6223002Y9143997D01*
X10160002Y9143997D02*
G01*
X10267444Y9036555D01*
X10267444Y8235439D01*
X10160002Y8127997D01*
X10160002Y10159997D02*
G01*
X10270365Y10049634D01*
X10270365Y9254360D01*
X10160002Y9143997D01*
X4800602Y10375897D02*
G01*
X4800602Y10629897D01*
X4800602Y13169872D02*
G01*
X4687674Y13169872D01*
X4687674Y13169872D02*
G01*
X4677285Y13159483D01*
X4677285Y11769214D01*
X4800602Y11645897D01*
X6477002Y9143997D02*
G01*
X6477002Y9905997D01*
X6350002Y7873997D02*
G01*
X6350002Y9016997D01*
X6477002Y9143997D01*
X9918702Y12725397D02*
G01*
X9918702Y10655297D01*
X10160002Y10413997D01*
X10160002Y10413997D02*
G01*
X10053170Y10307165D01*
X10053170Y9504829D01*
X10160002Y9397997D01*
X10160002Y9397997D02*
G01*
X10053170Y9291165D01*
X10053170Y8488829D01*
X10160002Y8381997D01*
X8902702Y12725397D02*
G01*
X8777810Y12600505D01*
X6551119Y12600505D01*
X5977511Y12026897D01*
X9156702Y12725397D02*
G01*
X8981899Y12550594D01*
X7404432Y12550594D01*
X5668418Y10814580D01*
X5668418Y10790069D01*
X2260602Y9613897D02*
G01*
X3403602Y10756897D01*
X5618761Y10756897D01*
X5644161Y10731497D01*
X5692701Y10731497D01*
X5726991Y10765787D01*
X5726991Y10815469D01*
X7383401Y12471880D01*
X9157185Y12471880D01*
X9410702Y12725397D01*
X9664702Y12725397D02*
G01*
X9557870Y12832229D01*
X7075807Y12832229D01*
X7038317Y12794739D01*
X6225644Y12794739D01*
X4953510Y11522605D01*
X2383894Y11522605D01*
X2260602Y11645897D01*
D11*
G01*
X1181100Y8543544D03*
G01*
X1181100Y8042655D03*
D12*
G01*
X4800600Y12915900D03*
G01*
X4800600Y12661900D03*
G01*
X4800600Y12407900D03*
G01*
X4800600Y12153900D03*
G01*
X4800600Y11899900D03*
G01*
X4800600Y11645900D03*
G01*
X4800600Y11391900D03*
G01*
X4800600Y11137900D03*
G01*
X4800600Y10883900D03*
G01*
X4800600Y10629900D03*
G01*
X4800600Y10375900D03*
G01*
X4800600Y10121900D03*
G01*
X4800600Y9867900D03*
G01*
X4800600Y9613900D03*
G01*
X4800600Y9359900D03*
G01*
X2260600Y12661900D03*
G01*
X2260600Y12407900D03*
G01*
X2260600Y12153900D03*
G01*
X2260600Y11899900D03*
G01*
X2260600Y11645900D03*
G01*
X2260600Y11391900D03*
G01*
X2260600Y11137900D03*
G01*
X2260600Y10883900D03*
G01*
X2260600Y10629900D03*
G01*
X2260600Y10375900D03*
G01*
X2260600Y10121900D03*
G01*
X2260600Y9867900D03*
G01*
X2260600Y9613900D03*
G01*
X2260600Y9359900D03*
G01*
X2260600Y12915900D03*
G01*
X4800600Y9105900D03*
G01*
X4800600Y8851900D03*
D13*
G01*
X4800600Y13169874D03*
G01*
X2260600Y13169874D03*
D12*
G01*
X2260600Y9105900D03*
G01*
X2260600Y8851900D03*
G01*
X4800600Y8597900D03*
G01*
X2260600Y8597900D03*
G01*
X2260600Y8343900D03*
G01*
X4800600Y8343900D03*
D14*
G01*
X5715000Y9906000D03*
D15*
G01*
X5969000Y9906000D03*
G01*
X6223000Y9906000D03*
G01*
X6477000Y9906000D03*
D14*
G01*
X5715000Y9144000D03*
D15*
G01*
X5969000Y9144000D03*
G01*
X6223000Y9144000D03*
G01*
X6477000Y9144000D03*
D16*
G01*
X8763000Y7861300D03*
D12*
G01*
X9017000Y7861300D03*
D15*
G01*
X6350000Y7874000D03*
G01*
X6096000Y7874000D03*
D14*
G01*
X5842000Y7874000D03*
D15*
G01*
X7620000Y7874000D03*
G01*
X7366000Y7874000D03*
D14*
G01*
X7112000Y7874000D03*
D15*
G01*
X9918700Y12725400D03*
G01*
X9664700Y12725400D03*
G01*
X9410700Y12725400D03*
G01*
X9156700Y12725400D03*
G01*
X8902700Y12725400D03*
D14*
G01*
X8648700Y12725400D03*
D15*
G01*
X10160000Y8382000D03*
G01*
X10160000Y8128000D03*
D14*
G01*
X10160000Y7874000D03*
D15*
G01*
X10160000Y9398000D03*
G01*
X10160000Y9144000D03*
D14*
G01*
X10160000Y8890000D03*
D15*
G01*
X10160000Y10414000D03*
G01*
X10160000Y10160000D03*
D14*
G01*
X10160000Y9906000D03*
G01*
X5537200Y13639800D03*
D15*
G01*
X5791200Y13639800D03*
G01*
X6045200Y13639800D03*
G01*
X6299200Y13639800D03*
G01*
X6553200Y13639800D03*
G01*
X6807200Y13639800D03*
G01*
X7061200Y13639800D03*
G01*
X7315200Y13639800D03*
D17*
G01*
X6506209Y11468480D03*
G01*
X7141260Y12141809D03*
G01*
X5863894Y10694390D03*
G01*
X6049924Y10646968D03*
G01*
X6308953Y11186109D03*
G01*
X6188760Y11120754D03*
G01*
X8270392Y9584131D03*
G01*
X6746265Y12862763D03*
G01*
X5977509Y12026900D03*
G01*
X5668416Y10790072D03*
M02*
