G04 Layer: TopLayer*
G04 EasyEDA v6.5.22, 2023-03-21 19:31:51*
G04 afc67292cab7459ea135deb86c664b34,e659aa28fce94fba860684ee23aa467a,10*
G04 Gerber Generator version 0.2*
G04 Scale: 100 percent, Rotated: No, Reflected: No *
G04 Dimensions in millimeters *
G04 leading zeros omitted , absolute positions ,4 integer and 5 decimal *
%FSLAX45Y45*%
%MOMM*%

%AMMACRO1*21,1,$1,$2,0,0,$3*%
%ADD10C,0.2540*%
%ADD11R,0.8000X0.9000*%
%ADD12MACRO1,0.864X0.8065X90.0000*%
%ADD13R,0.8999X1.0000*%
%ADD14R,0.7000X1.2500*%
%ADD15O,1.8034X0.40640000000000004*%
%ADD16O,2.0379944X0.5739892*%
%ADD17MACRO1,0.864X0.8065X-90.0000*%
%ADD18C,2.0000*%
%ADD19C,1.7000*%
%ADD20R,1.7000X1.7000*%
%ADD21R,1.5748X1.5748*%
%ADD22C,1.5748*%
%ADD23R,1.7000X1.5748*%
%ADD24C,0.6100*%
%ADD25C,0.0133*%

%LPD*%
D10*
X6073091Y11772897D02*
G01*
X6073091Y12166597D01*
X6073091Y11772897D02*
G01*
X6312512Y11533477D01*
X6669991Y11533477D01*
X2260602Y10883897D02*
G01*
X3149602Y11772897D01*
X6073091Y11772897D01*
X5715002Y9905997D02*
G01*
X5608347Y9905997D01*
X2260602Y10883897D02*
G01*
X2096086Y10719381D01*
X2096086Y10111026D01*
X2212215Y9994897D01*
X5519447Y9994897D01*
X5608347Y9905997D01*
X6669991Y11468478D02*
G01*
X6506212Y11468478D01*
X6626913Y12166597D02*
G01*
X7116472Y12166597D01*
X7141263Y12141807D01*
X2260602Y10629897D02*
G01*
X2145565Y10514860D01*
X2145565Y10326469D01*
X2223086Y10248948D01*
X5626051Y10248948D01*
X5969002Y9905997D01*
X6030013Y11273482D02*
G01*
X5950409Y11273482D01*
X5863897Y11186970D01*
X5863897Y10694388D01*
X6030013Y11208484D02*
G01*
X5943094Y11208484D01*
X5908017Y11173406D01*
X5908017Y10733910D01*
X5994961Y10646966D01*
X6049926Y10646966D01*
X6030013Y11078486D02*
G01*
X6046320Y11062180D01*
X6213045Y11062180D01*
X6308956Y11158090D01*
X6308956Y11186106D01*
X8629906Y9551997D02*
G01*
X8302525Y9551997D01*
X8270394Y9584128D01*
X6188763Y11120752D02*
G01*
X6166030Y11143485D01*
X6030013Y11143485D01*
X8636866Y9253217D02*
G01*
X8629906Y9260177D01*
X8629906Y9551997D01*
X8636866Y9182097D02*
G01*
X8636866Y9253217D01*
X6626913Y12801597D02*
G01*
X6685104Y12801597D01*
X6746267Y12862760D01*
X7326530Y9792205D02*
G01*
X7368085Y9833759D01*
X7368085Y10413997D01*
X7366002Y7873997D02*
G01*
X7528511Y7711488D01*
X9743493Y7711488D01*
X10160002Y8127997D01*
X6096002Y7873997D02*
G01*
X6203800Y7766199D01*
X7258204Y7766199D01*
X7366002Y7873997D01*
X8388911Y11617144D02*
G01*
X8388911Y10601322D01*
X8396607Y10593626D01*
X9059064Y10593626D01*
X8388911Y11617144D02*
G01*
X8913218Y11617144D01*
X8986141Y11544221D01*
X6669991Y11598475D02*
G01*
X6688660Y11617144D01*
X8388911Y11617144D01*
X7402045Y10413997D02*
G01*
X7436004Y10413997D01*
X7402045Y10413997D02*
G01*
X7368085Y10413997D01*
X2260602Y8597897D02*
G01*
X2641577Y8978872D01*
X6057877Y8978872D01*
X6223002Y9143997D01*
X1181102Y8543541D02*
G01*
X2206246Y8543541D01*
X2260602Y8597897D01*
X7326530Y9792205D02*
G01*
X7385789Y9732947D01*
X7385789Y9664697D01*
X6223002Y9905997D02*
G01*
X6336794Y9792205D01*
X7326530Y9792205D01*
X1949604Y8115297D02*
G01*
X2017524Y8115297D01*
X2260602Y8343897D02*
G01*
X2246124Y8343897D01*
X2017524Y8115297D01*
X7454038Y9664697D02*
G01*
X7385789Y9664697D01*
X9059064Y10593626D02*
G01*
X9059064Y10515521D01*
X9059064Y11010821D02*
G01*
X9059064Y10593626D01*
X10160002Y10159997D02*
G01*
X9726373Y10593626D01*
X9059064Y10593626D01*
X9059064Y11544221D02*
G01*
X8986141Y11544221D01*
X7454038Y9664697D02*
G01*
X7522263Y9664697D01*
X7918706Y9282097D02*
G01*
X7918706Y9372521D01*
X7918706Y9372521D02*
G01*
X7814439Y9372521D01*
X7522263Y9664697D01*
X1809600Y8115297D02*
G01*
X1741680Y8115297D01*
X1181102Y8042653D02*
G01*
X1669036Y8042653D01*
X1741680Y8115297D01*
X4800602Y8027616D02*
G01*
X1897280Y8027616D01*
X1877519Y8047377D01*
X1877519Y8115297D01*
X6350002Y7992666D02*
G01*
X4835552Y7992666D01*
X4800602Y8027616D01*
X4800602Y8027616D02*
G01*
X4800602Y8343897D01*
X1809600Y8115297D02*
G01*
X1877519Y8115297D01*
X4800602Y13169872D02*
G01*
X4913505Y13169872D01*
X4800602Y13169872D02*
G01*
X4687674Y13169872D01*
X1288900Y13576297D02*
G01*
X1356819Y13576297D01*
X1356819Y13576297D02*
G01*
X1356819Y13644217D01*
X1362001Y13649398D01*
X4208147Y13649398D01*
X4687674Y13169872D01*
X4913505Y13169872D02*
G01*
X5662780Y12420597D01*
X6073091Y12420597D01*
X4800602Y10629897D02*
G01*
X5509186Y11338481D01*
X6030013Y11338481D01*
X6477002Y9905997D02*
G01*
X6007102Y10375897D01*
X4800602Y10375897D01*
X7620002Y7873997D02*
G01*
X7501333Y7992666D01*
X6350002Y7992666D01*
X6350002Y7992666D02*
G01*
X6350002Y7873997D01*
X9017002Y7861297D02*
G01*
X8910170Y7754465D01*
X7739534Y7754465D01*
X7620002Y7873997D01*
X10160002Y8381997D02*
G01*
X9639302Y7861297D01*
X9017002Y7861297D01*
X8819898Y9397997D02*
G01*
X8819898Y9551997D01*
X8787538Y9253217D02*
G01*
X8819898Y9285577D01*
X8819898Y9397997D01*
X8819898Y9397997D02*
G01*
X10160002Y9397997D01*
X6030013Y11598501D02*
G01*
X4847998Y11598501D01*
X4800602Y11645897D01*
X6030013Y11533502D02*
G01*
X6030013Y11598501D01*
X6030013Y11468478D02*
G01*
X6030013Y11533502D01*
X6030013Y11403479D02*
G01*
X6030013Y11468478D01*
X6030013Y11338481D02*
G01*
X6030013Y11403479D01*
X6669991Y11338481D02*
G01*
X6030013Y11338481D01*
X6669991Y11273482D02*
G01*
X6669991Y11338481D01*
X6669991Y11403479D02*
G01*
X6669991Y11338481D01*
X6626913Y12293597D02*
G01*
X6626913Y12420597D01*
X6626913Y12420597D02*
G01*
X6073091Y12420597D01*
X8787538Y9182097D02*
G01*
X8787538Y9253217D01*
X5977511Y12026897D02*
G01*
X2895602Y12026897D01*
X2260602Y11391897D01*
X5668418Y10790069D02*
G01*
X5381246Y10502897D01*
X2387602Y10502897D01*
X2260602Y10375897D01*
X6030013Y11013488D02*
G01*
X6129911Y11013488D01*
X6497017Y10646382D01*
X7779438Y10646382D01*
X8412990Y10012829D01*
X10259443Y10012829D01*
X10266834Y10005438D01*
X10266834Y9076814D01*
X10186672Y8996652D01*
X10160002Y8996652D01*
X10160002Y8889997D02*
G01*
X10160002Y8996652D01*
X7296000Y10413997D02*
G01*
X6369484Y10413997D01*
X6030013Y10753468D01*
X8648702Y12725397D02*
G01*
X8542047Y12725397D01*
X6073091Y12293597D02*
G01*
X6143246Y12223442D01*
X8040093Y12223442D01*
X8542047Y12725397D01*
X2373505Y13169872D02*
G01*
X3249780Y12293597D01*
X6073091Y12293597D01*
X1428904Y13576297D02*
G01*
X1496824Y13576297D01*
X2260602Y13169872D02*
G01*
X1903249Y13169872D01*
X1496824Y13576297D01*
X2317066Y13169872D02*
G01*
X2260602Y13169872D01*
X2317066Y13169872D02*
G01*
X2373505Y13169872D01*
X8457338Y11544297D02*
G01*
X8525563Y11544297D01*
X9229067Y11544221D02*
G01*
X9156143Y11544221D01*
X9156143Y11544221D02*
G01*
X9156143Y11489535D01*
X9132750Y11466141D01*
X8603719Y11466141D01*
X8525563Y11544297D01*
X8306666Y11544297D02*
G01*
X8238441Y11544297D01*
X6669991Y10883491D02*
G01*
X7577635Y10883491D01*
X8238441Y11544297D01*
X9229067Y11010821D02*
G01*
X9156143Y11010821D01*
X8457338Y11010897D02*
G01*
X8525563Y11010897D01*
X8525563Y11010897D02*
G01*
X8603592Y11088926D01*
X9132724Y11088926D01*
X9156143Y11065507D01*
X9156143Y11010821D01*
X8306666Y11010897D02*
G01*
X8238441Y11010897D01*
X6669991Y10818492D02*
G01*
X8046036Y10818492D01*
X8238441Y11010897D01*
X8457338Y10515597D02*
G01*
X8525563Y10515597D01*
X9229067Y10515521D02*
G01*
X9156143Y10515521D01*
X9156143Y10515521D02*
G01*
X9156143Y10460835D01*
X9126628Y10431320D01*
X8609840Y10431320D01*
X8525563Y10515597D01*
X8306666Y10515597D02*
G01*
X8306666Y10586717D01*
X8306666Y10586717D02*
G01*
X8139915Y10753468D01*
X6669991Y10753468D01*
X8724902Y9661573D02*
G01*
X8265010Y9661573D01*
X8108698Y9505261D01*
X8108698Y9372521D01*
X8108698Y9282097D02*
G01*
X8108698Y9191673D01*
X7303366Y9664697D02*
G01*
X7787134Y9180929D01*
X8097954Y9180929D01*
X8108698Y9191673D01*
X8108698Y9282097D02*
G01*
X8108698Y9372521D01*
X8724902Y9751997D02*
G01*
X8724902Y9661573D01*
X8013702Y9082097D02*
G01*
X8013702Y8991673D01*
X8013702Y8991673D02*
G01*
X8763002Y8242373D01*
X8763002Y7861297D01*
X6030013Y10948489D02*
G01*
X6103724Y10948489D01*
X6476519Y10575693D01*
X7637553Y10575693D01*
X8307250Y9905997D01*
X10160002Y9905997D01*
X5537202Y13639797D02*
G01*
X5643857Y13639797D01*
X6073091Y12928597D02*
G01*
X5918202Y13083486D01*
X5918202Y13664943D01*
X5836312Y13746833D01*
X5724222Y13746833D01*
X5643857Y13666467D01*
X5643857Y13639797D01*
X6073091Y12801597D02*
G01*
X6040579Y12801597D01*
X5791202Y13050974D01*
X5791202Y13639797D01*
X6073091Y12674597D02*
G01*
X6114874Y12674597D01*
X6205552Y12765275D01*
X6205552Y13479447D01*
X6045202Y13639797D01*
X6073091Y12547597D02*
G01*
X6103749Y12547597D01*
X6299202Y12743050D01*
X6299202Y13639797D01*
X6626913Y12547597D02*
G01*
X6578856Y12547597D01*
X6479618Y12646835D01*
X6479618Y13566213D01*
X6553202Y13639797D01*
X6626913Y12674597D02*
G01*
X6654472Y12674597D01*
X6807202Y12827327D01*
X6807202Y13639797D01*
X6626913Y12928597D02*
G01*
X6697957Y12999641D01*
X6697957Y13682621D01*
X6766867Y13751532D01*
X7203467Y13751532D01*
X7315202Y13639797D01*
D11*
G01*
X7436002Y10414000D03*
G01*
X7295997Y10414000D03*
G01*
X1949602Y8115300D03*
G01*
X1809597Y8115300D03*
G01*
X1428902Y13576300D03*
G01*
X1288897Y13576300D03*
D12*
G01*
X8457324Y11544300D03*
G01*
X8306675Y11544300D03*
G01*
X8457324Y11010900D03*
G01*
X8306675Y11010900D03*
G01*
X8457324Y10515600D03*
G01*
X8306675Y10515600D03*
G01*
X7454024Y9664700D03*
G01*
X7303375Y9664700D03*
D13*
G01*
X9229064Y11544223D03*
G01*
X9059062Y11544223D03*
G01*
X9229064Y10515523D03*
G01*
X9059062Y10515523D03*
G01*
X9229064Y11010823D03*
G01*
X9059062Y11010823D03*
D14*
G01*
X8629904Y9552000D03*
G01*
X8819895Y9552000D03*
G01*
X8724900Y9751999D03*
D15*
G01*
X6030010Y11598503D03*
G01*
X6030010Y11533504D03*
G01*
X6030010Y11468480D03*
G01*
X6030010Y11403482D03*
G01*
X6030010Y11338483D03*
G01*
X6030010Y11273485D03*
G01*
X6030010Y11208486D03*
G01*
X6030010Y11143487D03*
G01*
X6030010Y11078489D03*
G01*
X6030010Y11013490D03*
G01*
X6030010Y10948492D03*
G01*
X6030010Y10883493D03*
G01*
X6030010Y10818495D03*
G01*
X6030010Y10753470D03*
G01*
X6669989Y10753470D03*
G01*
X6669989Y10818495D03*
G01*
X6669989Y10883493D03*
G01*
X6669989Y10948492D03*
G01*
X6669989Y11013490D03*
G01*
X6669989Y11078489D03*
G01*
X6669989Y11143487D03*
G01*
X6669989Y11208486D03*
G01*
X6669989Y11273485D03*
G01*
X6669989Y11338483D03*
G01*
X6669989Y11403482D03*
G01*
X6669989Y11468480D03*
G01*
X6669989Y11533479D03*
G01*
X6669989Y11598478D03*
D16*
G01*
X6073089Y12928600D03*
G01*
X6073089Y12801600D03*
G01*
X6073089Y12674600D03*
G01*
X6073089Y12547600D03*
G01*
X6073089Y12420600D03*
G01*
X6073089Y12293600D03*
G01*
X6073089Y12166600D03*
G01*
X6626910Y12928600D03*
G01*
X6626910Y12801600D03*
G01*
X6626910Y12674600D03*
G01*
X6626910Y12547600D03*
G01*
X6626910Y12420600D03*
G01*
X6626910Y12293600D03*
G01*
X6626910Y12166600D03*
D17*
G01*
X8636875Y9182100D03*
G01*
X8787524Y9182100D03*
D14*
G01*
X8108695Y9282099D03*
G01*
X7918704Y9282099D03*
G01*
X8013700Y9082100D03*
D18*
G01*
X1181100Y8543544D03*
G01*
X1181100Y8042655D03*
D19*
G01*
X4800600Y12915900D03*
G01*
X4800600Y12661900D03*
G01*
X4800600Y12407900D03*
G01*
X4800600Y12153900D03*
G01*
X4800600Y11899900D03*
G01*
X4800600Y11645900D03*
G01*
X4800600Y11391900D03*
G01*
X4800600Y11137900D03*
G01*
X4800600Y10883900D03*
G01*
X4800600Y10629900D03*
G01*
X4800600Y10375900D03*
G01*
X4800600Y10121900D03*
G01*
X4800600Y9867900D03*
G01*
X4800600Y9613900D03*
G01*
X4800600Y9359900D03*
G01*
X2260600Y12661900D03*
G01*
X2260600Y12407900D03*
G01*
X2260600Y12153900D03*
G01*
X2260600Y11899900D03*
G01*
X2260600Y11645900D03*
G01*
X2260600Y11391900D03*
G01*
X2260600Y11137900D03*
G01*
X2260600Y10883900D03*
G01*
X2260600Y10629900D03*
G01*
X2260600Y10375900D03*
G01*
X2260600Y10121900D03*
G01*
X2260600Y9867900D03*
G01*
X2260600Y9613900D03*
G01*
X2260600Y9359900D03*
G01*
X2260600Y12915900D03*
G01*
X4800600Y9105900D03*
G01*
X4800600Y8851900D03*
D20*
G01*
X4800600Y13169874D03*
G01*
X2260600Y13169874D03*
D19*
G01*
X2260600Y9105900D03*
G01*
X2260600Y8851900D03*
G01*
X4800600Y8597900D03*
G01*
X2260600Y8597900D03*
G01*
X2260600Y8343900D03*
G01*
X4800600Y8343900D03*
D21*
G01*
X5715000Y9906000D03*
D22*
G01*
X5969000Y9906000D03*
G01*
X6223000Y9906000D03*
G01*
X6477000Y9906000D03*
D21*
G01*
X5715000Y9144000D03*
D22*
G01*
X5969000Y9144000D03*
G01*
X6223000Y9144000D03*
G01*
X6477000Y9144000D03*
D23*
G01*
X8763000Y7861300D03*
D19*
G01*
X9017000Y7861300D03*
D22*
G01*
X6350000Y7874000D03*
G01*
X6096000Y7874000D03*
D21*
G01*
X5842000Y7874000D03*
D22*
G01*
X7620000Y7874000D03*
G01*
X7366000Y7874000D03*
D21*
G01*
X7112000Y7874000D03*
D22*
G01*
X9918700Y12725400D03*
G01*
X9664700Y12725400D03*
G01*
X9410700Y12725400D03*
G01*
X9156700Y12725400D03*
G01*
X8902700Y12725400D03*
D21*
G01*
X8648700Y12725400D03*
D22*
G01*
X10160000Y8382000D03*
G01*
X10160000Y8128000D03*
D21*
G01*
X10160000Y7874000D03*
D22*
G01*
X10160000Y9398000D03*
G01*
X10160000Y9144000D03*
D21*
G01*
X10160000Y8890000D03*
D22*
G01*
X10160000Y10414000D03*
G01*
X10160000Y10160000D03*
D21*
G01*
X10160000Y9906000D03*
G01*
X5537200Y13639800D03*
D22*
G01*
X5791200Y13639800D03*
G01*
X6045200Y13639800D03*
G01*
X6299200Y13639800D03*
G01*
X6553200Y13639800D03*
G01*
X6807200Y13639800D03*
G01*
X7061200Y13639800D03*
G01*
X7315200Y13639800D03*
D24*
G01*
X6506209Y11468480D03*
G01*
X7141260Y12141809D03*
G01*
X5863894Y10694390D03*
G01*
X6049924Y10646968D03*
G01*
X6308953Y11186109D03*
G01*
X6188760Y11120754D03*
G01*
X8270392Y9584131D03*
G01*
X6746265Y12862763D03*
G01*
X5977509Y12026900D03*
G01*
X5668416Y10790072D03*
M02*
