G04 Layer: TopPasteMaskLayer*
G04 EasyEDA v6.5.22, 2023-03-21 19:31:51*
G04 afc67292cab7459ea135deb86c664b34,e659aa28fce94fba860684ee23aa467a,10*
G04 Gerber Generator version 0.2*
G04 Scale: 100 percent, Rotated: No, Reflected: No *
G04 Dimensions in millimeters *
G04 leading zeros omitted , absolute positions ,4 integer and 5 decimal *
%FSLAX45Y45*%
%MOMM*%

%ADD10R,0.8000X0.9000*%
%ADD11R,0.8999X1.0000*%
%ADD12R,0.7000X1.2500*%
%ADD13O,1.8034X0.40640000000000004*%
%ADD14O,2.0379944X0.5739892*%

%LPD*%
G36*
X8421522Y11589308D02*
G01*
X8416493Y11584279D01*
X8416493Y11561521D01*
X8453475Y11561521D01*
X8453475Y11528501D01*
X8416493Y11528501D01*
X8416493Y11504320D01*
X8421522Y11499291D01*
X8501481Y11499291D01*
X8506510Y11504320D01*
X8506510Y11584279D01*
X8501481Y11589308D01*
G37*
G36*
X8262518Y11589308D02*
G01*
X8257489Y11584279D01*
X8257489Y11504320D01*
X8262518Y11499291D01*
X8341512Y11499291D01*
X8346490Y11504320D01*
X8346490Y11528501D01*
X8308492Y11528501D01*
X8308492Y11561521D01*
X8346490Y11561521D01*
X8346490Y11584279D01*
X8341512Y11589308D01*
G37*
G36*
X8421522Y11055908D02*
G01*
X8416493Y11050879D01*
X8416493Y11028121D01*
X8453475Y11028121D01*
X8453475Y10995101D01*
X8416493Y10995101D01*
X8416493Y10970920D01*
X8421522Y10965891D01*
X8501481Y10965891D01*
X8506510Y10970920D01*
X8506510Y11050879D01*
X8501481Y11055908D01*
G37*
G36*
X8262518Y11055908D02*
G01*
X8257489Y11050879D01*
X8257489Y10970920D01*
X8262518Y10965891D01*
X8341512Y10965891D01*
X8346490Y10970920D01*
X8346490Y10995101D01*
X8308492Y10995101D01*
X8308492Y11028121D01*
X8346490Y11028121D01*
X8346490Y11050879D01*
X8341512Y11055908D01*
G37*
G36*
X8421522Y10560608D02*
G01*
X8416493Y10555579D01*
X8416493Y10532821D01*
X8453475Y10532821D01*
X8453475Y10499801D01*
X8416493Y10499801D01*
X8416493Y10475620D01*
X8421522Y10470591D01*
X8501481Y10470591D01*
X8506510Y10475620D01*
X8506510Y10555579D01*
X8501481Y10560608D01*
G37*
G36*
X8262518Y10560608D02*
G01*
X8257489Y10555579D01*
X8257489Y10475620D01*
X8262518Y10470591D01*
X8341512Y10470591D01*
X8346490Y10475620D01*
X8346490Y10499801D01*
X8308492Y10499801D01*
X8308492Y10532821D01*
X8346490Y10532821D01*
X8346490Y10555579D01*
X8341512Y10560608D01*
G37*
G36*
X7418222Y9709708D02*
G01*
X7413193Y9704679D01*
X7413193Y9681921D01*
X7450175Y9681921D01*
X7450175Y9648901D01*
X7413193Y9648901D01*
X7413193Y9624720D01*
X7418222Y9619691D01*
X7498181Y9619691D01*
X7503210Y9624720D01*
X7503210Y9704679D01*
X7498181Y9709708D01*
G37*
G36*
X7259218Y9709708D02*
G01*
X7254189Y9704679D01*
X7254189Y9624720D01*
X7259218Y9619691D01*
X7338212Y9619691D01*
X7343190Y9624720D01*
X7343190Y9648901D01*
X7305192Y9648901D01*
X7305192Y9681921D01*
X7343190Y9681921D01*
X7343190Y9704679D01*
X7338212Y9709708D01*
G37*
G36*
X8592718Y9227108D02*
G01*
X8587689Y9222079D01*
X8587689Y9142120D01*
X8592718Y9137091D01*
X8672677Y9137091D01*
X8677706Y9142120D01*
X8677706Y9164878D01*
X8640724Y9164878D01*
X8640724Y9197898D01*
X8677706Y9197898D01*
X8677706Y9222079D01*
X8672677Y9227108D01*
G37*
G36*
X8752687Y9227108D02*
G01*
X8747709Y9222079D01*
X8747709Y9197898D01*
X8785707Y9197898D01*
X8785707Y9164878D01*
X8747709Y9164878D01*
X8747709Y9142120D01*
X8752687Y9137091D01*
X8831681Y9137091D01*
X8836710Y9142120D01*
X8836710Y9222079D01*
X8831681Y9227108D01*
G37*
D10*
G01*
X7436002Y10414000D03*
G01*
X7295997Y10414000D03*
G01*
X1949602Y8115300D03*
G01*
X1809597Y8115300D03*
G01*
X1428902Y13576300D03*
G01*
X1288897Y13576300D03*
D11*
G01*
X9229064Y11544223D03*
G01*
X9059062Y11544223D03*
G01*
X9229064Y10515523D03*
G01*
X9059062Y10515523D03*
G01*
X9229064Y11010823D03*
G01*
X9059062Y11010823D03*
D12*
G01*
X8629904Y9552000D03*
G01*
X8819895Y9552000D03*
G01*
X8724900Y9751999D03*
D13*
G01*
X6030010Y11598503D03*
G01*
X6030010Y11533504D03*
G01*
X6030010Y11468480D03*
G01*
X6030010Y11403482D03*
G01*
X6030010Y11338483D03*
G01*
X6030010Y11273485D03*
G01*
X6030010Y11208486D03*
G01*
X6030010Y11143487D03*
G01*
X6030010Y11078489D03*
G01*
X6030010Y11013490D03*
G01*
X6030010Y10948492D03*
G01*
X6030010Y10883493D03*
G01*
X6030010Y10818495D03*
G01*
X6030010Y10753470D03*
G01*
X6669989Y10753470D03*
G01*
X6669989Y10818495D03*
G01*
X6669989Y10883493D03*
G01*
X6669989Y10948492D03*
G01*
X6669989Y11013490D03*
G01*
X6669989Y11078489D03*
G01*
X6669989Y11143487D03*
G01*
X6669989Y11208486D03*
G01*
X6669989Y11273485D03*
G01*
X6669989Y11338483D03*
G01*
X6669989Y11403482D03*
G01*
X6669989Y11468480D03*
G01*
X6669989Y11533479D03*
G01*
X6669989Y11598478D03*
D14*
G01*
X6073089Y12928600D03*
G01*
X6073089Y12801600D03*
G01*
X6073089Y12674600D03*
G01*
X6073089Y12547600D03*
G01*
X6073089Y12420600D03*
G01*
X6073089Y12293600D03*
G01*
X6073089Y12166600D03*
G01*
X6626910Y12928600D03*
G01*
X6626910Y12801600D03*
G01*
X6626910Y12674600D03*
G01*
X6626910Y12547600D03*
G01*
X6626910Y12420600D03*
G01*
X6626910Y12293600D03*
G01*
X6626910Y12166600D03*
D12*
G01*
X8108695Y9282099D03*
G01*
X7918704Y9282099D03*
G01*
X8013700Y9082100D03*
M02*
