G04 Layer: TopSilkscreenLayer*
G04 EasyEDA v6.5.22, 2023-03-21 19:31:51*
G04 afc67292cab7459ea135deb86c664b34,e659aa28fce94fba860684ee23aa467a,10*
G04 Gerber Generator version 0.2*
G04 Scale: 100 percent, Rotated: No, Reflected: No *
G04 Dimensions in millimeters *
G04 leading zeros omitted , absolute positions ,4 integer and 5 decimal *
%FSLAX45Y45*%
%MOMM*%

%ADD10C,0.1524*%
%ADD11C,0.2032*%
%ADD12C,0.2540*%
%ADD13C,0.4000*%
%ADD14C,0.2000*%
%ADD15C,0.2030*%
%ADD16C,0.1500*%
%ADD17C,0.3000*%
%ADD18C,0.0147*%

%LPD*%
D10*
X7418577Y10605008D02*
G01*
X7413243Y10615421D01*
X7402829Y10625836D01*
X7392670Y10630915D01*
X7371841Y10630915D01*
X7361427Y10625836D01*
X7351013Y10615421D01*
X7345679Y10605008D01*
X7340600Y10589260D01*
X7340600Y10563352D01*
X7345679Y10547858D01*
X7351013Y10537444D01*
X7361427Y10527029D01*
X7371841Y10521950D01*
X7392670Y10521950D01*
X7402829Y10527029D01*
X7413243Y10537444D01*
X7418577Y10547858D01*
X7452868Y10610087D02*
G01*
X7463281Y10615421D01*
X7478775Y10630915D01*
X7478775Y10521950D01*
X1843278Y8319008D02*
G01*
X1837944Y8329421D01*
X1827529Y8339836D01*
X1817370Y8344915D01*
X1796542Y8344915D01*
X1786128Y8339836D01*
X1775713Y8329421D01*
X1770379Y8319008D01*
X1765300Y8303260D01*
X1765300Y8277352D01*
X1770379Y8261858D01*
X1775713Y8251444D01*
X1786128Y8241029D01*
X1796542Y8235950D01*
X1817370Y8235950D01*
X1827529Y8241029D01*
X1837944Y8251444D01*
X1843278Y8261858D01*
X1882647Y8319008D02*
G01*
X1882647Y8324087D01*
X1887981Y8334502D01*
X1893062Y8339836D01*
X1903476Y8344915D01*
X1924304Y8344915D01*
X1934718Y8339836D01*
X1939797Y8334502D01*
X1945131Y8324087D01*
X1945131Y8313673D01*
X1939797Y8303260D01*
X1929384Y8287765D01*
X1877568Y8235950D01*
X1950211Y8235950D01*
X1411478Y13767307D02*
G01*
X1406144Y13777721D01*
X1395729Y13788136D01*
X1385570Y13793216D01*
X1364742Y13793216D01*
X1354328Y13788136D01*
X1343913Y13777721D01*
X1338579Y13767307D01*
X1333500Y13751560D01*
X1333500Y13725652D01*
X1338579Y13710157D01*
X1343913Y13699744D01*
X1354328Y13689329D01*
X1364742Y13684250D01*
X1385570Y13684250D01*
X1395729Y13689329D01*
X1406144Y13699744D01*
X1411478Y13710157D01*
X1456181Y13793216D02*
G01*
X1513331Y13793216D01*
X1482089Y13751560D01*
X1497584Y13751560D01*
X1507997Y13746479D01*
X1513331Y13741400D01*
X1518412Y13725652D01*
X1518412Y13715237D01*
X1513331Y13699744D01*
X1502918Y13689329D01*
X1487170Y13684250D01*
X1471676Y13684250D01*
X1456181Y13689329D01*
X1450847Y13694410D01*
X1445768Y13704824D01*
X1804415Y8509000D02*
G01*
X1695450Y8509000D01*
X1804415Y8509000D02*
G01*
X1804415Y8462263D01*
X1799336Y8446770D01*
X1794002Y8441436D01*
X1783587Y8436355D01*
X1768094Y8436355D01*
X1757679Y8441436D01*
X1752600Y8446770D01*
X1747265Y8462263D01*
X1747265Y8509000D01*
X1783587Y8402065D02*
G01*
X1788921Y8391652D01*
X1804415Y8375904D01*
X1695450Y8375904D01*
X8382000Y11761215D02*
G01*
X8382000Y11652250D01*
X8382000Y11761215D02*
G01*
X8428736Y11761215D01*
X8444229Y11756136D01*
X8449563Y11750802D01*
X8454643Y11740387D01*
X8454643Y11729974D01*
X8449563Y11719560D01*
X8444229Y11714479D01*
X8428736Y11709400D01*
X8382000Y11709400D01*
X8418322Y11709400D02*
G01*
X8454643Y11652250D01*
X8488934Y11740387D02*
G01*
X8499347Y11745721D01*
X8515095Y11761215D01*
X8515095Y11652250D01*
X8382000Y11227815D02*
G01*
X8382000Y11118850D01*
X8382000Y11227815D02*
G01*
X8428736Y11227815D01*
X8444229Y11222736D01*
X8449563Y11217402D01*
X8454643Y11206987D01*
X8454643Y11196574D01*
X8449563Y11186160D01*
X8444229Y11181079D01*
X8428736Y11176000D01*
X8382000Y11176000D01*
X8418322Y11176000D02*
G01*
X8454643Y11118850D01*
X8494268Y11201908D02*
G01*
X8494268Y11206987D01*
X8499347Y11217402D01*
X8504681Y11222736D01*
X8515095Y11227815D01*
X8535670Y11227815D01*
X8546084Y11222736D01*
X8551418Y11217402D01*
X8556497Y11206987D01*
X8556497Y11196574D01*
X8551418Y11186160D01*
X8541004Y11170665D01*
X8488934Y11118850D01*
X8561831Y11118850D01*
X8382000Y10732515D02*
G01*
X8382000Y10623550D01*
X8382000Y10732515D02*
G01*
X8428736Y10732515D01*
X8444229Y10727436D01*
X8449563Y10722102D01*
X8454643Y10711687D01*
X8454643Y10701274D01*
X8449563Y10690860D01*
X8444229Y10685779D01*
X8428736Y10680700D01*
X8382000Y10680700D01*
X8418322Y10680700D02*
G01*
X8454643Y10623550D01*
X8499347Y10732515D02*
G01*
X8556497Y10732515D01*
X8525509Y10690860D01*
X8541004Y10690860D01*
X8551418Y10685779D01*
X8556497Y10680700D01*
X8561831Y10664952D01*
X8561831Y10654537D01*
X8556497Y10639044D01*
X8546084Y10628629D01*
X8530590Y10623550D01*
X8515095Y10623550D01*
X8499347Y10628629D01*
X8494268Y10633710D01*
X8488934Y10644124D01*
X7378700Y9881615D02*
G01*
X7378700Y9772650D01*
X7378700Y9881615D02*
G01*
X7425436Y9881615D01*
X7440929Y9876536D01*
X7446263Y9871202D01*
X7451343Y9860787D01*
X7451343Y9850374D01*
X7446263Y9839960D01*
X7440929Y9834879D01*
X7425436Y9829800D01*
X7378700Y9829800D01*
X7415022Y9829800D02*
G01*
X7451343Y9772650D01*
X7537704Y9881615D02*
G01*
X7485634Y9808971D01*
X7563611Y9808971D01*
X7537704Y9881615D02*
G01*
X7537704Y9772650D01*
X3530600Y14072616D02*
G01*
X3530600Y13994637D01*
X3535679Y13979144D01*
X3546093Y13968729D01*
X3561841Y13963650D01*
X3572256Y13963650D01*
X3587750Y13968729D01*
X3598163Y13979144D01*
X3603243Y13994637D01*
X3603243Y14072616D01*
X3637534Y14051787D02*
G01*
X3647947Y14057121D01*
X3663695Y14072616D01*
X3663695Y13963650D01*
D11*
X2436113Y9391142D02*
G01*
X2429256Y9398000D01*
X2418841Y9401555D01*
X2404872Y9401555D01*
X2394458Y9398000D01*
X2387600Y9391142D01*
X2387600Y9384029D01*
X2391156Y9377171D01*
X2394458Y9373870D01*
X2401570Y9370313D01*
X2422143Y9363455D01*
X2429256Y9359900D01*
X2432558Y9356344D01*
X2436113Y9349486D01*
X2436113Y9339071D01*
X2429256Y9332213D01*
X2418841Y9328658D01*
X2404872Y9328658D01*
X2394458Y9332213D01*
X2387600Y9339071D01*
X2458974Y9401555D02*
G01*
X2458974Y9328658D01*
X2458974Y9401555D02*
G01*
X2483104Y9401555D01*
X2493518Y9398000D01*
X2500629Y9391142D01*
X2503931Y9384029D01*
X2507488Y9373870D01*
X2507488Y9356344D01*
X2503931Y9345929D01*
X2500629Y9339071D01*
X2493518Y9332213D01*
X2483104Y9328658D01*
X2458974Y9328658D01*
X2533650Y9384029D02*
G01*
X2533650Y9387586D01*
X2537206Y9394444D01*
X2540761Y9398000D01*
X2547620Y9401555D01*
X2561590Y9401555D01*
X2568447Y9398000D01*
X2571750Y9394444D01*
X2575306Y9387586D01*
X2575306Y9380728D01*
X2571750Y9373870D01*
X2564891Y9363455D01*
X2530347Y9328658D01*
X2578861Y9328658D01*
X3403600Y8398510D02*
G01*
X3403600Y8330184D01*
X3408172Y8316721D01*
X3417315Y8307578D01*
X3430777Y8303005D01*
X3439922Y8303005D01*
X3453638Y8307578D01*
X3462781Y8316721D01*
X3467354Y8330184D01*
X3467354Y8398510D01*
X3560825Y8385047D02*
G01*
X3551681Y8393937D01*
X3538220Y8398510D01*
X3519931Y8398510D01*
X3506215Y8393937D01*
X3497325Y8385047D01*
X3497325Y8375650D01*
X3501897Y8366505D01*
X3506215Y8362187D01*
X3515359Y8357362D01*
X3542791Y8348471D01*
X3551681Y8343900D01*
X3556254Y8339328D01*
X3560825Y8330184D01*
X3560825Y8316721D01*
X3551681Y8307578D01*
X3538220Y8303005D01*
X3519931Y8303005D01*
X3506215Y8307578D01*
X3497325Y8316721D01*
X3590797Y8398510D02*
G01*
X3590797Y8303005D01*
X3590797Y8398510D02*
G01*
X3631691Y8398510D01*
X3645408Y8393937D01*
X3649979Y8389112D01*
X3654552Y8380221D01*
X3654552Y8371078D01*
X3649979Y8362187D01*
X3645408Y8357362D01*
X3631691Y8353297D01*
X3590797Y8353297D02*
G01*
X3631691Y8353297D01*
X3645408Y8348471D01*
X3649979Y8343900D01*
X3654552Y8334755D01*
X3654552Y8321547D01*
X3649979Y8312150D01*
X3645408Y8307578D01*
X3631691Y8303005D01*
X3590797Y8303005D01*
X3276600Y8544305D02*
G01*
X3276600Y8480805D01*
X3276600Y8526018D02*
G01*
X3290315Y8539987D01*
X3299206Y8544305D01*
X3312922Y8544305D01*
X3322065Y8539987D01*
X3326638Y8526018D01*
X3326638Y8480805D01*
X3326638Y8526018D02*
G01*
X3340354Y8539987D01*
X3349243Y8544305D01*
X3362959Y8544305D01*
X3372104Y8539987D01*
X3376675Y8526018D01*
X3376675Y8480805D01*
X3406647Y8576310D02*
G01*
X3411220Y8571737D01*
X3415791Y8576310D01*
X3411220Y8580628D01*
X3406647Y8576310D01*
X3411220Y8544305D02*
G01*
X3411220Y8480805D01*
X3500120Y8530844D02*
G01*
X3491229Y8539987D01*
X3482086Y8544305D01*
X3468370Y8544305D01*
X3459225Y8539987D01*
X3450336Y8530844D01*
X3445763Y8517128D01*
X3445763Y8507729D01*
X3450336Y8494268D01*
X3459225Y8485378D01*
X3468370Y8480805D01*
X3482086Y8480805D01*
X3491229Y8485378D01*
X3500120Y8494268D01*
X3530345Y8544305D02*
G01*
X3530345Y8480805D01*
X3530345Y8517128D02*
G01*
X3534663Y8530844D01*
X3543808Y8539987D01*
X3552952Y8544305D01*
X3566668Y8544305D01*
X3619245Y8544305D02*
G01*
X3610356Y8539987D01*
X3601211Y8530844D01*
X3596640Y8517128D01*
X3596640Y8507729D01*
X3601211Y8494268D01*
X3610356Y8485378D01*
X3619245Y8480805D01*
X3632961Y8480805D01*
X3642106Y8485378D01*
X3651250Y8494268D01*
X3655568Y8507729D01*
X3655568Y8517128D01*
X3651250Y8530844D01*
X3642106Y8539987D01*
X3632961Y8544305D01*
X3619245Y8544305D01*
X3755643Y8576310D02*
G01*
X3755643Y8480805D01*
X3755643Y8576310D02*
G01*
X3796538Y8576310D01*
X3810254Y8571737D01*
X3814825Y8567165D01*
X3819397Y8557768D01*
X3819397Y8548878D01*
X3814825Y8539987D01*
X3810254Y8535415D01*
X3796538Y8530844D01*
X3755643Y8530844D02*
G01*
X3796538Y8530844D01*
X3810254Y8526018D01*
X3814825Y8521700D01*
X3819397Y8512555D01*
X3819397Y8499094D01*
X3814825Y8489950D01*
X3810254Y8485378D01*
X3796538Y8480805D01*
X3755643Y8480805D01*
X2971800Y11762231D02*
G01*
X2971800Y11676126D01*
X2971800Y11762231D02*
G01*
X3024886Y11762231D01*
X2971800Y11721084D02*
G01*
X3004565Y11721084D01*
X2971800Y11676126D02*
G01*
X3024886Y11676126D01*
X3109213Y11749786D02*
G01*
X3101086Y11757913D01*
X3088893Y11762231D01*
X3072384Y11762231D01*
X3060191Y11757913D01*
X3052063Y11749786D01*
X3052063Y11741658D01*
X3056127Y11733529D01*
X3060191Y11729465D01*
X3068320Y11725402D01*
X3092958Y11717020D01*
X3101086Y11712955D01*
X3105150Y11708892D01*
X3109213Y11700763D01*
X3109213Y11688571D01*
X3101086Y11680189D01*
X3088893Y11676126D01*
X3072384Y11676126D01*
X3060191Y11680189D01*
X3052063Y11688571D01*
X3136138Y11762231D02*
G01*
X3136138Y11676126D01*
X3136138Y11762231D02*
G01*
X3172968Y11762231D01*
X3185413Y11757913D01*
X3189477Y11753850D01*
X3193541Y11745721D01*
X3193541Y11733529D01*
X3189477Y11725402D01*
X3185413Y11721084D01*
X3172968Y11717020D01*
X3136138Y11717020D01*
X3220465Y11712955D02*
G01*
X3294125Y11712955D01*
X3321050Y11762231D02*
G01*
X3341624Y11676126D01*
X3362197Y11762231D02*
G01*
X3341624Y11676126D01*
X3362197Y11762231D02*
G01*
X3382518Y11676126D01*
X3403091Y11762231D02*
G01*
X3382518Y11676126D01*
X3430015Y11762231D02*
G01*
X3430015Y11676126D01*
X3430015Y11762231D02*
G01*
X3466845Y11762231D01*
X3479038Y11757913D01*
X3483102Y11753850D01*
X3487165Y11745721D01*
X3487165Y11737594D01*
X3483102Y11729465D01*
X3479038Y11725402D01*
X3466845Y11721084D01*
X3430015Y11721084D01*
X3458718Y11721084D02*
G01*
X3487165Y11676126D01*
X3538727Y11762231D02*
G01*
X3530600Y11757913D01*
X3522472Y11749786D01*
X3518408Y11741658D01*
X3514343Y11729465D01*
X3514343Y11708892D01*
X3518408Y11696700D01*
X3522472Y11688571D01*
X3530600Y11680189D01*
X3538727Y11676126D01*
X3555238Y11676126D01*
X3563365Y11680189D01*
X3571493Y11688571D01*
X3575558Y11696700D01*
X3579622Y11708892D01*
X3579622Y11729465D01*
X3575558Y11741658D01*
X3571493Y11749786D01*
X3563365Y11757913D01*
X3555238Y11762231D01*
X3538727Y11762231D01*
X3606800Y11762231D02*
G01*
X3639311Y11676126D01*
X3672077Y11762231D02*
G01*
X3639311Y11676126D01*
X3699256Y11762231D02*
G01*
X3699256Y11676126D01*
X3699256Y11762231D02*
G01*
X3752341Y11762231D01*
X3699256Y11721084D02*
G01*
X3731768Y11721084D01*
X3699256Y11676126D02*
G01*
X3752341Y11676126D01*
X3779265Y11762231D02*
G01*
X3779265Y11676126D01*
X3779265Y11762231D02*
G01*
X3816095Y11762231D01*
X3828541Y11757913D01*
X3832606Y11753850D01*
X3836670Y11745721D01*
X3836670Y11737594D01*
X3832606Y11729465D01*
X3828541Y11725402D01*
X3816095Y11721084D01*
X3779265Y11721084D01*
X3807968Y11721084D02*
G01*
X3836670Y11676126D01*
X3863593Y11712955D02*
G01*
X3937254Y11712955D01*
X3972559Y11762231D02*
G01*
X4017518Y11762231D01*
X3992879Y11729465D01*
X4005072Y11729465D01*
X4013454Y11725402D01*
X4017518Y11721084D01*
X4021581Y11708892D01*
X4021581Y11700763D01*
X4017518Y11688571D01*
X4009136Y11680189D01*
X3996943Y11676126D01*
X3984752Y11676126D01*
X3972559Y11680189D01*
X3968241Y11684508D01*
X3964177Y11692636D01*
X4052570Y11741658D02*
G01*
X4052570Y11745721D01*
X4056634Y11753850D01*
X4060697Y11757913D01*
X4069079Y11762231D01*
X4085336Y11762231D01*
X4093463Y11757913D01*
X4097527Y11753850D01*
X4101591Y11745721D01*
X4101591Y11737594D01*
X4097527Y11729465D01*
X4089400Y11717020D01*
X4048506Y11676126D01*
X4105909Y11676126D01*
X2387600Y9655555D02*
G01*
X2387600Y9582658D01*
X2431288Y9655555D02*
G01*
X2424429Y9652000D01*
X2417318Y9645142D01*
X2414015Y9638029D01*
X2410459Y9627870D01*
X2410459Y9610344D01*
X2414015Y9599929D01*
X2417318Y9593071D01*
X2424429Y9586213D01*
X2431288Y9582658D01*
X2445004Y9582658D01*
X2452115Y9586213D01*
X2458974Y9593071D01*
X2462529Y9599929D01*
X2465831Y9610344D01*
X2465831Y9627870D01*
X2462529Y9638029D01*
X2458974Y9645142D01*
X2452115Y9652000D01*
X2445004Y9655555D01*
X2431288Y9655555D01*
X2488691Y9641586D02*
G01*
X2495550Y9645142D01*
X2505963Y9655555D01*
X2505963Y9582658D01*
X2535936Y9655555D02*
G01*
X2574036Y9655555D01*
X2553208Y9627870D01*
X2563622Y9627870D01*
X2570479Y9624313D01*
X2574036Y9620758D01*
X2577338Y9610344D01*
X2577338Y9603486D01*
X2574036Y9593071D01*
X2566924Y9586213D01*
X2556509Y9582658D01*
X2546350Y9582658D01*
X2535936Y9586213D01*
X2532379Y9589770D01*
X2528824Y9596628D01*
X2439670Y9892029D02*
G01*
X2436113Y9899142D01*
X2429256Y9906000D01*
X2422143Y9909555D01*
X2408427Y9909555D01*
X2401570Y9906000D01*
X2394458Y9899142D01*
X2391156Y9892029D01*
X2387600Y9881870D01*
X2387600Y9864344D01*
X2391156Y9853929D01*
X2394458Y9847071D01*
X2401570Y9840213D01*
X2408427Y9836658D01*
X2422143Y9836658D01*
X2429256Y9840213D01*
X2436113Y9847071D01*
X2439670Y9853929D01*
X2439670Y9864344D01*
X2422143Y9864344D02*
G01*
X2439670Y9864344D01*
X2462529Y9909555D02*
G01*
X2462529Y9836658D01*
X2462529Y9909555D02*
G01*
X2510790Y9836658D01*
X2510790Y9909555D02*
G01*
X2510790Y9836658D01*
X2533650Y9909555D02*
G01*
X2533650Y9836658D01*
X2533650Y9909555D02*
G01*
X2558034Y9909555D01*
X2568447Y9906000D01*
X2575306Y9899142D01*
X2578861Y9892029D01*
X2582163Y9881870D01*
X2582163Y9864344D01*
X2578861Y9853929D01*
X2575306Y9847071D01*
X2568447Y9840213D01*
X2558034Y9836658D01*
X2533650Y9836658D01*
X2387600Y10163555D02*
G01*
X2387600Y10090658D01*
X2431288Y10163555D02*
G01*
X2424429Y10160000D01*
X2417318Y10153142D01*
X2414015Y10146029D01*
X2410459Y10135870D01*
X2410459Y10118344D01*
X2414015Y10107929D01*
X2417318Y10101071D01*
X2424429Y10094213D01*
X2431288Y10090658D01*
X2445004Y10090658D01*
X2452115Y10094213D01*
X2458974Y10101071D01*
X2462529Y10107929D01*
X2465831Y10118344D01*
X2465831Y10135870D01*
X2462529Y10146029D01*
X2458974Y10153142D01*
X2452115Y10160000D01*
X2445004Y10163555D01*
X2431288Y10163555D01*
X2488691Y10149586D02*
G01*
X2495550Y10153142D01*
X2505963Y10163555D01*
X2505963Y10090658D01*
X2532379Y10146029D02*
G01*
X2532379Y10149586D01*
X2535936Y10156444D01*
X2539238Y10160000D01*
X2546350Y10163555D01*
X2560065Y10163555D01*
X2566924Y10160000D01*
X2570479Y10156444D01*
X2574036Y10149586D01*
X2574036Y10142728D01*
X2570479Y10135870D01*
X2563622Y10125455D01*
X2528824Y10090658D01*
X2577338Y10090658D01*
X2387600Y10417555D02*
G01*
X2387600Y10344658D01*
X2431288Y10417555D02*
G01*
X2424429Y10414000D01*
X2417318Y10407142D01*
X2414015Y10400029D01*
X2410459Y10389870D01*
X2410459Y10372344D01*
X2414015Y10361929D01*
X2417318Y10355071D01*
X2424429Y10348213D01*
X2431288Y10344658D01*
X2445004Y10344658D01*
X2452115Y10348213D01*
X2458974Y10355071D01*
X2462529Y10361929D01*
X2465831Y10372344D01*
X2465831Y10389870D01*
X2462529Y10400029D01*
X2458974Y10407142D01*
X2452115Y10414000D01*
X2445004Y10417555D01*
X2431288Y10417555D01*
X2488691Y10403586D02*
G01*
X2495550Y10407142D01*
X2505963Y10417555D01*
X2505963Y10344658D01*
X2563622Y10417555D02*
G01*
X2528824Y10369042D01*
X2580893Y10369042D01*
X2563622Y10417555D02*
G01*
X2563622Y10344658D01*
X2387600Y10671555D02*
G01*
X2387600Y10598658D01*
X2431288Y10671555D02*
G01*
X2424429Y10668000D01*
X2417318Y10661142D01*
X2414015Y10654029D01*
X2410459Y10643870D01*
X2410459Y10626344D01*
X2414015Y10615929D01*
X2417318Y10609071D01*
X2424429Y10602213D01*
X2431288Y10598658D01*
X2445004Y10598658D01*
X2452115Y10602213D01*
X2458974Y10609071D01*
X2462529Y10615929D01*
X2465831Y10626344D01*
X2465831Y10643870D01*
X2462529Y10654029D01*
X2458974Y10661142D01*
X2452115Y10668000D01*
X2445004Y10671555D01*
X2431288Y10671555D01*
X2492247Y10654029D02*
G01*
X2492247Y10657586D01*
X2495550Y10664444D01*
X2499106Y10668000D01*
X2505963Y10671555D01*
X2519934Y10671555D01*
X2526791Y10668000D01*
X2530347Y10664444D01*
X2533650Y10657586D01*
X2533650Y10650728D01*
X2530347Y10643870D01*
X2523490Y10633455D01*
X2488691Y10598658D01*
X2537206Y10598658D01*
X2608579Y10671555D02*
G01*
X2574036Y10598658D01*
X2560065Y10671555D02*
G01*
X2608579Y10671555D01*
X2387600Y10925555D02*
G01*
X2387600Y10852658D01*
X2431288Y10925555D02*
G01*
X2424429Y10922000D01*
X2417318Y10915142D01*
X2414015Y10908029D01*
X2410459Y10897870D01*
X2410459Y10880344D01*
X2414015Y10869929D01*
X2417318Y10863071D01*
X2424429Y10856213D01*
X2431288Y10852658D01*
X2445004Y10852658D01*
X2452115Y10856213D01*
X2458974Y10863071D01*
X2462529Y10869929D01*
X2465831Y10880344D01*
X2465831Y10897870D01*
X2462529Y10908029D01*
X2458974Y10915142D01*
X2452115Y10922000D01*
X2445004Y10925555D01*
X2431288Y10925555D01*
X2492247Y10908029D02*
G01*
X2492247Y10911586D01*
X2495550Y10918444D01*
X2499106Y10922000D01*
X2505963Y10925555D01*
X2519934Y10925555D01*
X2526791Y10922000D01*
X2530347Y10918444D01*
X2533650Y10911586D01*
X2533650Y10904728D01*
X2530347Y10897870D01*
X2523490Y10887455D01*
X2488691Y10852658D01*
X2537206Y10852658D01*
X2601722Y10915142D02*
G01*
X2598165Y10922000D01*
X2587752Y10925555D01*
X2580893Y10925555D01*
X2570479Y10922000D01*
X2563622Y10911586D01*
X2560065Y10894313D01*
X2560065Y10877042D01*
X2563622Y10863071D01*
X2570479Y10856213D01*
X2580893Y10852658D01*
X2584450Y10852658D01*
X2594609Y10856213D01*
X2601722Y10863071D01*
X2605024Y10873486D01*
X2605024Y10877042D01*
X2601722Y10887455D01*
X2594609Y10894313D01*
X2584450Y10897870D01*
X2580893Y10897870D01*
X2570479Y10894313D01*
X2563622Y10887455D01*
X2560065Y10877042D01*
X2387600Y11179555D02*
G01*
X2387600Y11106658D01*
X2431288Y11179555D02*
G01*
X2424429Y11176000D01*
X2417318Y11169142D01*
X2414015Y11162029D01*
X2410459Y11151870D01*
X2410459Y11134344D01*
X2414015Y11123929D01*
X2417318Y11117071D01*
X2424429Y11110213D01*
X2431288Y11106658D01*
X2445004Y11106658D01*
X2452115Y11110213D01*
X2458974Y11117071D01*
X2462529Y11123929D01*
X2465831Y11134344D01*
X2465831Y11151870D01*
X2462529Y11162029D01*
X2458974Y11169142D01*
X2452115Y11176000D01*
X2445004Y11179555D01*
X2431288Y11179555D01*
X2492247Y11162029D02*
G01*
X2492247Y11165586D01*
X2495550Y11172444D01*
X2499106Y11176000D01*
X2505963Y11179555D01*
X2519934Y11179555D01*
X2526791Y11176000D01*
X2530347Y11172444D01*
X2533650Y11165586D01*
X2533650Y11158728D01*
X2530347Y11151870D01*
X2523490Y11141455D01*
X2488691Y11106658D01*
X2537206Y11106658D01*
X2601722Y11179555D02*
G01*
X2566924Y11179555D01*
X2563622Y11148313D01*
X2566924Y11151870D01*
X2577338Y11155171D01*
X2587752Y11155171D01*
X2598165Y11151870D01*
X2605024Y11144758D01*
X2608579Y11134344D01*
X2608579Y11127486D01*
X2605024Y11117071D01*
X2598165Y11110213D01*
X2587752Y11106658D01*
X2577338Y11106658D01*
X2566924Y11110213D01*
X2563622Y11113770D01*
X2560065Y11120628D01*
X2387600Y11433555D02*
G01*
X2387600Y11360658D01*
X2431288Y11433555D02*
G01*
X2424429Y11430000D01*
X2417318Y11423142D01*
X2414015Y11416029D01*
X2410459Y11405870D01*
X2410459Y11388344D01*
X2414015Y11377929D01*
X2417318Y11371071D01*
X2424429Y11364213D01*
X2431288Y11360658D01*
X2445004Y11360658D01*
X2452115Y11364213D01*
X2458974Y11371071D01*
X2462529Y11377929D01*
X2465831Y11388344D01*
X2465831Y11405870D01*
X2462529Y11416029D01*
X2458974Y11423142D01*
X2452115Y11430000D01*
X2445004Y11433555D01*
X2431288Y11433555D01*
X2495550Y11433555D02*
G01*
X2533650Y11433555D01*
X2513075Y11405870D01*
X2523490Y11405870D01*
X2530347Y11402313D01*
X2533650Y11398758D01*
X2537206Y11388344D01*
X2537206Y11381486D01*
X2533650Y11371071D01*
X2526791Y11364213D01*
X2516377Y11360658D01*
X2505963Y11360658D01*
X2495550Y11364213D01*
X2492247Y11367770D01*
X2488691Y11374628D01*
X2566924Y11433555D02*
G01*
X2605024Y11433555D01*
X2584450Y11405870D01*
X2594609Y11405870D01*
X2601722Y11402313D01*
X2605024Y11398758D01*
X2608579Y11388344D01*
X2608579Y11381486D01*
X2605024Y11371071D01*
X2598165Y11364213D01*
X2587752Y11360658D01*
X2577338Y11360658D01*
X2566924Y11364213D01*
X2563622Y11367770D01*
X2560065Y11374628D01*
X2387600Y11687555D02*
G01*
X2387600Y11614658D01*
X2431288Y11687555D02*
G01*
X2424429Y11684000D01*
X2417318Y11677142D01*
X2414015Y11670029D01*
X2410459Y11659870D01*
X2410459Y11642344D01*
X2414015Y11631929D01*
X2417318Y11625071D01*
X2424429Y11618213D01*
X2431288Y11614658D01*
X2445004Y11614658D01*
X2452115Y11618213D01*
X2458974Y11625071D01*
X2462529Y11631929D01*
X2465831Y11642344D01*
X2465831Y11659870D01*
X2462529Y11670029D01*
X2458974Y11677142D01*
X2452115Y11684000D01*
X2445004Y11687555D01*
X2431288Y11687555D01*
X2495550Y11687555D02*
G01*
X2533650Y11687555D01*
X2513075Y11659870D01*
X2523490Y11659870D01*
X2530347Y11656313D01*
X2533650Y11652758D01*
X2537206Y11642344D01*
X2537206Y11635486D01*
X2533650Y11625071D01*
X2526791Y11618213D01*
X2516377Y11614658D01*
X2505963Y11614658D01*
X2495550Y11618213D01*
X2492247Y11621770D01*
X2488691Y11628628D01*
X2563622Y11670029D02*
G01*
X2563622Y11673586D01*
X2566924Y11680444D01*
X2570479Y11684000D01*
X2577338Y11687555D01*
X2591308Y11687555D01*
X2598165Y11684000D01*
X2601722Y11680444D01*
X2605024Y11673586D01*
X2605024Y11666728D01*
X2601722Y11659870D01*
X2594609Y11649455D01*
X2560065Y11614658D01*
X2608579Y11614658D01*
X2387600Y11941555D02*
G01*
X2387600Y11868658D01*
X2431288Y11941555D02*
G01*
X2424429Y11938000D01*
X2417318Y11931142D01*
X2414015Y11924029D01*
X2410459Y11913870D01*
X2410459Y11896344D01*
X2414015Y11885929D01*
X2417318Y11879071D01*
X2424429Y11872213D01*
X2431288Y11868658D01*
X2445004Y11868658D01*
X2452115Y11872213D01*
X2458974Y11879071D01*
X2462529Y11885929D01*
X2465831Y11896344D01*
X2465831Y11913870D01*
X2462529Y11924029D01*
X2458974Y11931142D01*
X2452115Y11938000D01*
X2445004Y11941555D01*
X2431288Y11941555D01*
X2495550Y11941555D02*
G01*
X2533650Y11941555D01*
X2513075Y11913870D01*
X2523490Y11913870D01*
X2530347Y11910313D01*
X2533650Y11906758D01*
X2537206Y11896344D01*
X2537206Y11889486D01*
X2533650Y11879071D01*
X2526791Y11872213D01*
X2516377Y11868658D01*
X2505963Y11868658D01*
X2495550Y11872213D01*
X2492247Y11875770D01*
X2488691Y11882628D01*
X2601722Y11941555D02*
G01*
X2566924Y11941555D01*
X2563622Y11910313D01*
X2566924Y11913870D01*
X2577338Y11917171D01*
X2587752Y11917171D01*
X2598165Y11913870D01*
X2605024Y11906758D01*
X2608579Y11896344D01*
X2608579Y11889486D01*
X2605024Y11879071D01*
X2598165Y11872213D01*
X2587752Y11868658D01*
X2577338Y11868658D01*
X2566924Y11872213D01*
X2563622Y11875770D01*
X2560065Y11882628D01*
X2387600Y12195555D02*
G01*
X2387600Y12122658D01*
X2431288Y12195555D02*
G01*
X2424429Y12192000D01*
X2417318Y12185142D01*
X2414015Y12178029D01*
X2410459Y12167870D01*
X2410459Y12150344D01*
X2414015Y12139929D01*
X2417318Y12133071D01*
X2424429Y12126213D01*
X2431288Y12122658D01*
X2445004Y12122658D01*
X2452115Y12126213D01*
X2458974Y12133071D01*
X2462529Y12139929D01*
X2465831Y12150344D01*
X2465831Y12167870D01*
X2462529Y12178029D01*
X2458974Y12185142D01*
X2452115Y12192000D01*
X2445004Y12195555D01*
X2431288Y12195555D01*
X2495550Y12195555D02*
G01*
X2533650Y12195555D01*
X2513075Y12167870D01*
X2523490Y12167870D01*
X2530347Y12164313D01*
X2533650Y12160758D01*
X2537206Y12150344D01*
X2537206Y12143486D01*
X2533650Y12133071D01*
X2526791Y12126213D01*
X2516377Y12122658D01*
X2505963Y12122658D01*
X2495550Y12126213D01*
X2492247Y12129770D01*
X2488691Y12136628D01*
X2594609Y12195555D02*
G01*
X2560065Y12147042D01*
X2612136Y12147042D01*
X2594609Y12195555D02*
G01*
X2594609Y12122658D01*
X2436113Y12439142D02*
G01*
X2429256Y12446000D01*
X2418841Y12449555D01*
X2404872Y12449555D01*
X2394458Y12446000D01*
X2387600Y12439142D01*
X2387600Y12432029D01*
X2391156Y12425171D01*
X2394458Y12421870D01*
X2401570Y12418313D01*
X2422143Y12411455D01*
X2429256Y12407900D01*
X2432558Y12404344D01*
X2436113Y12397486D01*
X2436113Y12387071D01*
X2429256Y12380213D01*
X2418841Y12376658D01*
X2404872Y12376658D01*
X2394458Y12380213D01*
X2387600Y12387071D01*
X2458974Y12449555D02*
G01*
X2486659Y12376658D01*
X2514345Y12449555D02*
G01*
X2486659Y12376658D01*
X2537206Y12449555D02*
G01*
X2537206Y12376658D01*
X2537206Y12449555D02*
G01*
X2585720Y12376658D01*
X2585720Y12449555D02*
G01*
X2585720Y12376658D01*
X2436113Y12693142D02*
G01*
X2429256Y12700000D01*
X2418841Y12703555D01*
X2404872Y12703555D01*
X2394458Y12700000D01*
X2387600Y12693142D01*
X2387600Y12686029D01*
X2391156Y12679171D01*
X2394458Y12675870D01*
X2401570Y12672313D01*
X2422143Y12665455D01*
X2429256Y12661900D01*
X2432558Y12658344D01*
X2436113Y12651486D01*
X2436113Y12641071D01*
X2429256Y12634213D01*
X2418841Y12630658D01*
X2404872Y12630658D01*
X2394458Y12634213D01*
X2387600Y12641071D01*
X2458974Y12703555D02*
G01*
X2486659Y12630658D01*
X2514345Y12703555D02*
G01*
X2486659Y12630658D01*
X2537206Y12703555D02*
G01*
X2537206Y12630658D01*
X2537206Y12703555D02*
G01*
X2568447Y12703555D01*
X2578861Y12700000D01*
X2582163Y12696444D01*
X2585720Y12689586D01*
X2585720Y12679171D01*
X2582163Y12672313D01*
X2578861Y12668758D01*
X2568447Y12665455D01*
X2537206Y12665455D01*
X4470400Y12195555D02*
G01*
X4470400Y12122658D01*
X4470400Y12195555D02*
G01*
X4501641Y12195555D01*
X4512056Y12192000D01*
X4515358Y12188444D01*
X4518913Y12181586D01*
X4518913Y12174728D01*
X4515358Y12167870D01*
X4512056Y12164313D01*
X4501641Y12160758D01*
X4470400Y12160758D01*
X4494529Y12160758D02*
G01*
X4518913Y12122658D01*
X4541774Y12195555D02*
G01*
X4590288Y12122658D01*
X4590288Y12195555D02*
G01*
X4541774Y12122658D01*
X4633975Y12195555D02*
G01*
X4623561Y12192000D01*
X4616450Y12181586D01*
X4613147Y12164313D01*
X4613147Y12153900D01*
X4616450Y12136628D01*
X4623561Y12126213D01*
X4633975Y12122658D01*
X4640834Y12122658D01*
X4651247Y12126213D01*
X4658106Y12136628D01*
X4661661Y12153900D01*
X4661661Y12164313D01*
X4658106Y12181586D01*
X4651247Y12192000D01*
X4640834Y12195555D01*
X4633975Y12195555D01*
X4470400Y9401555D02*
G01*
X4470400Y9328658D01*
X4514088Y9401555D02*
G01*
X4507229Y9398000D01*
X4500118Y9391142D01*
X4496815Y9384029D01*
X4493259Y9373870D01*
X4493259Y9356344D01*
X4496815Y9345929D01*
X4500118Y9339071D01*
X4507229Y9332213D01*
X4514088Y9328658D01*
X4527804Y9328658D01*
X4534915Y9332213D01*
X4541774Y9339071D01*
X4545329Y9345929D01*
X4548631Y9356344D01*
X4548631Y9373870D01*
X4545329Y9384029D01*
X4541774Y9391142D01*
X4534915Y9398000D01*
X4527804Y9401555D01*
X4514088Y9401555D01*
X4571491Y9387586D02*
G01*
X4578350Y9391142D01*
X4588763Y9401555D01*
X4588763Y9328658D01*
X4653279Y9401555D02*
G01*
X4618736Y9401555D01*
X4615179Y9370313D01*
X4618736Y9373870D01*
X4629150Y9377171D01*
X4639309Y9377171D01*
X4649724Y9373870D01*
X4656836Y9366758D01*
X4660138Y9356344D01*
X4660138Y9349486D01*
X4656836Y9339071D01*
X4649724Y9332213D01*
X4639309Y9328658D01*
X4629150Y9328658D01*
X4618736Y9332213D01*
X4615179Y9335770D01*
X4611624Y9342628D01*
X4521200Y9655555D02*
G01*
X4521200Y9582658D01*
X4564888Y9655555D02*
G01*
X4558029Y9652000D01*
X4550918Y9645142D01*
X4547615Y9638029D01*
X4544059Y9627870D01*
X4544059Y9610344D01*
X4547615Y9599929D01*
X4550918Y9593071D01*
X4558029Y9586213D01*
X4564888Y9582658D01*
X4578604Y9582658D01*
X4585715Y9586213D01*
X4592574Y9593071D01*
X4596129Y9599929D01*
X4599431Y9610344D01*
X4599431Y9627870D01*
X4596129Y9638029D01*
X4592574Y9645142D01*
X4585715Y9652000D01*
X4578604Y9655555D01*
X4564888Y9655555D01*
X4625847Y9638029D02*
G01*
X4625847Y9641586D01*
X4629150Y9648444D01*
X4632706Y9652000D01*
X4639563Y9655555D01*
X4653534Y9655555D01*
X4660391Y9652000D01*
X4663947Y9648444D01*
X4667250Y9641586D01*
X4667250Y9634728D01*
X4663947Y9627870D01*
X4657090Y9617455D01*
X4622291Y9582658D01*
X4670806Y9582658D01*
X4521200Y9909555D02*
G01*
X4521200Y9836658D01*
X4564888Y9909555D02*
G01*
X4558029Y9906000D01*
X4550918Y9899142D01*
X4547615Y9892029D01*
X4544059Y9881870D01*
X4544059Y9864344D01*
X4547615Y9853929D01*
X4550918Y9847071D01*
X4558029Y9840213D01*
X4564888Y9836658D01*
X4578604Y9836658D01*
X4585715Y9840213D01*
X4592574Y9847071D01*
X4596129Y9853929D01*
X4599431Y9864344D01*
X4599431Y9881870D01*
X4596129Y9892029D01*
X4592574Y9899142D01*
X4585715Y9906000D01*
X4578604Y9909555D01*
X4564888Y9909555D01*
X4643120Y9909555D02*
G01*
X4632706Y9906000D01*
X4625847Y9895586D01*
X4622291Y9878313D01*
X4622291Y9867900D01*
X4625847Y9850628D01*
X4632706Y9840213D01*
X4643120Y9836658D01*
X4649977Y9836658D01*
X4660391Y9840213D01*
X4667250Y9850628D01*
X4670806Y9867900D01*
X4670806Y9878313D01*
X4667250Y9895586D01*
X4660391Y9906000D01*
X4649977Y9909555D01*
X4643120Y9909555D01*
X4521200Y10163555D02*
G01*
X4521200Y10090658D01*
X4564888Y10163555D02*
G01*
X4558029Y10160000D01*
X4550918Y10153142D01*
X4547615Y10146029D01*
X4544059Y10135870D01*
X4544059Y10118344D01*
X4547615Y10107929D01*
X4550918Y10101071D01*
X4558029Y10094213D01*
X4564888Y10090658D01*
X4578604Y10090658D01*
X4585715Y10094213D01*
X4592574Y10101071D01*
X4596129Y10107929D01*
X4599431Y10118344D01*
X4599431Y10135870D01*
X4596129Y10146029D01*
X4592574Y10153142D01*
X4585715Y10160000D01*
X4578604Y10163555D01*
X4564888Y10163555D01*
X4657090Y10163555D02*
G01*
X4622291Y10115042D01*
X4674361Y10115042D01*
X4657090Y10163555D02*
G01*
X4657090Y10090658D01*
X4522470Y10410189D02*
G01*
X4518913Y10417047D01*
X4512056Y10423905D01*
X4504943Y10427462D01*
X4491227Y10427462D01*
X4484370Y10423905D01*
X4477258Y10417047D01*
X4473956Y10410189D01*
X4470400Y10399776D01*
X4470400Y10382250D01*
X4473956Y10372089D01*
X4477258Y10364978D01*
X4484370Y10358120D01*
X4491227Y10354563D01*
X4504943Y10354563D01*
X4512056Y10358120D01*
X4518913Y10364978D01*
X4522470Y10372089D01*
X4522470Y10382250D01*
X4504943Y10382250D02*
G01*
X4522470Y10382250D01*
X4545329Y10427462D02*
G01*
X4545329Y10354563D01*
X4545329Y10427462D02*
G01*
X4593590Y10354563D01*
X4593590Y10427462D02*
G01*
X4593590Y10354563D01*
X4616450Y10427462D02*
G01*
X4616450Y10354563D01*
X4616450Y10427462D02*
G01*
X4640834Y10427462D01*
X4651247Y10423905D01*
X4658106Y10417047D01*
X4661661Y10410189D01*
X4664963Y10399776D01*
X4664963Y10382250D01*
X4661661Y10372089D01*
X4658106Y10364978D01*
X4651247Y10358120D01*
X4640834Y10354563D01*
X4616450Y10354563D01*
X4522470Y10638789D02*
G01*
X4518913Y10645647D01*
X4512056Y10652505D01*
X4504943Y10656062D01*
X4491227Y10656062D01*
X4484370Y10652505D01*
X4477258Y10645647D01*
X4473956Y10638789D01*
X4470400Y10628376D01*
X4470400Y10610850D01*
X4473956Y10600689D01*
X4477258Y10593578D01*
X4484370Y10586720D01*
X4491227Y10583163D01*
X4504943Y10583163D01*
X4512056Y10586720D01*
X4518913Y10593578D01*
X4522470Y10600689D01*
X4522470Y10610850D01*
X4504943Y10610850D02*
G01*
X4522470Y10610850D01*
X4545329Y10656062D02*
G01*
X4545329Y10583163D01*
X4545329Y10656062D02*
G01*
X4593590Y10583163D01*
X4593590Y10656062D02*
G01*
X4593590Y10583163D01*
X4616450Y10656062D02*
G01*
X4616450Y10583163D01*
X4616450Y10656062D02*
G01*
X4640834Y10656062D01*
X4651247Y10652505D01*
X4658106Y10645647D01*
X4661661Y10638789D01*
X4664963Y10628376D01*
X4664963Y10610850D01*
X4661661Y10600689D01*
X4658106Y10593578D01*
X4651247Y10586720D01*
X4640834Y10583163D01*
X4616450Y10583163D01*
X4521200Y10925555D02*
G01*
X4521200Y10852658D01*
X4564888Y10925555D02*
G01*
X4558029Y10922000D01*
X4550918Y10915142D01*
X4547615Y10908029D01*
X4544059Y10897870D01*
X4544059Y10880344D01*
X4547615Y10869929D01*
X4550918Y10863071D01*
X4558029Y10856213D01*
X4564888Y10852658D01*
X4578604Y10852658D01*
X4585715Y10856213D01*
X4592574Y10863071D01*
X4596129Y10869929D01*
X4599431Y10880344D01*
X4599431Y10897870D01*
X4596129Y10908029D01*
X4592574Y10915142D01*
X4585715Y10922000D01*
X4578604Y10925555D01*
X4564888Y10925555D01*
X4663947Y10925555D02*
G01*
X4629150Y10925555D01*
X4625847Y10894313D01*
X4629150Y10897870D01*
X4639563Y10901171D01*
X4649977Y10901171D01*
X4660391Y10897870D01*
X4667250Y10890758D01*
X4670806Y10880344D01*
X4670806Y10873486D01*
X4667250Y10863071D01*
X4660391Y10856213D01*
X4649977Y10852658D01*
X4639563Y10852658D01*
X4629150Y10856213D01*
X4625847Y10859770D01*
X4622291Y10866628D01*
X4470400Y11179555D02*
G01*
X4470400Y11106658D01*
X4514088Y11179555D02*
G01*
X4507229Y11176000D01*
X4500118Y11169142D01*
X4496815Y11162029D01*
X4493259Y11151870D01*
X4493259Y11134344D01*
X4496815Y11123929D01*
X4500118Y11117071D01*
X4507229Y11110213D01*
X4514088Y11106658D01*
X4527804Y11106658D01*
X4534915Y11110213D01*
X4541774Y11117071D01*
X4545329Y11123929D01*
X4548631Y11134344D01*
X4548631Y11151870D01*
X4545329Y11162029D01*
X4541774Y11169142D01*
X4534915Y11176000D01*
X4527804Y11179555D01*
X4514088Y11179555D01*
X4571491Y11165586D02*
G01*
X4578350Y11169142D01*
X4588763Y11179555D01*
X4588763Y11106658D01*
X4629150Y11179555D02*
G01*
X4618736Y11176000D01*
X4615179Y11169142D01*
X4615179Y11162029D01*
X4618736Y11155171D01*
X4625593Y11151870D01*
X4639309Y11148313D01*
X4649724Y11144758D01*
X4656836Y11137900D01*
X4660138Y11131042D01*
X4660138Y11120628D01*
X4656836Y11113770D01*
X4653279Y11110213D01*
X4642865Y11106658D01*
X4629150Y11106658D01*
X4618736Y11110213D01*
X4615179Y11113770D01*
X4611624Y11120628D01*
X4611624Y11131042D01*
X4615179Y11137900D01*
X4622038Y11144758D01*
X4632452Y11148313D01*
X4646422Y11151870D01*
X4653279Y11155171D01*
X4656836Y11162029D01*
X4656836Y11169142D01*
X4653279Y11176000D01*
X4642865Y11179555D01*
X4629150Y11179555D01*
X4470400Y11433555D02*
G01*
X4470400Y11360658D01*
X4514088Y11433555D02*
G01*
X4507229Y11430000D01*
X4500118Y11423142D01*
X4496815Y11416029D01*
X4493259Y11405870D01*
X4493259Y11388344D01*
X4496815Y11377929D01*
X4500118Y11371071D01*
X4507229Y11364213D01*
X4514088Y11360658D01*
X4527804Y11360658D01*
X4534915Y11364213D01*
X4541774Y11371071D01*
X4545329Y11377929D01*
X4548631Y11388344D01*
X4548631Y11405870D01*
X4545329Y11416029D01*
X4541774Y11423142D01*
X4534915Y11430000D01*
X4527804Y11433555D01*
X4514088Y11433555D01*
X4571491Y11419586D02*
G01*
X4578350Y11423142D01*
X4588763Y11433555D01*
X4588763Y11360658D01*
X4656836Y11409171D02*
G01*
X4653279Y11398758D01*
X4646422Y11391900D01*
X4636008Y11388344D01*
X4632452Y11388344D01*
X4622038Y11391900D01*
X4615179Y11398758D01*
X4611624Y11409171D01*
X4611624Y11412728D01*
X4615179Y11423142D01*
X4622038Y11430000D01*
X4632452Y11433555D01*
X4636008Y11433555D01*
X4646422Y11430000D01*
X4653279Y11423142D01*
X4656836Y11409171D01*
X4656836Y11391900D01*
X4653279Y11374628D01*
X4646422Y11364213D01*
X4636008Y11360658D01*
X4629150Y11360658D01*
X4618736Y11364213D01*
X4615179Y11371071D01*
X4522470Y11670029D02*
G01*
X4518913Y11677142D01*
X4512056Y11684000D01*
X4504943Y11687555D01*
X4491227Y11687555D01*
X4484370Y11684000D01*
X4477258Y11677142D01*
X4473956Y11670029D01*
X4470400Y11659870D01*
X4470400Y11642344D01*
X4473956Y11631929D01*
X4477258Y11625071D01*
X4484370Y11618213D01*
X4491227Y11614658D01*
X4504943Y11614658D01*
X4512056Y11618213D01*
X4518913Y11625071D01*
X4522470Y11631929D01*
X4522470Y11642344D01*
X4504943Y11642344D02*
G01*
X4522470Y11642344D01*
X4545329Y11687555D02*
G01*
X4545329Y11614658D01*
X4545329Y11687555D02*
G01*
X4593590Y11614658D01*
X4593590Y11687555D02*
G01*
X4593590Y11614658D01*
X4616450Y11687555D02*
G01*
X4616450Y11614658D01*
X4616450Y11687555D02*
G01*
X4640834Y11687555D01*
X4651247Y11684000D01*
X4658106Y11677142D01*
X4661661Y11670029D01*
X4664963Y11659870D01*
X4664963Y11642344D01*
X4661661Y11631929D01*
X4658106Y11625071D01*
X4651247Y11618213D01*
X4640834Y11614658D01*
X4616450Y11614658D01*
X4470400Y11941555D02*
G01*
X4470400Y11868658D01*
X4514088Y11941555D02*
G01*
X4507229Y11938000D01*
X4500118Y11931142D01*
X4496815Y11924029D01*
X4493259Y11913870D01*
X4493259Y11896344D01*
X4496815Y11885929D01*
X4500118Y11879071D01*
X4507229Y11872213D01*
X4514088Y11868658D01*
X4527804Y11868658D01*
X4534915Y11872213D01*
X4541774Y11879071D01*
X4545329Y11885929D01*
X4548631Y11896344D01*
X4548631Y11913870D01*
X4545329Y11924029D01*
X4541774Y11931142D01*
X4534915Y11938000D01*
X4527804Y11941555D01*
X4514088Y11941555D01*
X4575047Y11924029D02*
G01*
X4575047Y11927586D01*
X4578350Y11934444D01*
X4581906Y11938000D01*
X4588763Y11941555D01*
X4602734Y11941555D01*
X4609591Y11938000D01*
X4613147Y11934444D01*
X4616450Y11927586D01*
X4616450Y11920728D01*
X4613147Y11913870D01*
X4606290Y11903455D01*
X4571491Y11868658D01*
X4620006Y11868658D01*
X4642865Y11927586D02*
G01*
X4649724Y11931142D01*
X4660138Y11941555D01*
X4660138Y11868658D01*
X4494529Y12449555D02*
G01*
X4494529Y12376658D01*
X4470400Y12449555D02*
G01*
X4518913Y12449555D01*
X4541774Y12449555D02*
G01*
X4590288Y12376658D01*
X4590288Y12449555D02*
G01*
X4541774Y12376658D01*
X4633975Y12449555D02*
G01*
X4623561Y12446000D01*
X4616450Y12435586D01*
X4613147Y12418313D01*
X4613147Y12407900D01*
X4616450Y12390628D01*
X4623561Y12380213D01*
X4633975Y12376658D01*
X4640834Y12376658D01*
X4651247Y12380213D01*
X4658106Y12390628D01*
X4661661Y12407900D01*
X4661661Y12418313D01*
X4658106Y12435586D01*
X4651247Y12446000D01*
X4640834Y12449555D01*
X4633975Y12449555D01*
X4445000Y12703555D02*
G01*
X4445000Y12630658D01*
X4488688Y12703555D02*
G01*
X4481829Y12700000D01*
X4474718Y12693142D01*
X4471415Y12686029D01*
X4467859Y12675870D01*
X4467859Y12658344D01*
X4471415Y12647929D01*
X4474718Y12641071D01*
X4481829Y12634213D01*
X4488688Y12630658D01*
X4502404Y12630658D01*
X4509515Y12634213D01*
X4516374Y12641071D01*
X4519929Y12647929D01*
X4523231Y12658344D01*
X4523231Y12675870D01*
X4519929Y12686029D01*
X4516374Y12693142D01*
X4509515Y12700000D01*
X4502404Y12703555D01*
X4488688Y12703555D01*
X4549647Y12686029D02*
G01*
X4549647Y12689586D01*
X4552950Y12696444D01*
X4556506Y12700000D01*
X4563363Y12703555D01*
X4577334Y12703555D01*
X4584191Y12700000D01*
X4587747Y12696444D01*
X4591050Y12689586D01*
X4591050Y12682728D01*
X4587747Y12675870D01*
X4580890Y12665455D01*
X4546091Y12630658D01*
X4594606Y12630658D01*
X4621022Y12686029D02*
G01*
X4621022Y12689586D01*
X4624324Y12696444D01*
X4627879Y12700000D01*
X4634738Y12703555D01*
X4648708Y12703555D01*
X4655565Y12700000D01*
X4659122Y12696444D01*
X4662424Y12689586D01*
X4662424Y12682728D01*
X4659122Y12675870D01*
X4652009Y12665455D01*
X4617465Y12630658D01*
X4665979Y12630658D01*
X4445000Y12957555D02*
G01*
X4445000Y12884658D01*
X4488688Y12957555D02*
G01*
X4481829Y12954000D01*
X4474718Y12947142D01*
X4471415Y12940029D01*
X4467859Y12929870D01*
X4467859Y12912344D01*
X4471415Y12901929D01*
X4474718Y12895071D01*
X4481829Y12888213D01*
X4488688Y12884658D01*
X4502404Y12884658D01*
X4509515Y12888213D01*
X4516374Y12895071D01*
X4519929Y12901929D01*
X4523231Y12912344D01*
X4523231Y12929870D01*
X4519929Y12940029D01*
X4516374Y12947142D01*
X4509515Y12954000D01*
X4502404Y12957555D01*
X4488688Y12957555D01*
X4549647Y12940029D02*
G01*
X4549647Y12943586D01*
X4552950Y12950444D01*
X4556506Y12954000D01*
X4563363Y12957555D01*
X4577334Y12957555D01*
X4584191Y12954000D01*
X4587747Y12950444D01*
X4591050Y12943586D01*
X4591050Y12936728D01*
X4587747Y12929870D01*
X4580890Y12919455D01*
X4546091Y12884658D01*
X4594606Y12884658D01*
X4624324Y12957555D02*
G01*
X4662424Y12957555D01*
X4641850Y12929870D01*
X4652009Y12929870D01*
X4659122Y12926313D01*
X4662424Y12922758D01*
X4665979Y12912344D01*
X4665979Y12905486D01*
X4662424Y12895071D01*
X4655565Y12888213D01*
X4645152Y12884658D01*
X4634738Y12884658D01*
X4624324Y12888213D01*
X4621022Y12891770D01*
X4617465Y12898628D01*
X2387600Y12957555D02*
G01*
X2387600Y12884658D01*
X2387600Y12957555D02*
G01*
X2432558Y12957555D01*
X2387600Y12922758D02*
G01*
X2415286Y12922758D01*
X2387600Y12884658D02*
G01*
X2432558Y12884658D01*
X2455418Y12957555D02*
G01*
X2455418Y12884658D01*
X2455418Y12957555D02*
G01*
X2503931Y12884658D01*
X2503931Y12957555D02*
G01*
X2503931Y12884658D01*
X4544313Y9137142D02*
G01*
X4537456Y9144000D01*
X4527041Y9147555D01*
X4513072Y9147555D01*
X4502658Y9144000D01*
X4495800Y9137142D01*
X4495800Y9130029D01*
X4499356Y9123171D01*
X4502658Y9119870D01*
X4509770Y9116313D01*
X4530343Y9109455D01*
X4537456Y9105900D01*
X4540758Y9102344D01*
X4544313Y9095486D01*
X4544313Y9085071D01*
X4537456Y9078213D01*
X4527041Y9074658D01*
X4513072Y9074658D01*
X4502658Y9078213D01*
X4495800Y9085071D01*
X4567174Y9147555D02*
G01*
X4567174Y9074658D01*
X4567174Y9147555D02*
G01*
X4591304Y9147555D01*
X4601718Y9144000D01*
X4608829Y9137142D01*
X4612131Y9130029D01*
X4615688Y9119870D01*
X4615688Y9102344D01*
X4612131Y9091929D01*
X4608829Y9085071D01*
X4601718Y9078213D01*
X4591304Y9074658D01*
X4567174Y9074658D01*
X4638547Y9133586D02*
G01*
X4645406Y9137142D01*
X4655820Y9147555D01*
X4655820Y9074658D01*
X4544313Y8883142D02*
G01*
X4537456Y8890000D01*
X4527041Y8893555D01*
X4513072Y8893555D01*
X4502658Y8890000D01*
X4495800Y8883142D01*
X4495800Y8876029D01*
X4499356Y8869171D01*
X4502658Y8865870D01*
X4509770Y8862313D01*
X4530343Y8855455D01*
X4537456Y8851900D01*
X4540758Y8848344D01*
X4544313Y8841486D01*
X4544313Y8831071D01*
X4537456Y8824213D01*
X4527041Y8820658D01*
X4513072Y8820658D01*
X4502658Y8824213D01*
X4495800Y8831071D01*
X4567174Y8893555D02*
G01*
X4567174Y8820658D01*
X4567174Y8893555D02*
G01*
X4591304Y8893555D01*
X4601718Y8890000D01*
X4608829Y8883142D01*
X4612131Y8876029D01*
X4615688Y8865870D01*
X4615688Y8848344D01*
X4612131Y8837929D01*
X4608829Y8831071D01*
X4601718Y8824213D01*
X4591304Y8820658D01*
X4567174Y8820658D01*
X4659375Y8893555D02*
G01*
X4648961Y8890000D01*
X4641850Y8879586D01*
X4638547Y8862313D01*
X4638547Y8851900D01*
X4641850Y8834628D01*
X4648961Y8824213D01*
X4659375Y8820658D01*
X4666234Y8820658D01*
X4676647Y8824213D01*
X4683506Y8834628D01*
X4687061Y8851900D01*
X4687061Y8862313D01*
X4683506Y8879586D01*
X4676647Y8890000D01*
X4666234Y8893555D01*
X4659375Y8893555D01*
X4522470Y13194029D02*
G01*
X4518913Y13201142D01*
X4512056Y13208000D01*
X4504943Y13211555D01*
X4491227Y13211555D01*
X4484370Y13208000D01*
X4477258Y13201142D01*
X4473956Y13194029D01*
X4470400Y13183870D01*
X4470400Y13166344D01*
X4473956Y13155929D01*
X4477258Y13149071D01*
X4484370Y13142213D01*
X4491227Y13138657D01*
X4504943Y13138657D01*
X4512056Y13142213D01*
X4518913Y13149071D01*
X4522470Y13155929D01*
X4522470Y13166344D01*
X4504943Y13166344D02*
G01*
X4522470Y13166344D01*
X4545329Y13211555D02*
G01*
X4545329Y13138657D01*
X4545329Y13211555D02*
G01*
X4593590Y13138657D01*
X4593590Y13211555D02*
G01*
X4593590Y13138657D01*
X4616450Y13211555D02*
G01*
X4616450Y13138657D01*
X4616450Y13211555D02*
G01*
X4640834Y13211555D01*
X4651247Y13208000D01*
X4658106Y13201142D01*
X4661661Y13194029D01*
X4664963Y13183870D01*
X4664963Y13166344D01*
X4661661Y13155929D01*
X4658106Y13149071D01*
X4651247Y13142213D01*
X4640834Y13138657D01*
X4616450Y13138657D01*
X2394458Y13211555D02*
G01*
X2432558Y13211555D01*
X2411729Y13183870D01*
X2422143Y13183870D01*
X2429256Y13180313D01*
X2432558Y13176757D01*
X2436113Y13166344D01*
X2436113Y13159486D01*
X2432558Y13149071D01*
X2425700Y13142213D01*
X2415286Y13138657D01*
X2404872Y13138657D01*
X2394458Y13142213D01*
X2391156Y13145770D01*
X2387600Y13152628D01*
X2458974Y13211555D02*
G01*
X2486659Y13138657D01*
X2514345Y13211555D02*
G01*
X2486659Y13138657D01*
X2544063Y13211555D02*
G01*
X2582163Y13211555D01*
X2561590Y13183870D01*
X2571750Y13183870D01*
X2578861Y13180313D01*
X2582163Y13176757D01*
X2585720Y13166344D01*
X2585720Y13159486D01*
X2582163Y13149071D01*
X2575306Y13142213D01*
X2564891Y13138657D01*
X2554477Y13138657D01*
X2544063Y13142213D01*
X2540761Y13145770D01*
X2537206Y13152628D01*
X2436113Y9137142D02*
G01*
X2429256Y9144000D01*
X2418841Y9147555D01*
X2404872Y9147555D01*
X2394458Y9144000D01*
X2387600Y9137142D01*
X2387600Y9130029D01*
X2391156Y9123171D01*
X2394458Y9119870D01*
X2401570Y9116313D01*
X2422143Y9109455D01*
X2429256Y9105900D01*
X2432558Y9102344D01*
X2436113Y9095486D01*
X2436113Y9085071D01*
X2429256Y9078213D01*
X2418841Y9074658D01*
X2404872Y9074658D01*
X2394458Y9078213D01*
X2387600Y9085071D01*
X2458974Y9147555D02*
G01*
X2458974Y9074658D01*
X2458974Y9147555D02*
G01*
X2483104Y9147555D01*
X2493518Y9144000D01*
X2500629Y9137142D01*
X2503931Y9130029D01*
X2507488Y9119870D01*
X2507488Y9102344D01*
X2503931Y9091929D01*
X2500629Y9085071D01*
X2493518Y9078213D01*
X2483104Y9074658D01*
X2458974Y9074658D01*
X2537206Y9147555D02*
G01*
X2575306Y9147555D01*
X2554477Y9119870D01*
X2564891Y9119870D01*
X2571750Y9116313D01*
X2575306Y9112758D01*
X2578861Y9102344D01*
X2578861Y9095486D01*
X2575306Y9085071D01*
X2568447Y9078213D01*
X2558034Y9074658D01*
X2547620Y9074658D01*
X2537206Y9078213D01*
X2533650Y9081770D01*
X2530347Y9088628D01*
X2439670Y8876029D02*
G01*
X2436113Y8883142D01*
X2429256Y8890000D01*
X2422143Y8893555D01*
X2408427Y8893555D01*
X2401570Y8890000D01*
X2394458Y8883142D01*
X2391156Y8876029D01*
X2387600Y8865870D01*
X2387600Y8848344D01*
X2391156Y8837929D01*
X2394458Y8831071D01*
X2401570Y8824213D01*
X2408427Y8820658D01*
X2422143Y8820658D01*
X2429256Y8824213D01*
X2436113Y8831071D01*
X2439670Y8837929D01*
X2462529Y8893555D02*
G01*
X2462529Y8820658D01*
X2462529Y8893555D02*
G01*
X2490215Y8820658D01*
X2517902Y8893555D02*
G01*
X2490215Y8820658D01*
X2517902Y8893555D02*
G01*
X2517902Y8820658D01*
X2540761Y8893555D02*
G01*
X2540761Y8820658D01*
X2540761Y8893555D02*
G01*
X2564891Y8893555D01*
X2575306Y8890000D01*
X2582163Y8883142D01*
X2585720Y8876029D01*
X2589275Y8865870D01*
X2589275Y8848344D01*
X2585720Y8837929D01*
X2582163Y8831071D01*
X2575306Y8824213D01*
X2564891Y8820658D01*
X2540761Y8820658D01*
X2844800Y9354058D02*
G01*
X2844800Y9239504D01*
X2844800Y9354058D02*
G01*
X2915665Y9354058D01*
X2844800Y9299447D02*
G01*
X2888488Y9299447D01*
X2844800Y9239504D02*
G01*
X2915665Y9239504D01*
X3028188Y9337547D02*
G01*
X3017265Y9348470D01*
X3000756Y9354058D01*
X2978911Y9354058D01*
X2962656Y9348470D01*
X2951734Y9337547D01*
X2951734Y9326626D01*
X2957068Y9315704D01*
X2962656Y9310370D01*
X2973577Y9304781D01*
X3006343Y9294113D01*
X3017265Y9288526D01*
X3022600Y9283192D01*
X3028188Y9272270D01*
X3028188Y9255760D01*
X3017265Y9244837D01*
X3000756Y9239504D01*
X2978911Y9239504D01*
X2962656Y9244837D01*
X2951734Y9255760D01*
X3064002Y9354058D02*
G01*
X3064002Y9239504D01*
X3064002Y9354058D02*
G01*
X3113277Y9354058D01*
X3129534Y9348470D01*
X3134868Y9343136D01*
X3140456Y9332213D01*
X3140456Y9315704D01*
X3134868Y9304781D01*
X3129534Y9299447D01*
X3113277Y9294113D01*
X3064002Y9294113D01*
X3187445Y9354058D02*
G01*
X3247390Y9354058D01*
X3214624Y9310370D01*
X3230879Y9310370D01*
X3241802Y9304781D01*
X3247390Y9299447D01*
X3252724Y9283192D01*
X3252724Y9272270D01*
X3247390Y9255760D01*
X3236468Y9244837D01*
X3219958Y9239504D01*
X3203702Y9239504D01*
X3187445Y9244837D01*
X3181858Y9250426D01*
X3176524Y9261347D01*
X3294379Y9326626D02*
G01*
X3294379Y9332213D01*
X3299713Y9343136D01*
X3305047Y9348470D01*
X3315970Y9354058D01*
X3337813Y9354058D01*
X3348736Y9348470D01*
X3354324Y9343136D01*
X3359658Y9332213D01*
X3359658Y9321292D01*
X3354324Y9310370D01*
X3343402Y9294113D01*
X3288791Y9239504D01*
X3365245Y9239504D01*
X3401059Y9288526D02*
G01*
X3499358Y9288526D01*
X3535425Y9354058D02*
G01*
X3562604Y9239504D01*
X3589781Y9354058D02*
G01*
X3562604Y9239504D01*
X3589781Y9354058D02*
G01*
X3617213Y9239504D01*
X3644391Y9354058D02*
G01*
X3617213Y9239504D01*
X3680459Y9354058D02*
G01*
X3680459Y9239504D01*
X3680459Y9354058D02*
G01*
X3729481Y9354058D01*
X3745991Y9348470D01*
X3751325Y9343136D01*
X3756913Y9332213D01*
X3756913Y9321292D01*
X3751325Y9310370D01*
X3745991Y9304781D01*
X3729481Y9299447D01*
X3680459Y9299447D01*
X3718559Y9299447D02*
G01*
X3756913Y9239504D01*
X3825493Y9354058D02*
G01*
X3814572Y9348470D01*
X3803650Y9337547D01*
X3798315Y9326626D01*
X3792727Y9310370D01*
X3792727Y9283192D01*
X3798315Y9266681D01*
X3803650Y9255760D01*
X3814572Y9244837D01*
X3825493Y9239504D01*
X3847338Y9239504D01*
X3858259Y9244837D01*
X3869181Y9255760D01*
X3874515Y9266681D01*
X3880104Y9283192D01*
X3880104Y9310370D01*
X3874515Y9326626D01*
X3869181Y9337547D01*
X3858259Y9348470D01*
X3847338Y9354058D01*
X3825493Y9354058D01*
X3916172Y9354058D02*
G01*
X3959606Y9239504D01*
X4003293Y9354058D02*
G01*
X3959606Y9239504D01*
X4039361Y9354058D02*
G01*
X4039361Y9239504D01*
X4039361Y9354058D02*
G01*
X4110227Y9354058D01*
X4039361Y9299447D02*
G01*
X4083050Y9299447D01*
X4039361Y9239504D02*
G01*
X4110227Y9239504D01*
X4146295Y9354058D02*
G01*
X4146295Y9239504D01*
X4146295Y9354058D02*
G01*
X4195318Y9354058D01*
X4211827Y9348470D01*
X4217161Y9343136D01*
X4222495Y9332213D01*
X4222495Y9321292D01*
X4217161Y9310370D01*
X4211827Y9304781D01*
X4195318Y9299447D01*
X4146295Y9299447D01*
X4184395Y9299447D02*
G01*
X4222495Y9239504D01*
X3348736Y9132315D02*
G01*
X3348736Y9017762D01*
X3348736Y9132315D02*
G01*
X3387090Y9132315D01*
X3403345Y9126981D01*
X3414268Y9116060D01*
X3419602Y9105137D01*
X3425190Y9088628D01*
X3425190Y9061450D01*
X3419602Y9045194D01*
X3414268Y9034271D01*
X3403345Y9023350D01*
X3387090Y9017762D01*
X3348736Y9017762D01*
X3461258Y9132315D02*
G01*
X3461258Y9017762D01*
X3461258Y9132315D02*
G01*
X3532124Y9132315D01*
X3461258Y9077960D02*
G01*
X3504691Y9077960D01*
X3461258Y9017762D02*
G01*
X3532124Y9017762D01*
X3568191Y9132315D02*
G01*
X3611625Y9017762D01*
X3655313Y9132315D02*
G01*
X3611625Y9017762D01*
X4547870Y8622029D02*
G01*
X4544313Y8629142D01*
X4537456Y8636000D01*
X4530343Y8639555D01*
X4516627Y8639555D01*
X4509770Y8636000D01*
X4502658Y8629142D01*
X4499356Y8622029D01*
X4495800Y8611870D01*
X4495800Y8594344D01*
X4499356Y8583929D01*
X4502658Y8577071D01*
X4509770Y8570213D01*
X4516627Y8566658D01*
X4530343Y8566658D01*
X4537456Y8570213D01*
X4544313Y8577071D01*
X4547870Y8583929D01*
X4570729Y8639555D02*
G01*
X4570729Y8566658D01*
X4570729Y8566658D02*
G01*
X4612131Y8566658D01*
X4634991Y8639555D02*
G01*
X4634991Y8566658D01*
X4683506Y8639555D02*
G01*
X4634991Y8591042D01*
X4652263Y8608313D02*
G01*
X4683506Y8566658D01*
X2429256Y8639555D02*
G01*
X2394458Y8639555D01*
X2391156Y8608313D01*
X2394458Y8611870D01*
X2404872Y8615171D01*
X2415286Y8615171D01*
X2425700Y8611870D01*
X2432558Y8604758D01*
X2436113Y8594344D01*
X2436113Y8587486D01*
X2432558Y8577071D01*
X2425700Y8570213D01*
X2415286Y8566658D01*
X2404872Y8566658D01*
X2394458Y8570213D01*
X2391156Y8573770D01*
X2387600Y8580628D01*
X2458974Y8639555D02*
G01*
X2486659Y8566658D01*
X2514345Y8639555D02*
G01*
X2486659Y8566658D01*
X2429256Y8385555D02*
G01*
X2394458Y8385555D01*
X2391156Y8354313D01*
X2394458Y8357870D01*
X2404872Y8361171D01*
X2415286Y8361171D01*
X2425700Y8357870D01*
X2432558Y8350758D01*
X2436113Y8340344D01*
X2436113Y8333486D01*
X2432558Y8323071D01*
X2425700Y8316213D01*
X2415286Y8312658D01*
X2404872Y8312658D01*
X2394458Y8316213D01*
X2391156Y8319770D01*
X2387600Y8326628D01*
X2458974Y8385555D02*
G01*
X2486659Y8312658D01*
X2514345Y8385555D02*
G01*
X2486659Y8312658D01*
X4547870Y8368029D02*
G01*
X4544313Y8375142D01*
X4537456Y8382000D01*
X4530343Y8385555D01*
X4516627Y8385555D01*
X4509770Y8382000D01*
X4502658Y8375142D01*
X4499356Y8368029D01*
X4495800Y8357870D01*
X4495800Y8340344D01*
X4499356Y8329929D01*
X4502658Y8323071D01*
X4509770Y8316213D01*
X4516627Y8312658D01*
X4530343Y8312658D01*
X4537456Y8316213D01*
X4544313Y8323071D01*
X4547870Y8329929D01*
X4547870Y8340344D01*
X4530343Y8340344D02*
G01*
X4547870Y8340344D01*
X4570729Y8385555D02*
G01*
X4570729Y8312658D01*
X4570729Y8385555D02*
G01*
X4618990Y8312658D01*
X4618990Y8385555D02*
G01*
X4618990Y8312658D01*
X4641850Y8385555D02*
G01*
X4641850Y8312658D01*
X4641850Y8385555D02*
G01*
X4666234Y8385555D01*
X4676647Y8382000D01*
X4683506Y8375142D01*
X4687061Y8368029D01*
X4690363Y8357870D01*
X4690363Y8340344D01*
X4687061Y8329929D01*
X4683506Y8323071D01*
X4676647Y8316213D01*
X4666234Y8312658D01*
X4641850Y8312658D01*
X3058668Y9862058D02*
G01*
X3054350Y9870186D01*
X3046222Y9878313D01*
X3038093Y9882631D01*
X3021838Y9882631D01*
X3013456Y9878313D01*
X3005327Y9870186D01*
X3001263Y9862058D01*
X2997200Y9849865D01*
X2997200Y9829292D01*
X3001263Y9817100D01*
X3005327Y9808971D01*
X3013456Y9800589D01*
X3021838Y9796526D01*
X3038093Y9796526D01*
X3046222Y9800589D01*
X3054350Y9808971D01*
X3058668Y9817100D01*
X3134613Y9853929D02*
G01*
X3134613Y9796526D01*
X3134613Y9841484D02*
G01*
X3126486Y9849865D01*
X3118358Y9853929D01*
X3105911Y9853929D01*
X3097784Y9849865D01*
X3089656Y9841484D01*
X3085591Y9829292D01*
X3085591Y9821163D01*
X3089656Y9808971D01*
X3097784Y9800589D01*
X3105911Y9796526D01*
X3118358Y9796526D01*
X3126486Y9800589D01*
X3134613Y9808971D01*
X3161538Y9853929D02*
G01*
X3161538Y9796526D01*
X3161538Y9837420D02*
G01*
X3173984Y9849865D01*
X3182111Y9853929D01*
X3194304Y9853929D01*
X3202686Y9849865D01*
X3206750Y9837420D01*
X3206750Y9796526D01*
X3206750Y9837420D02*
G01*
X3218941Y9849865D01*
X3227070Y9853929D01*
X3239261Y9853929D01*
X3247643Y9849865D01*
X3251708Y9837420D01*
X3251708Y9796526D01*
X3278631Y9829292D02*
G01*
X3327654Y9829292D01*
X3327654Y9837420D01*
X3323590Y9845802D01*
X3319525Y9849865D01*
X3311397Y9853929D01*
X3299206Y9853929D01*
X3290824Y9849865D01*
X3282695Y9841484D01*
X3278631Y9829292D01*
X3278631Y9821163D01*
X3282695Y9808971D01*
X3290824Y9800589D01*
X3299206Y9796526D01*
X3311397Y9796526D01*
X3319525Y9800589D01*
X3327654Y9808971D01*
X3354831Y9853929D02*
G01*
X3354831Y9796526D01*
X3354831Y9829292D02*
G01*
X3358895Y9841484D01*
X3367024Y9849865D01*
X3375152Y9853929D01*
X3387597Y9853929D01*
X3463543Y9853929D02*
G01*
X3463543Y9796526D01*
X3463543Y9841484D02*
G01*
X3455415Y9849865D01*
X3447288Y9853929D01*
X3434841Y9853929D01*
X3426713Y9849865D01*
X3418586Y9841484D01*
X3414522Y9829292D01*
X3414522Y9821163D01*
X3418586Y9808971D01*
X3426713Y9800589D01*
X3434841Y9796526D01*
X3447288Y9796526D01*
X3455415Y9800589D01*
X3463543Y9808971D01*
X3578097Y9882631D02*
G01*
X3569970Y9878313D01*
X3561841Y9870186D01*
X3557777Y9862058D01*
X3553459Y9849865D01*
X3553459Y9829292D01*
X3557777Y9817100D01*
X3561841Y9808971D01*
X3569970Y9800589D01*
X3578097Y9796526D01*
X3594354Y9796526D01*
X3602736Y9800589D01*
X3610863Y9808971D01*
X3614927Y9817100D01*
X3618991Y9829292D01*
X3618991Y9849865D01*
X3614927Y9862058D01*
X3610863Y9870186D01*
X3602736Y9878313D01*
X3594354Y9882631D01*
X3578097Y9882631D01*
X3645915Y9882631D02*
G01*
X3678681Y9796526D01*
X3711447Y9882631D02*
G01*
X3678681Y9796526D01*
X3742436Y9862058D02*
G01*
X3742436Y9866121D01*
X3746754Y9874250D01*
X3750818Y9878313D01*
X3758945Y9882631D01*
X3775202Y9882631D01*
X3783584Y9878313D01*
X3787647Y9874250D01*
X3791711Y9866121D01*
X3791711Y9857994D01*
X3787647Y9849865D01*
X3779265Y9837420D01*
X3738372Y9796526D01*
X3795775Y9796526D01*
X3871722Y9870186D02*
G01*
X3867658Y9878313D01*
X3855465Y9882631D01*
X3847338Y9882631D01*
X3834891Y9878313D01*
X3826763Y9866121D01*
X3822700Y9845802D01*
X3822700Y9825228D01*
X3826763Y9808971D01*
X3834891Y9800589D01*
X3847338Y9796526D01*
X3851402Y9796526D01*
X3863593Y9800589D01*
X3871722Y9808971D01*
X3876040Y9821163D01*
X3876040Y9825228D01*
X3871722Y9837420D01*
X3863593Y9845802D01*
X3851402Y9849865D01*
X3847338Y9849865D01*
X3834891Y9845802D01*
X3826763Y9837420D01*
X3822700Y9825228D01*
X3943858Y9882631D02*
G01*
X3902963Y9825228D01*
X3964177Y9825228D01*
X3943858Y9882631D02*
G01*
X3943858Y9796526D01*
X4015740Y9882631D02*
G01*
X4003547Y9878313D01*
X3995420Y9866121D01*
X3991356Y9845802D01*
X3991356Y9833355D01*
X3995420Y9813036D01*
X4003547Y9800589D01*
X4015740Y9796526D01*
X4024122Y9796526D01*
X4036313Y9800589D01*
X4044441Y9813036D01*
X4048506Y9833355D01*
X4048506Y9845802D01*
X4044441Y9866121D01*
X4036313Y9878313D01*
X4024122Y9882631D01*
X4015740Y9882631D01*
D10*
X6070600Y10173715D02*
G01*
X6070600Y10064750D01*
X6109970Y10147808D02*
G01*
X6109970Y10152887D01*
X6115304Y10163302D01*
X6120384Y10168636D01*
X6130797Y10173715D01*
X6151625Y10173715D01*
X6162040Y10168636D01*
X6167120Y10163302D01*
X6172454Y10152887D01*
X6172454Y10142474D01*
X6167120Y10132060D01*
X6156959Y10116565D01*
X6104890Y10064750D01*
X6177534Y10064750D01*
X6289802Y10147808D02*
G01*
X6284722Y10158221D01*
X6274308Y10168636D01*
X6263893Y10173715D01*
X6243065Y10173715D01*
X6232652Y10168636D01*
X6222238Y10158221D01*
X6217158Y10147808D01*
X6211824Y10132060D01*
X6211824Y10106152D01*
X6217158Y10090658D01*
X6222238Y10080244D01*
X6232652Y10069829D01*
X6243065Y10064750D01*
X6263893Y10064750D01*
X6274308Y10069829D01*
X6284722Y10080244D01*
X6289802Y10090658D01*
X6324091Y10028174D02*
G01*
X6417563Y10028174D01*
X6451854Y10152887D02*
G01*
X6462268Y10158221D01*
X6478015Y10173715D01*
X6478015Y10064750D01*
X6070600Y9411715D02*
G01*
X6070600Y9302750D01*
X6109970Y9385808D02*
G01*
X6109970Y9390887D01*
X6115304Y9401302D01*
X6120384Y9406636D01*
X6130797Y9411715D01*
X6151625Y9411715D01*
X6162040Y9406636D01*
X6167120Y9401302D01*
X6172454Y9390887D01*
X6172454Y9380474D01*
X6167120Y9370060D01*
X6156959Y9354565D01*
X6104890Y9302750D01*
X6177534Y9302750D01*
X6289802Y9385808D02*
G01*
X6284722Y9396221D01*
X6274308Y9406636D01*
X6263893Y9411715D01*
X6243065Y9411715D01*
X6232652Y9406636D01*
X6222238Y9396221D01*
X6217158Y9385808D01*
X6211824Y9370060D01*
X6211824Y9344152D01*
X6217158Y9328658D01*
X6222238Y9318244D01*
X6232652Y9307829D01*
X6243065Y9302750D01*
X6263893Y9302750D01*
X6274308Y9307829D01*
X6284722Y9318244D01*
X6289802Y9328658D01*
X6324091Y9266174D02*
G01*
X6417563Y9266174D01*
X6457188Y9385808D02*
G01*
X6457188Y9390887D01*
X6462268Y9401302D01*
X6467602Y9406636D01*
X6478015Y9411715D01*
X6498590Y9411715D01*
X6509004Y9406636D01*
X6514338Y9401302D01*
X6519418Y9390887D01*
X6519418Y9380474D01*
X6514338Y9370060D01*
X6503924Y9354565D01*
X6451854Y9302750D01*
X6524752Y9302750D01*
X8877300Y8116315D02*
G01*
X8877300Y8007350D01*
X8877300Y8007350D02*
G01*
X8939529Y8007350D01*
X9015475Y8116315D02*
G01*
X8973820Y8007350D01*
X9015475Y8116315D02*
G01*
X9057131Y8007350D01*
X8989568Y8043671D02*
G01*
X9041384Y8043671D01*
X9164065Y8100821D02*
G01*
X9153652Y8111236D01*
X9138158Y8116315D01*
X9117329Y8116315D01*
X9101836Y8111236D01*
X9091422Y8100821D01*
X9091422Y8090408D01*
X9096502Y8079994D01*
X9101836Y8074660D01*
X9112250Y8069579D01*
X9143238Y8059165D01*
X9153652Y8054086D01*
X9158986Y8048752D01*
X9164065Y8038337D01*
X9164065Y8022844D01*
X9153652Y8012429D01*
X9138158Y8007350D01*
X9117329Y8007350D01*
X9101836Y8012429D01*
X9091422Y8022844D01*
X9198356Y8116315D02*
G01*
X9198356Y8007350D01*
X9198356Y8116315D02*
G01*
X9265920Y8116315D01*
X9198356Y8064500D02*
G01*
X9240011Y8064500D01*
X9198356Y8007350D02*
G01*
X9265920Y8007350D01*
X9300209Y8116315D02*
G01*
X9300209Y8007350D01*
X9300209Y8116315D02*
G01*
X9346945Y8116315D01*
X9362440Y8111236D01*
X9367774Y8105902D01*
X9372854Y8095487D01*
X9372854Y8085073D01*
X9367774Y8074660D01*
X9362440Y8069579D01*
X9346945Y8064500D01*
X9300209Y8064500D01*
X9336531Y8064500D02*
G01*
X9372854Y8007350D01*
X6070600Y8141715D02*
G01*
X6070600Y8032750D01*
X6070600Y8141715D02*
G01*
X6112256Y8032750D01*
X6153658Y8141715D02*
G01*
X6112256Y8032750D01*
X6153658Y8141715D02*
G01*
X6153658Y8032750D01*
X6219190Y8141715D02*
G01*
X6208775Y8136636D01*
X6198361Y8126221D01*
X6193281Y8115808D01*
X6187947Y8100060D01*
X6187947Y8074152D01*
X6193281Y8058658D01*
X6198361Y8048244D01*
X6208775Y8037829D01*
X6219190Y8032750D01*
X6240018Y8032750D01*
X6250431Y8037829D01*
X6260845Y8048244D01*
X6265925Y8058658D01*
X6271259Y8074152D01*
X6271259Y8100060D01*
X6265925Y8115808D01*
X6260845Y8126221D01*
X6250431Y8136636D01*
X6240018Y8141715D01*
X6219190Y8141715D01*
X6341872Y8141715D02*
G01*
X6341872Y8032750D01*
X6305550Y8141715D02*
G01*
X6378193Y8141715D01*
X6412484Y8120887D02*
G01*
X6422897Y8126221D01*
X6438391Y8141715D01*
X6438391Y8032750D01*
X7340600Y8141715D02*
G01*
X7340600Y8032750D01*
X7340600Y8141715D02*
G01*
X7382256Y8032750D01*
X7423658Y8141715D02*
G01*
X7382256Y8032750D01*
X7423658Y8141715D02*
G01*
X7423658Y8032750D01*
X7489190Y8141715D02*
G01*
X7478775Y8136636D01*
X7468361Y8126221D01*
X7463281Y8115808D01*
X7457947Y8100060D01*
X7457947Y8074152D01*
X7463281Y8058658D01*
X7468361Y8048244D01*
X7478775Y8037829D01*
X7489190Y8032750D01*
X7510018Y8032750D01*
X7520431Y8037829D01*
X7530845Y8048244D01*
X7535925Y8058658D01*
X7541259Y8074152D01*
X7541259Y8100060D01*
X7535925Y8115808D01*
X7530845Y8126221D01*
X7520431Y8136636D01*
X7510018Y8141715D01*
X7489190Y8141715D01*
X7611872Y8141715D02*
G01*
X7611872Y8032750D01*
X7575550Y8141715D02*
G01*
X7648193Y8141715D01*
X7687563Y8115808D02*
G01*
X7687563Y8120887D01*
X7692897Y8131302D01*
X7697977Y8136636D01*
X7708391Y8141715D01*
X7729220Y8141715D01*
X7739634Y8136636D01*
X7744713Y8131302D01*
X7750047Y8120887D01*
X7750047Y8110473D01*
X7744713Y8100060D01*
X7734300Y8084565D01*
X7682484Y8032750D01*
X7755127Y8032750D01*
X9330943Y12977621D02*
G01*
X9320529Y12988036D01*
X9305036Y12993115D01*
X9284208Y12993115D01*
X9268713Y12988036D01*
X9258300Y12977621D01*
X9258300Y12967208D01*
X9263379Y12956794D01*
X9268713Y12951460D01*
X9279127Y12946379D01*
X9310370Y12935965D01*
X9320529Y12930886D01*
X9325863Y12925552D01*
X9330943Y12915137D01*
X9330943Y12899644D01*
X9320529Y12889229D01*
X9305036Y12884150D01*
X9284208Y12884150D01*
X9268713Y12889229D01*
X9258300Y12899644D01*
X9365234Y12993115D02*
G01*
X9365234Y12884150D01*
X9365234Y12993115D02*
G01*
X9401809Y12993115D01*
X9417304Y12988036D01*
X9427718Y12977621D01*
X9432797Y12967208D01*
X9438131Y12951460D01*
X9438131Y12925552D01*
X9432797Y12910058D01*
X9427718Y12899644D01*
X9417304Y12889229D01*
X9401809Y12884150D01*
X9365234Y12884150D01*
X9907777Y8175244D02*
G01*
X9897363Y8164829D01*
X9892284Y8149336D01*
X9892284Y8128508D01*
X9897363Y8113013D01*
X9907777Y8102600D01*
X9918191Y8102600D01*
X9928606Y8107679D01*
X9933940Y8113013D01*
X9939020Y8123428D01*
X9949434Y8154670D01*
X9954513Y8164829D01*
X9959847Y8170163D01*
X9970261Y8175244D01*
X9985756Y8175244D01*
X9996170Y8164829D01*
X10001250Y8149336D01*
X10001250Y8128508D01*
X9996170Y8113013D01*
X9985756Y8102600D01*
X9892284Y8209534D02*
G01*
X10001250Y8209534D01*
X9892284Y8209534D02*
G01*
X9892284Y8256270D01*
X9897363Y8272018D01*
X9902697Y8277097D01*
X9913111Y8282431D01*
X9928606Y8282431D01*
X9939020Y8277097D01*
X9944100Y8272018D01*
X9949434Y8256270D01*
X9949434Y8209534D01*
X9892284Y8358123D02*
G01*
X10001250Y8316721D01*
X9892284Y8358123D02*
G01*
X10001250Y8399779D01*
X9964927Y8332215D02*
G01*
X9964927Y8384286D01*
X9892284Y8434070D02*
G01*
X10001250Y8434070D01*
X9892284Y8434070D02*
G01*
X9892284Y8480805D01*
X9897363Y8496300D01*
X9902697Y8501634D01*
X9913111Y8506713D01*
X9923525Y8506713D01*
X9933940Y8501634D01*
X9939020Y8496300D01*
X9944100Y8480805D01*
X9944100Y8434070D01*
X9944100Y8470392D02*
G01*
X10001250Y8506713D01*
X9892284Y8541004D02*
G01*
X10001250Y8541004D01*
X9892284Y8541004D02*
G01*
X9892284Y8608568D01*
X9944100Y8541004D02*
G01*
X9944100Y8582660D01*
X10001250Y8541004D02*
G01*
X10001250Y8608568D01*
X9913111Y8642858D02*
G01*
X9907777Y8653271D01*
X9892284Y8669020D01*
X10001250Y8669020D01*
X9907777Y9191244D02*
G01*
X9897363Y9180829D01*
X9892284Y9165336D01*
X9892284Y9144508D01*
X9897363Y9129013D01*
X9907777Y9118600D01*
X9918191Y9118600D01*
X9928606Y9123679D01*
X9933940Y9129013D01*
X9939020Y9139428D01*
X9949434Y9170670D01*
X9954513Y9180829D01*
X9959847Y9186163D01*
X9970261Y9191244D01*
X9985756Y9191244D01*
X9996170Y9180829D01*
X10001250Y9165336D01*
X10001250Y9144508D01*
X9996170Y9129013D01*
X9985756Y9118600D01*
X9892284Y9225534D02*
G01*
X10001250Y9225534D01*
X9892284Y9225534D02*
G01*
X9892284Y9272270D01*
X9897363Y9288018D01*
X9902697Y9293097D01*
X9913111Y9298431D01*
X9928606Y9298431D01*
X9939020Y9293097D01*
X9944100Y9288018D01*
X9949434Y9272270D01*
X9949434Y9225534D01*
X9892284Y9374124D02*
G01*
X10001250Y9332721D01*
X9892284Y9374124D02*
G01*
X10001250Y9415779D01*
X9964927Y9348215D02*
G01*
X9964927Y9400286D01*
X9892284Y9450070D02*
G01*
X10001250Y9450070D01*
X9892284Y9450070D02*
G01*
X9892284Y9496805D01*
X9897363Y9512300D01*
X9902697Y9517634D01*
X9913111Y9522713D01*
X9923525Y9522713D01*
X9933940Y9517634D01*
X9939020Y9512300D01*
X9944100Y9496805D01*
X9944100Y9450070D01*
X9944100Y9486392D02*
G01*
X10001250Y9522713D01*
X9892284Y9557004D02*
G01*
X10001250Y9557004D01*
X9892284Y9557004D02*
G01*
X9892284Y9624568D01*
X9944100Y9557004D02*
G01*
X9944100Y9598660D01*
X10001250Y9557004D02*
G01*
X10001250Y9624568D01*
X9918191Y9664192D02*
G01*
X9913111Y9664192D01*
X9902697Y9669271D01*
X9897363Y9674605D01*
X9892284Y9685020D01*
X9892284Y9705594D01*
X9897363Y9716008D01*
X9902697Y9721342D01*
X9913111Y9726421D01*
X9923525Y9726421D01*
X9933940Y9721342D01*
X9949434Y9710928D01*
X10001250Y9658858D01*
X10001250Y9731755D01*
X9907777Y10207244D02*
G01*
X9897363Y10196829D01*
X9892284Y10181336D01*
X9892284Y10160508D01*
X9897363Y10145013D01*
X9907777Y10134600D01*
X9918191Y10134600D01*
X9928606Y10139679D01*
X9933940Y10145013D01*
X9939020Y10155428D01*
X9949434Y10186670D01*
X9954513Y10196829D01*
X9959847Y10202163D01*
X9970261Y10207244D01*
X9985756Y10207244D01*
X9996170Y10196829D01*
X10001250Y10181336D01*
X10001250Y10160508D01*
X9996170Y10145013D01*
X9985756Y10134600D01*
X9892284Y10241534D02*
G01*
X10001250Y10241534D01*
X9892284Y10241534D02*
G01*
X9892284Y10288270D01*
X9897363Y10304018D01*
X9902697Y10309097D01*
X9913111Y10314431D01*
X9928606Y10314431D01*
X9939020Y10309097D01*
X9944100Y10304018D01*
X9949434Y10288270D01*
X9949434Y10241534D01*
X9892284Y10390124D02*
G01*
X10001250Y10348721D01*
X9892284Y10390124D02*
G01*
X10001250Y10431779D01*
X9964927Y10364215D02*
G01*
X9964927Y10416286D01*
X9892284Y10466070D02*
G01*
X10001250Y10466070D01*
X9892284Y10466070D02*
G01*
X9892284Y10512805D01*
X9897363Y10528300D01*
X9902697Y10533634D01*
X9913111Y10538713D01*
X9923525Y10538713D01*
X9933940Y10533634D01*
X9939020Y10528300D01*
X9944100Y10512805D01*
X9944100Y10466070D01*
X9944100Y10502392D02*
G01*
X10001250Y10538713D01*
X9892284Y10573004D02*
G01*
X10001250Y10573004D01*
X9892284Y10573004D02*
G01*
X9892284Y10640568D01*
X9944100Y10573004D02*
G01*
X9944100Y10614660D01*
X10001250Y10573004D02*
G01*
X10001250Y10640568D01*
X9892284Y10685271D02*
G01*
X9892284Y10742421D01*
X9933940Y10711179D01*
X9933940Y10726928D01*
X9939020Y10737342D01*
X9944100Y10742421D01*
X9959847Y10747755D01*
X9970261Y10747755D01*
X9985756Y10742421D01*
X9996170Y10732008D01*
X10001250Y10716513D01*
X10001250Y10701020D01*
X9996170Y10685271D01*
X9991090Y10680192D01*
X9980675Y10674858D01*
X9134093Y11778742D02*
G01*
X9134093Y11669776D01*
X9134093Y11778742D02*
G01*
X9180829Y11778742D01*
X9196324Y11773662D01*
X9201658Y11768328D01*
X9206738Y11758168D01*
X9206738Y11747754D01*
X9201658Y11737339D01*
X9196324Y11732005D01*
X9180829Y11726926D01*
X9134093Y11726926D02*
G01*
X9180829Y11726926D01*
X9196324Y11721592D01*
X9201658Y11716512D01*
X9206738Y11706097D01*
X9206738Y11690604D01*
X9201658Y11680189D01*
X9196324Y11674855D01*
X9180829Y11669776D01*
X9134093Y11669776D01*
X9241027Y11778742D02*
G01*
X9241027Y11669776D01*
X9241027Y11669776D02*
G01*
X9303511Y11669776D01*
X9337802Y11778742D02*
G01*
X9337802Y11701018D01*
X9342881Y11685270D01*
X9353295Y11674855D01*
X9368790Y11669776D01*
X9379204Y11669776D01*
X9394952Y11674855D01*
X9405111Y11685270D01*
X9410445Y11701018D01*
X9410445Y11778742D01*
X9444736Y11778742D02*
G01*
X9444736Y11669776D01*
X9444736Y11778742D02*
G01*
X9512300Y11778742D01*
X9444736Y11726926D02*
G01*
X9486391Y11726926D01*
X9444736Y11669776D02*
G01*
X9512300Y11669776D01*
X9546590Y11633454D02*
G01*
X9640061Y11633454D01*
X9674352Y11778742D02*
G01*
X9674352Y11669776D01*
X9674352Y11669776D02*
G01*
X9736581Y11669776D01*
X9770872Y11778742D02*
G01*
X9770872Y11669776D01*
X9770872Y11778742D02*
G01*
X9838436Y11778742D01*
X9770872Y11726926D02*
G01*
X9812527Y11726926D01*
X9770872Y11669776D02*
G01*
X9838436Y11669776D01*
X9872725Y11778742D02*
G01*
X9872725Y11669776D01*
X9872725Y11778742D02*
G01*
X9909302Y11778742D01*
X9924795Y11773662D01*
X9935209Y11763247D01*
X9940290Y11752834D01*
X9945624Y11737339D01*
X9945624Y11711178D01*
X9940290Y11695684D01*
X9935209Y11685270D01*
X9924795Y11674855D01*
X9909302Y11669776D01*
X9872725Y11669776D01*
X9134093Y10750042D02*
G01*
X9134093Y10641076D01*
X9134093Y10750042D02*
G01*
X9180829Y10750042D01*
X9196324Y10744962D01*
X9201658Y10739628D01*
X9206738Y10729468D01*
X9206738Y10719054D01*
X9201658Y10708639D01*
X9196324Y10703305D01*
X9180829Y10698226D01*
X9134093Y10698226D01*
X9170415Y10698226D02*
G01*
X9206738Y10641076D01*
X9241027Y10750042D02*
G01*
X9241027Y10641076D01*
X9241027Y10750042D02*
G01*
X9308591Y10750042D01*
X9241027Y10698226D02*
G01*
X9282684Y10698226D01*
X9241027Y10641076D02*
G01*
X9308591Y10641076D01*
X9342881Y10750042D02*
G01*
X9342881Y10641076D01*
X9342881Y10750042D02*
G01*
X9379204Y10750042D01*
X9394952Y10744962D01*
X9405111Y10734547D01*
X9410445Y10724134D01*
X9415525Y10708639D01*
X9415525Y10682478D01*
X9410445Y10666984D01*
X9405111Y10656570D01*
X9394952Y10646155D01*
X9379204Y10641076D01*
X9342881Y10641076D01*
X9449815Y10604754D02*
G01*
X9543541Y10604754D01*
X9577831Y10750042D02*
G01*
X9577831Y10641076D01*
X9577831Y10641076D02*
G01*
X9640061Y10641076D01*
X9674352Y10750042D02*
G01*
X9674352Y10641076D01*
X9674352Y10750042D02*
G01*
X9741915Y10750042D01*
X9674352Y10698226D02*
G01*
X9716008Y10698226D01*
X9674352Y10641076D02*
G01*
X9741915Y10641076D01*
X9776206Y10750042D02*
G01*
X9776206Y10641076D01*
X9776206Y10750042D02*
G01*
X9812527Y10750042D01*
X9828022Y10744962D01*
X9838436Y10734547D01*
X9843770Y10724134D01*
X9848850Y10708639D01*
X9848850Y10682478D01*
X9843770Y10666984D01*
X9838436Y10656570D01*
X9828022Y10646155D01*
X9812527Y10641076D01*
X9776206Y10641076D01*
X9134093Y11245342D02*
G01*
X9160002Y11136376D01*
X9185909Y11245342D02*
G01*
X9160002Y11136376D01*
X9185909Y11245342D02*
G01*
X9212072Y11136376D01*
X9237979Y11245342D02*
G01*
X9212072Y11136376D01*
X9272270Y11245342D02*
G01*
X9272270Y11136376D01*
X9344913Y11245342D02*
G01*
X9344913Y11136376D01*
X9272270Y11193526D02*
G01*
X9344913Y11193526D01*
X9379204Y11245342D02*
G01*
X9379204Y11136376D01*
X9449815Y11245342D02*
G01*
X9449815Y11136376D01*
X9413493Y11245342D02*
G01*
X9486391Y11245342D01*
X9520681Y11245342D02*
G01*
X9520681Y11136376D01*
X9520681Y11245342D02*
G01*
X9587991Y11245342D01*
X9520681Y11193526D02*
G01*
X9562084Y11193526D01*
X9520681Y11136376D02*
G01*
X9587991Y11136376D01*
X9622281Y11100054D02*
G01*
X9716008Y11100054D01*
X9750297Y11245342D02*
G01*
X9750297Y11136376D01*
X9750297Y11136376D02*
G01*
X9812527Y11136376D01*
X9846818Y11245342D02*
G01*
X9846818Y11136376D01*
X9846818Y11245342D02*
G01*
X9914381Y11245342D01*
X9846818Y11193526D02*
G01*
X9888474Y11193526D01*
X9846818Y11136376D02*
G01*
X9914381Y11136376D01*
X9948672Y11245342D02*
G01*
X9948672Y11136376D01*
X9948672Y11245342D02*
G01*
X9984993Y11245342D01*
X10000741Y11240262D01*
X10010902Y11229847D01*
X10016236Y11219434D01*
X10021315Y11203939D01*
X10021315Y11177778D01*
X10016236Y11162284D01*
X10010902Y11151870D01*
X10000741Y11141455D01*
X9984993Y11136376D01*
X9948672Y11136376D01*
X9043415Y9652000D02*
G01*
X8934450Y9652000D01*
X9043415Y9652000D02*
G01*
X9043415Y9605263D01*
X9038336Y9589770D01*
X9033002Y9584436D01*
X9022588Y9579355D01*
X9012174Y9579355D01*
X9001759Y9584436D01*
X8996679Y9589770D01*
X8991600Y9605263D01*
X8991600Y9652000D02*
G01*
X8991600Y9605263D01*
X8986265Y9589770D01*
X8981186Y9584436D01*
X8970772Y9579355D01*
X8955024Y9579355D01*
X8944609Y9584436D01*
X8939529Y9589770D01*
X8934450Y9605263D01*
X8934450Y9652000D01*
X9027922Y9472421D02*
G01*
X9038336Y9482581D01*
X9043415Y9498329D01*
X9043415Y9519158D01*
X9038336Y9534652D01*
X9027922Y9545065D01*
X9017508Y9545065D01*
X9007093Y9539731D01*
X9001759Y9534652D01*
X8996679Y9524237D01*
X8986265Y9492995D01*
X8981186Y9482581D01*
X8975852Y9477502D01*
X8965438Y9472421D01*
X8949943Y9472421D01*
X8939529Y9482581D01*
X8934450Y9498329D01*
X8934450Y9519158D01*
X8939529Y9534652D01*
X8949943Y9545065D01*
X9027922Y9365234D02*
G01*
X9038336Y9375647D01*
X9043415Y9391142D01*
X9043415Y9411970D01*
X9038336Y9427718D01*
X9027922Y9438131D01*
X9017508Y9438131D01*
X9007093Y9432797D01*
X9001759Y9427718D01*
X8996679Y9417304D01*
X8986265Y9386062D01*
X8981186Y9375647D01*
X8975852Y9370568D01*
X8965438Y9365234D01*
X8949943Y9365234D01*
X8939529Y9375647D01*
X8934450Y9391142D01*
X8934450Y9411970D01*
X8939529Y9427718D01*
X8949943Y9438131D01*
X9022588Y9330944D02*
G01*
X9027922Y9320529D01*
X9043415Y9305036D01*
X8934450Y9305036D01*
X9043415Y9260331D02*
G01*
X9043415Y9203181D01*
X9001759Y9234424D01*
X9001759Y9218676D01*
X8996679Y9208262D01*
X8991600Y9203181D01*
X8975852Y9198102D01*
X8965438Y9198102D01*
X8949943Y9203181D01*
X8939529Y9213595D01*
X8934450Y9229089D01*
X8934450Y9244837D01*
X8939529Y9260331D01*
X8944609Y9265412D01*
X8955024Y9270745D01*
X9022588Y9163812D02*
G01*
X9027922Y9153397D01*
X9043415Y9137650D01*
X8934450Y9137650D01*
X6417439Y11806694D02*
G01*
X6412359Y11817108D01*
X6401945Y11827522D01*
X6391531Y11832602D01*
X6370703Y11832602D01*
X6360289Y11827522D01*
X6349875Y11817108D01*
X6344795Y11806694D01*
X6339715Y11791200D01*
X6339715Y11765038D01*
X6344795Y11749544D01*
X6349875Y11739130D01*
X6360289Y11728716D01*
X6370703Y11723636D01*
X6391531Y11723636D01*
X6401945Y11728716D01*
X6412359Y11739130D01*
X6417439Y11749544D01*
X6493385Y11832602D02*
G01*
X6451729Y11723636D01*
X6493385Y11832602D02*
G01*
X6535041Y11723636D01*
X6467477Y11759958D02*
G01*
X6519293Y11759958D01*
X6569331Y11832602D02*
G01*
X6569331Y11723636D01*
X6569331Y11832602D02*
G01*
X6641975Y11723636D01*
X6641975Y11832602D02*
G01*
X6641975Y11723636D01*
X6478777Y13881607D02*
G01*
X6473443Y13892021D01*
X6463029Y13902436D01*
X6452870Y13907516D01*
X6432041Y13907516D01*
X6421627Y13902436D01*
X6411213Y13892021D01*
X6405879Y13881607D01*
X6400800Y13865860D01*
X6400800Y13839952D01*
X6405879Y13824457D01*
X6411213Y13814044D01*
X6421627Y13803629D01*
X6432041Y13798550D01*
X6452870Y13798550D01*
X6463029Y13803629D01*
X6473443Y13814044D01*
X6478777Y13824457D01*
X6554470Y13907516D02*
G01*
X6513068Y13798550D01*
X6554470Y13907516D02*
G01*
X6596125Y13798550D01*
X6528561Y13834871D02*
G01*
X6580631Y13834871D01*
X6630415Y13907516D02*
G01*
X6630415Y13798550D01*
X6630415Y13907516D02*
G01*
X6703059Y13798550D01*
X6703059Y13907516D02*
G01*
X6703059Y13798550D01*
X6737350Y13761974D02*
G01*
X6831075Y13761974D01*
X6896354Y13907516D02*
G01*
X6885940Y13902436D01*
X6875779Y13892021D01*
X6870445Y13881607D01*
X6865365Y13865860D01*
X6865365Y13839952D01*
X6870445Y13824457D01*
X6875779Y13814044D01*
X6885940Y13803629D01*
X6896354Y13798550D01*
X6917181Y13798550D01*
X6927595Y13803629D01*
X6938009Y13814044D01*
X6943090Y13824457D01*
X6948424Y13839952D01*
X6948424Y13865860D01*
X6943090Y13881607D01*
X6938009Y13892021D01*
X6927595Y13902436D01*
X6917181Y13907516D01*
X6896354Y13907516D01*
X6982713Y13907516D02*
G01*
X6982713Y13829537D01*
X6987793Y13814044D01*
X6998208Y13803629D01*
X7013956Y13798550D01*
X7024370Y13798550D01*
X7039863Y13803629D01*
X7050277Y13814044D01*
X7055358Y13829537D01*
X7055358Y13907516D01*
X7125970Y13907516D02*
G01*
X7125970Y13798550D01*
X7089647Y13907516D02*
G01*
X7162545Y13907516D01*
X7196836Y13907516D02*
G01*
X7196836Y13798550D01*
X7196836Y13907516D02*
G01*
X7243572Y13907516D01*
X7259065Y13902436D01*
X7264400Y13897102D01*
X7269479Y13886687D01*
X7269479Y13871194D01*
X7264400Y13860779D01*
X7259065Y13855700D01*
X7243572Y13850366D01*
X7196836Y13850366D01*
X7303770Y13907516D02*
G01*
X7303770Y13829537D01*
X7308850Y13814044D01*
X7319263Y13803629D01*
X7335011Y13798550D01*
X7345425Y13798550D01*
X7360920Y13803629D01*
X7371334Y13814044D01*
X7376413Y13829537D01*
X7376413Y13907516D01*
X7447279Y13907516D02*
G01*
X7447279Y13798550D01*
X7410704Y13907516D02*
G01*
X7483602Y13907516D01*
X7590536Y13892021D02*
G01*
X7580122Y13902436D01*
X7564627Y13907516D01*
X7543800Y13907516D01*
X7528306Y13902436D01*
X7517891Y13892021D01*
X7517891Y13881607D01*
X7522972Y13871194D01*
X7528306Y13865860D01*
X7538720Y13860779D01*
X7569708Y13850366D01*
X7580122Y13845286D01*
X7585456Y13839952D01*
X7590536Y13829537D01*
X7590536Y13814044D01*
X7580122Y13803629D01*
X7564627Y13798550D01*
X7543800Y13798550D01*
X7528306Y13803629D01*
X7517891Y13814044D01*
X6871710Y12572989D02*
G01*
X6762744Y12572989D01*
X6871710Y12572989D02*
G01*
X6871710Y12526253D01*
X6866630Y12510759D01*
X6861296Y12505425D01*
X6850882Y12500345D01*
X6835388Y12500345D01*
X6824974Y12505425D01*
X6819894Y12510759D01*
X6814560Y12526253D01*
X6814560Y12572989D01*
X6871710Y12466055D02*
G01*
X6762744Y12439893D01*
X6871710Y12413985D02*
G01*
X6762744Y12439893D01*
X6871710Y12413985D02*
G01*
X6762744Y12388077D01*
X6871710Y12362169D02*
G01*
X6762744Y12388077D01*
X6871710Y12327879D02*
G01*
X6762744Y12327879D01*
X6871710Y12327879D02*
G01*
X6762744Y12286223D01*
X6871710Y12244567D02*
G01*
X6762744Y12286223D01*
X6871710Y12244567D02*
G01*
X6762744Y12244567D01*
X8623300Y9056115D02*
G01*
X8623300Y8947150D01*
X8623300Y9056115D02*
G01*
X8670036Y9056115D01*
X8685529Y9051036D01*
X8690863Y9045702D01*
X8695943Y9035287D01*
X8695943Y9024874D01*
X8690863Y9014460D01*
X8685529Y9009379D01*
X8670036Y9004300D01*
X8623300Y9004300D01*
X8659622Y9004300D02*
G01*
X8695943Y8947150D01*
X8792718Y9056115D02*
G01*
X8740647Y9056115D01*
X8735568Y9009379D01*
X8740647Y9014460D01*
X8756395Y9019794D01*
X8771890Y9019794D01*
X8787384Y9014460D01*
X8797797Y9004300D01*
X8803131Y8988552D01*
X8803131Y8978137D01*
X8797797Y8962644D01*
X8787384Y8952229D01*
X8771890Y8947150D01*
X8756395Y8947150D01*
X8740647Y8952229D01*
X8735568Y8957310D01*
X8730234Y8967724D01*
X7710677Y9254744D02*
G01*
X7700263Y9244329D01*
X7695184Y9228836D01*
X7695184Y9208008D01*
X7700263Y9192513D01*
X7710677Y9182100D01*
X7721091Y9182100D01*
X7731506Y9187179D01*
X7736840Y9192513D01*
X7741920Y9202928D01*
X7752334Y9234170D01*
X7757413Y9244329D01*
X7762747Y9249663D01*
X7773161Y9254744D01*
X7788656Y9254744D01*
X7799070Y9244329D01*
X7804150Y9228836D01*
X7804150Y9208008D01*
X7799070Y9192513D01*
X7788656Y9182100D01*
X7695184Y9289034D02*
G01*
X7804150Y9289034D01*
X7721091Y9328658D02*
G01*
X7716011Y9328658D01*
X7705597Y9333737D01*
X7700263Y9339071D01*
X7695184Y9349486D01*
X7695184Y9370060D01*
X7700263Y9380474D01*
X7705597Y9385808D01*
X7716011Y9390887D01*
X7726425Y9390887D01*
X7736840Y9385808D01*
X7752334Y9375394D01*
X7804150Y9323324D01*
X7804150Y9396221D01*
X7695184Y9440926D02*
G01*
X7695184Y9498076D01*
X7736840Y9466834D01*
X7736840Y9482328D01*
X7741920Y9492742D01*
X7747000Y9498076D01*
X7762747Y9503155D01*
X7773161Y9503155D01*
X7788656Y9498076D01*
X7799070Y9487662D01*
X7804150Y9471913D01*
X7804150Y9456420D01*
X7799070Y9440926D01*
X7793990Y9435592D01*
X7783575Y9430512D01*
X7695184Y9568687D02*
G01*
X7700263Y9552939D01*
X7716011Y9542779D01*
X7741920Y9537445D01*
X7757413Y9537445D01*
X7783575Y9542779D01*
X7799070Y9552939D01*
X7804150Y9568687D01*
X7804150Y9579102D01*
X7799070Y9594595D01*
X7783575Y9605010D01*
X7757413Y9610089D01*
X7741920Y9610089D01*
X7716011Y9605010D01*
X7700263Y9594595D01*
X7695184Y9579102D01*
X7695184Y9568687D01*
X7695184Y9706863D02*
G01*
X7695184Y9654794D01*
X7741920Y9649713D01*
X7736840Y9654794D01*
X7731506Y9670542D01*
X7731506Y9686036D01*
X7736840Y9701529D01*
X7747000Y9711944D01*
X7762747Y9717278D01*
X7773161Y9717278D01*
X7788656Y9711944D01*
X7799070Y9701529D01*
X7804150Y9686036D01*
X7804150Y9670542D01*
X7799070Y9654794D01*
X7793990Y9649713D01*
X7783575Y9644379D01*
X7721091Y9829545D02*
G01*
X7710677Y9824212D01*
X7700263Y9813797D01*
X7695184Y9803384D01*
X7695184Y9782810D01*
X7700263Y9772395D01*
X7710677Y9761981D01*
X7721091Y9756647D01*
X7736840Y9751568D01*
X7762747Y9751568D01*
X7778241Y9756647D01*
X7788656Y9761981D01*
X7799070Y9772395D01*
X7804150Y9782810D01*
X7804150Y9803384D01*
X7799070Y9813797D01*
X7788656Y9824212D01*
X7778241Y9829545D01*
X7695184Y9863836D02*
G01*
X7804150Y9863836D01*
X7695184Y9863836D02*
G01*
X7695184Y9900158D01*
X7700263Y9915652D01*
X7710677Y9926065D01*
X7721091Y9931400D01*
X7736840Y9936479D01*
X7762747Y9936479D01*
X7778241Y9931400D01*
X7788656Y9926065D01*
X7799070Y9915652D01*
X7804150Y9900158D01*
X7804150Y9863836D01*
X7710677Y10043413D02*
G01*
X7700263Y10033000D01*
X7695184Y10017505D01*
X7695184Y9996678D01*
X7700263Y9981184D01*
X7710677Y9970770D01*
X7721091Y9970770D01*
X7731506Y9975850D01*
X7736840Y9981184D01*
X7741920Y9991597D01*
X7752334Y10022839D01*
X7757413Y10033000D01*
X7762747Y10038334D01*
X7773161Y10043413D01*
X7788656Y10043413D01*
X7799070Y10033000D01*
X7804150Y10017505D01*
X7804150Y9996678D01*
X7799070Y9981184D01*
X7788656Y9970770D01*
G36*
X9133078Y11580215D02*
G01*
X9132062Y11508232D01*
X9158071Y11544249D01*
G37*
G36*
X9133078Y10551515D02*
G01*
X9132062Y10479532D01*
X9158071Y10515549D01*
G37*
G36*
X9133078Y11046815D02*
G01*
X9132062Y10974832D01*
X9158071Y11010849D01*
G37*
D12*
X7505001Y10453977D02*
G01*
X7505001Y10373974D01*
X7394026Y10484962D02*
G01*
X7474023Y10484962D01*
X7394026Y10342996D02*
G01*
X7474023Y10342996D01*
X7336436Y10485544D02*
G01*
X7256437Y10485544D01*
X7225454Y10454561D02*
G01*
X7225454Y10374563D01*
X7336436Y10343583D02*
G01*
X7256437Y10343583D01*
X2018601Y8155277D02*
G01*
X2018601Y8075274D01*
X1907626Y8186262D02*
G01*
X1987623Y8186262D01*
X1907626Y8044296D02*
G01*
X1987623Y8044296D01*
X1850036Y8186844D02*
G01*
X1770037Y8186844D01*
X1739054Y8155861D02*
G01*
X1739054Y8075863D01*
X1850036Y8044883D02*
G01*
X1770037Y8044883D01*
X1497901Y13616277D02*
G01*
X1497901Y13536274D01*
X1386926Y13647262D02*
G01*
X1466923Y13647262D01*
X1386926Y13505296D02*
G01*
X1466923Y13505296D01*
X1329336Y13647844D02*
G01*
X1249337Y13647844D01*
X1218354Y13616861D02*
G01*
X1218354Y13536863D01*
X1329336Y13505883D02*
G01*
X1249337Y13505883D01*
X959307Y8793099D02*
G01*
X959307Y7793101D01*
X1573733Y8793632D02*
G01*
X1591099Y8833104D01*
X1491099Y8833104D01*
X1510792Y8793632D01*
X1641099Y8793099D02*
G01*
X1641099Y7793101D01*
X1641099Y8793099D02*
G01*
X881100Y8793099D01*
X1641099Y7793101D02*
G01*
X881100Y7793101D01*
X881100Y8793099D02*
G01*
X881100Y7793101D01*
X1421180Y8793099D02*
G01*
X1421180Y7793101D01*
D10*
X8424621Y11478239D02*
G01*
X8520508Y11478239D01*
X8520508Y11610360D01*
X8424621Y11610360D01*
X8339378Y11478239D02*
G01*
X8243491Y11478239D01*
X8243491Y11610360D01*
X8339378Y11610360D01*
X8424621Y10944839D02*
G01*
X8520508Y10944839D01*
X8520508Y11076960D01*
X8424621Y11076960D01*
X8339378Y10944839D02*
G01*
X8243491Y10944839D01*
X8243491Y11076960D01*
X8339378Y11076960D01*
X8424621Y10449539D02*
G01*
X8520508Y10449539D01*
X8520508Y10581660D01*
X8424621Y10581660D01*
X8339378Y10449539D02*
G01*
X8243491Y10449539D01*
X8243491Y10581660D01*
X8339378Y10581660D01*
X7421321Y9598639D02*
G01*
X7517208Y9598639D01*
X7517208Y9730760D01*
X7421321Y9730760D01*
X7336078Y9598639D02*
G01*
X7240191Y9598639D01*
X7240191Y9730760D01*
X7336078Y9730760D01*
D11*
X4318000Y13931900D02*
G01*
X4318000Y10883900D01*
X2768600Y13931900D02*
G01*
X2768600Y10883900D01*
X4318000Y13931900D02*
G01*
X2768600Y13931900D01*
D13*
X4165600Y13855700D02*
G01*
X4165475Y13500026D01*
X3987800Y13855700D02*
G01*
X3987675Y13500026D01*
X2870200Y13855700D02*
G01*
X2870200Y13525500D01*
X2870200Y13855700D02*
G01*
X2895600Y13855700D01*
X3073400Y13855700D01*
X3073400Y13627100D01*
X3302000Y13627100D01*
X3302000Y13855700D01*
X3530600Y13855700D01*
X3530600Y13627100D01*
X3759200Y13627100D01*
X3759200Y13855700D01*
X4165600Y13855700D01*
D11*
X4191000Y12915900D02*
G01*
X3860800Y12915900D01*
X3860800Y13169900D02*
G01*
X3860800Y12915900D01*
X3860800Y13169900D02*
G01*
X2921000Y13169900D01*
X4191000Y12915900D02*
G01*
X4191000Y11085319D01*
X2921000Y13169900D02*
G01*
X2921000Y11085319D01*
X4191000Y11085319D02*
G01*
X2921000Y11085319D01*
X4318000Y10883900D02*
G01*
X2768600Y10883900D01*
X2133600Y8216900D02*
G01*
X2133600Y13296900D01*
X4927600Y13296900D02*
G01*
X2133600Y13296900D01*
D14*
X2133600Y8220710D02*
G01*
X3149600Y8220710D01*
X3911600Y8220710D02*
G01*
X4927600Y8220710D01*
X3149600Y8220710D02*
G01*
X3149600Y8119110D01*
X3911600Y8119110D01*
X3911600Y8220710D01*
X3911600Y8220710D02*
G01*
X3911600Y8754110D01*
X3149600Y8754110D01*
X3149600Y8220710D01*
X4927600Y8216900D02*
G01*
X4927600Y13296900D01*
D12*
X2768600Y9994900D02*
G01*
X4292600Y9994900D01*
X4292600Y9664700D01*
X2768600Y9664700D01*
X2768600Y9994900D01*
D11*
X6604000Y10033000D02*
G01*
X6604000Y9779000D01*
X5588000Y9779000D01*
X5588000Y10033000D01*
X5778500Y10033000D01*
D15*
X6604000Y10033000D02*
G01*
X5778500Y10033000D01*
D11*
X6604000Y9271000D02*
G01*
X6604000Y9017000D01*
X5588000Y9017000D01*
X5588000Y9271000D01*
X5778500Y9271000D01*
D15*
X6604000Y9271000D02*
G01*
X5778500Y9271000D01*
X9144000Y7988300D02*
G01*
X8826500Y7988300D01*
D11*
X9144000Y7988300D02*
G01*
X9144000Y7734300D01*
X8636000Y7734300D01*
X8636000Y7988300D01*
X8826500Y7988300D01*
X5905500Y8001000D02*
G01*
X5715000Y8001000D01*
X5715000Y7747000D01*
X6477000Y7747000D01*
X6477000Y8001000D01*
D15*
X6477000Y8001000D02*
G01*
X5905500Y8001000D01*
D11*
X7175500Y8001000D02*
G01*
X6985000Y8001000D01*
X6985000Y7747000D01*
X7747000Y7747000D01*
X7747000Y8001000D01*
D15*
X7747000Y8001000D02*
G01*
X7175500Y8001000D01*
D11*
X8712200Y12852400D02*
G01*
X8521700Y12852400D01*
X8521700Y12598400D01*
X10045700Y12598400D01*
X10045700Y12852400D01*
D15*
X10045700Y12852400D02*
G01*
X8712200Y12852400D01*
D11*
X10033000Y7937500D02*
G01*
X10033000Y7747000D01*
X10287000Y7747000D01*
X10287000Y8509000D01*
X10033000Y8509000D01*
D15*
X10033000Y8509000D02*
G01*
X10033000Y7937500D01*
D11*
X10033000Y8953500D02*
G01*
X10033000Y8763000D01*
X10287000Y8763000D01*
X10287000Y9525000D01*
X10033000Y9525000D01*
D15*
X10033000Y9525000D02*
G01*
X10033000Y8953500D01*
D11*
X10033000Y9969500D02*
G01*
X10033000Y9779000D01*
X10287000Y9779000D01*
X10287000Y10541000D01*
X10033000Y10541000D01*
D15*
X10033000Y10541000D02*
G01*
X10033000Y9969500D01*
D16*
X9181068Y11617223D02*
G01*
X9296067Y11617223D01*
X9296067Y11472224D01*
X9176067Y11472224D01*
X9114068Y11471224D02*
G01*
X8990068Y11471224D01*
X8990068Y11616222D01*
X9114068Y11616222D01*
X9296067Y11617223D02*
G01*
X9299069Y11617223D01*
X9319069Y11597223D01*
X9319069Y11495224D01*
X9316067Y11492224D01*
X9296067Y11472224D01*
X9181068Y10588523D02*
G01*
X9296067Y10588523D01*
X9296067Y10443524D01*
X9176067Y10443524D01*
X9114068Y10442524D02*
G01*
X8990068Y10442524D01*
X8990068Y10587522D01*
X9114068Y10587522D01*
X9296067Y10588523D02*
G01*
X9299069Y10588523D01*
X9319069Y10568523D01*
X9319069Y10466524D01*
X9316067Y10463524D01*
X9296067Y10443524D01*
X9181068Y11083823D02*
G01*
X9296067Y11083823D01*
X9296067Y10938824D01*
X9176067Y10938824D01*
X9114068Y10937824D02*
G01*
X8990068Y10937824D01*
X8990068Y11082822D01*
X9114068Y11082822D01*
X9296067Y11083823D02*
G01*
X9299069Y11083823D01*
X9319069Y11063823D01*
X9319069Y10961824D01*
X9316067Y10958824D01*
X9296067Y10938824D01*
D10*
X8877520Y9579378D02*
G01*
X8877520Y9724621D01*
X8774358Y9724621D01*
X8572279Y9579378D02*
G01*
X8572279Y9724621D01*
X8675441Y9724621D01*
X8770439Y9579378D02*
G01*
X8679360Y9579378D01*
D12*
X6130000Y10701406D02*
G01*
X6569999Y10701406D01*
X6569999Y11651406D02*
G01*
X6569999Y11640527D01*
X6569999Y10712284D02*
G01*
X6569999Y10701406D01*
X6130000Y11651406D02*
G01*
X6130000Y11640527D01*
X6130000Y10712284D02*
G01*
X6130000Y10701406D01*
X6569999Y11651406D02*
G01*
X6449999Y11651406D01*
X6130000Y11651406D02*
G01*
X6250000Y11651406D01*
D15*
X7442200Y13766800D02*
G01*
X5600700Y13766800D01*
D11*
X7442200Y13766800D02*
G01*
X7442200Y13512800D01*
X5410200Y13512800D01*
X5410200Y13766800D01*
X5600700Y13766800D01*
D10*
X6197856Y12987721D02*
G01*
X6502138Y12987721D01*
X6502138Y12107478D01*
X6197856Y12107478D01*
X6197856Y12987721D01*
X8669578Y9248160D02*
G01*
X8573691Y9248160D01*
X8573691Y9116039D01*
X8669578Y9116039D01*
X8754821Y9248160D02*
G01*
X8850708Y9248160D01*
X8850708Y9116039D01*
X8754821Y9116039D01*
X7861079Y9254721D02*
G01*
X7861079Y9109478D01*
X7964241Y9109478D01*
X8166320Y9254721D02*
G01*
X8166320Y9109478D01*
X8063158Y9109478D01*
X7968160Y9254721D02*
G01*
X8059239Y9254721D01*
D12*
G75*
G01*
X7225449Y10454561D02*
G02*
X7256432Y10485544I30983J0D01*
G75*
G01*
X7256432Y10343578D02*
G02*
X7225449Y10374564I0J30983D01*
G75*
G01*
X7474019Y10484963D02*
G02*
X7505001Y10453977I0J-30983D01*
G75*
G01*
X7505001Y10373980D02*
G02*
X7474019Y10342997I-30982J0D01*
G75*
G01*
X1739049Y8155861D02*
G02*
X1770032Y8186844I30983J0D01*
G75*
G01*
X1770032Y8044878D02*
G02*
X1739049Y8075864I0J30983D01*
G75*
G01*
X1987619Y8186263D02*
G02*
X2018601Y8155277I0J-30983D01*
G75*
G01*
X2018601Y8075280D02*
G02*
X1987619Y8044297I-30982J0D01*
G75*
G01*
X1218349Y13616861D02*
G02*
X1249332Y13647844I30983J0D01*
G75*
G01*
X1249332Y13505879D02*
G02*
X1218349Y13536864I0J30982D01*
G75*
G01*
X1466919Y13647263D02*
G02*
X1497901Y13616277I0J-30983D01*
G75*
G01*
X1497901Y13536280D02*
G02*
X1466919Y13505297I-30982J0D01*
G75*
G01*
X6250000Y11651407D02*
G03*
X6442080Y11651803I95950J43877D01*
G75*
G01
X4165600Y13068300D02*
G03X4165600Y13068300I-76200J0D01*
G75*
G01
X6179998Y11605997D02*
G03X6179998Y11605997I-10008J0D01*
D17*
G75*
G01
X6288100Y12928600D02*
G03X6288100Y12928600I-15011J0D01*
G75*
G01
X6088101Y13002539D02*
G03X6088101Y13002539I-15011J0D01*
M02*
