G04 Layer: BottomSolderMaskLayer*
G04 EasyEDA v6.5.22, 2022-12-01 15:05:32*
G04 f9cf6ae4047b4148b17f980a7d3d99a3,3377a35bda5640eaacad09db658d017c,10*
G04 Gerber Generator version 0.2*
G04 Scale: 100 percent, Rotated: No, Reflected: No *
G04 Dimensions in inches *
G04 leading zeros omitted , absolute positions ,3 integer and 6 decimal *
%FSLAX36Y36*%
%MOIN*%

%AMMACRO1*1,1,$1,$2,$3*1,1,$1,$4,$5*1,1,$1,0-$2,0-$3*1,1,$1,0-$4,0-$5*20,1,$1,$2,$3,$4,$5,0*20,1,$1,$4,$5,0-$2,0-$3,0*20,1,$1,0-$2,0-$3,0-$4,0-$5,0*20,1,$1,0-$4,0-$5,$2,$3,0*4,1,4,$2,$3,$4,$5,0-$2,0-$3,0-$4,0-$5,$2,$3,0*%
%ADD10MACRO1,0.004X-0.031X0.031X0.031X0.031*%
%ADD11C,0.0660*%
%ADD12R,0.0660X0.0660*%
%ADD13C,0.0670*%
%ADD14C,0.0709*%
%ADD15MACRO1,0.004X0.0335X-0.0335X-0.0335X-0.0335*%

%LPD*%
D10*
G01*
X1795000Y-190000D03*
D11*
G01*
X1895000Y-190000D03*
G01*
X1995000Y-190000D03*
D10*
G01*
X2240000Y-190000D03*
D11*
G01*
X2340000Y-190000D03*
G01*
X2440000Y-190000D03*
D10*
G01*
X2710000Y-195000D03*
D11*
G01*
X2810000Y-195000D03*
G01*
X2910000Y-195000D03*
D12*
G01*
X2950000Y215000D03*
D11*
G01*
X2950000Y315000D03*
G01*
X2950000Y415000D03*
D12*
G01*
X2950000Y690000D03*
D11*
G01*
X2950000Y790000D03*
G01*
X2950000Y890000D03*
D12*
G01*
X2950000Y1145000D03*
D11*
G01*
X2950000Y1245000D03*
G01*
X2950000Y1345000D03*
D12*
G01*
X1830000Y600000D03*
D11*
G01*
X1830000Y700000D03*
G01*
X1830000Y800000D03*
G01*
X1830000Y900000D03*
D12*
G01*
X1845000Y45000D03*
D11*
G01*
X1845000Y145000D03*
G01*
X1845000Y245000D03*
G01*
X1845000Y345000D03*
D13*
G01*
X450000Y1945000D03*
G01*
X550000Y1945000D03*
D11*
G01*
X3050000Y1615000D03*
G01*
X2950000Y1615000D03*
G01*
X2850000Y1615000D03*
G01*
X2750000Y1615000D03*
G01*
X2650000Y1615000D03*
D10*
G01*
X2550000Y1615000D03*
G01*
X395000Y-170000D03*
D11*
G01*
X395000Y-70000D03*
D10*
G01*
X1645000Y1955000D03*
D11*
G01*
X1745000Y1955000D03*
G01*
X1845000Y1955000D03*
G01*
X1945000Y1955000D03*
G01*
X2045000Y1955000D03*
G01*
X2145000Y1955000D03*
G01*
X2245000Y1955000D03*
G01*
X2345000Y1955000D03*
D14*
G01*
X1565000Y1620000D03*
G01*
X1565000Y1520000D03*
G01*
X1565000Y1420000D03*
G01*
X1565000Y1320000D03*
G01*
X1565000Y1220000D03*
G01*
X1565000Y1120000D03*
G01*
X1565000Y1020000D03*
G01*
X1565000Y920000D03*
G01*
X1565000Y820000D03*
G01*
X1565000Y720000D03*
G01*
X1565000Y620000D03*
G01*
X1565000Y520000D03*
G01*
X1565000Y420000D03*
G01*
X1565000Y320000D03*
G01*
X1565000Y220000D03*
G01*
X565000Y1520000D03*
G01*
X565000Y1420000D03*
G01*
X565000Y1320000D03*
G01*
X565000Y1220000D03*
G01*
X565000Y1120000D03*
G01*
X565000Y1020000D03*
G01*
X565000Y920000D03*
G01*
X565000Y820000D03*
G01*
X565000Y720000D03*
G01*
X565000Y620000D03*
G01*
X565000Y520000D03*
G01*
X565000Y420000D03*
G01*
X565000Y320000D03*
G01*
X565000Y220000D03*
G01*
X565000Y1620000D03*
G01*
X1565000Y120000D03*
G01*
X1565000Y20000D03*
D15*
G01*
X1564994Y1719994D03*
G01*
X564994Y1719994D03*
D14*
G01*
X565000Y120000D03*
G01*
X565000Y20000D03*
G01*
X1565000Y-80000D03*
G01*
X565000Y-80000D03*
G01*
X565000Y-180000D03*
G01*
X1565000Y-180000D03*
M02*
